{
.appVersion = "1141";
customParameters = (
{
name = glyphOrder;
value = (
space,
exclam,
quotesingle,
quotedbl,
numbersign,
dollar,
percent,
ampersand,
parenleft,
parenright,
asterisk,
plus,
comma,
hyphen,
period,
slash,
zero,
one,
two,
three,
four,
five,
six,
seven,
eight,
nine,
colon,
semicolon,
less,
equal,
greater,
question,
at,
A,
B,
C,
D,
E,
F,
G,
H,
I,
J,
K,
L,
M,
N,
O,
P,
Q,
R,
S,
T,
U,
V,
W,
X,
Y,
Z,
bracketleft,
backslash,
bracketright,
asciicircum,
underscore,
grave,
a,
b,
c,
d,
e,
f,
g,
h,
i,
j,
k,
l,
m,
n,
o,
p,
q,
r,
s,
t,
u,
v,
w,
x,
y,
z,
braceleft,
bar,
braceright,
asciitilde,
exclamdown,
cent,
sterling,
currency,
yen,
brokenbar,
section,
dieresis,
copyright,
ordfeminine,
guillemetleft,
logicalnot,
registered,
macron,
degree,
plusminus,
twosuperior,
threesuperior,
acute,
mu,
paragraph,
periodcentered,
cedilla,
onesuperior,
ordmasculine,
guillemetright,
onequarter,
onehalf,
threequarters,
questiondown,
Agrave,
Aacute,
Acircumflex,
Atilde,
Adieresis,
Aring,
AE,
Ccedilla,
Egrave,
Eacute,
Ecircumflex,
Edieresis,
Igrave,
Iacute,
Icircumflex,
Idieresis,
Eth,
Ntilde,
Ograve,
Oacute,
Ocircumflex,
Otilde,
Odieresis,
multiply,
Oslash,
Ugrave,
Uacute,
Ucircumflex,
Udieresis,
Yacute,
Thorn,
germandbls,
agrave,
aacute,
acircumflex,
atilde,
adieresis,
aring,
ae,
ccedilla,
egrave,
eacute,
ecircumflex,
edieresis,
igrave,
iacute,
icircumflex,
idieresis,
eth,
ntilde,
ograve,
oacute,
ocircumflex,
otilde,
odieresis,
divide,
oslash,
ugrave,
uacute,
ucircumflex,
udieresis,
yacute,
thorn,
ydieresis,
dotlessi,
circumflex,
caron,
breve,
dotaccent,
ring,
ogonek,
tilde,
hungarumlaut,
quoteleft,
quoteright,
minus,
circumflexcomb,
uni0429,
uni0428,
uni0427,
uni0426,
uni0425,
uni0424,
uni0423,
uni0422,
uni0421,
uni0420,
uni041F,
uni043D,
uni043E,
uni043F,
uni043A,
uni043B,
uni043C,
guillemotright,
uni0438,
gravecomb,
uni0434,
uni0436,
uni0437,
uni0430,
uni0431,
uni0432,
uni0433,
uni045A,
uni0456,
uni042E,
uni042D,
uni042C,
uni042A,
uni042F,
uni00B9,
uni0414,
uni042B,
uni0409,

glyphs = (
{
glyphname = exclam;
layers = (
{
layerId = "91E832AB-F615-40EB-8273-D93FE80C1C5C";
paths = (
{
closed = 1;
nodes = (
"120 220 LINE",
"110 460 OFFCURVE",
"70 585 OFFCURVE",
"70 675 CURVE SMOOTH",
"70 715 OFFCURVE",
"90 750 OFFCURVE",
"140 750 CURVE SMOOTH",
"190 750 OFFCURVE",
"210 715 OFFCURVE",
"210 675 CURVE SMOOTH",
"210 585 OFFCURVE",
"170 460 OFFCURVE",
"160 220 CURVE"
);
},
{
closed = 1;
nodes = (
"180 120 OFFCURVE",
"210 90 OFFCURVE",
"210 50 CURVE SMOOTH",
"210 10 OFFCURVE",
"180 -20 OFFCURVE",
"140 -20 CURVE SMOOTH",
"100 -20 OFFCURVE",
"70 10 OFFCURVE",
"70 50 CURVE SMOOTH",
"70 90 OFFCURVE",
"100 120 OFFCURVE",
"140 120 CURVE SMOOTH"
);
}
);
width = 280;
}
);
unicode = 0021;
userData = {
com.fontlab.hintData = {
hhints = (
{
position = -20;
width = 139;
},
{
position = 730;
width = 20;
}
);
vhints = (
{
position = 96;
width = 139;
}
);
};
};
},
{
glyphname = quotesingle;
layers = (
{
layerId = "91E832AB-F615-40EB-8273-D93FE80C1C5C";
paths = (
{
closed = 1;
nodes = (
"90 559 LINE",
"83 608 LINE",
"80 650 LINE SMOOTH",
"80 680 OFFCURVE",
"99 700 OFFCURVE",
"129 700 CURVE SMOOTH",
"159 700 OFFCURVE",
"179 680 OFFCURVE",
"179 650 CURVE SMOOTH",
"175 608 LINE",
"168 559 LINE",
"145 414 LINE",
"114 414 LINE"
);
}
);
width = 259;
}
);
unicode = 0027;
userData = {
com.fontlab.hintData = {
hhints = (
{
position = 414;
width = 286;
}
);
vhints = (
{
position = 80;
width = 99;
},
{
position = 114;
width = 31;
}
);
};
};
},
{
glyphname = quotedbl;
layers = (
{
layerId = "91E832AB-F615-40EB-8273-D93FE80C1C5C";
paths = (
{
closed = 1;
nodes = (
"253 559 LINE",
"246 608 LINE",
"242 650 LINE SMOOTH",
"242 680 OFFCURVE",
"262 700 OFFCURVE",
"292 700 CURVE SMOOTH",
"322 700 OFFCURVE",
"342 680 OFFCURVE",
"342 650 CURVE SMOOTH",
"338 608 LINE",
"331 559 LINE",
"308 414 LINE",
"276 414 LINE"
);
},
{
closed = 1;
nodes = (
"76 559 LINE",
"69 608 LINE",
"66 650 LINE SMOOTH",
"66 680 OFFCURVE",
"85 700 OFFCURVE",
"115 700 CURVE SMOOTH",
"145 700 OFFCURVE",
"165 680 OFFCURVE",
"165 650 CURVE SMOOTH",
"161 608 LINE",
"154 559 LINE",
"131 414 LINE",
"100 414 LINE"
);
}
);
width = 408;
}
);
unicode = 0022;
userData = {
com.fontlab.hintData = {
hhints = (
{
position = 414;
width = 286;
}
);
vhints = (
{
position = 66;
width = 99;
},
{
position = 100;
width = 31;
},
{
position = 242;
width = 100;
}
);
};
};
},
{
glyphname = numbersign;
layers = (
{
layerId = "91E832AB-F615-40EB-8273-D93FE80C1C5C";
paths = (
{
closed = 1;
nodes = (
"248 258 LINE",
"404 258 LINE",
"438 408 LINE",
"283 408 LINE"
);
},
{
closed = 1;
nodes = (
"217 488 LINE",
"259 682 LINE",
"338 682 LINE",
"297 488 LINE",
"452 488 LINE",
"493 682 LINE",
"573 682 LINE",
"532 488 LINE",
"665 488 LINE",
"645 408 LINE",
"518 408 LINE",
"484 257 LINE",
"625 257 LINE",
"605 177 LINE",
"469 177 LINE",
"428 -16 LINE",
"348 -16 LINE",
"389 177 LINE",
"232 177 LINE",
"193 -16 LINE",
"112 -16 LINE",
"153 177 LINE",
"40 177 LINE",
"60 257 LINE",
"168 257 LINE",
"203 408 LINE",
"80 408 LINE",
"100 488 LINE"
);
}
);
width = 705;
}
);
unicode = 0023;
userData = {
com.fontlab.hintData = {
hhints = (
{
position = -16;
width = 21;
},
{
position = 177;
width = 80;
},
{
position = 408;
width = 80;
}
);
};
};
},
{
glyphname = dollar;
layers = (
{
layerId = "91E832AB-F615-40EB-8273-D93FE80C1C5C";
paths = (
{
closed = 1;
nodes = (
"505 494 LINE",
"461 494 LINE",
"435.559 610.44 OFFCURVE",
"381.287 660 OFFCURVE",
"288 660 CURVE SMOOTH",
"203.802 660 OFFCURVE",
"154 623.8 OFFCURVE",
"154 556 CURVE SMOOTH",
"154 487.087 OFFCURVE",
"243.261 439.085 OFFCURVE",
"340 408 CURVE SMOOTH",
"446.659 373.728 OFFCURVE",
"554 326.781 OFFCURVE",
"554 200 CURVE SMOOTH",
"554 78.394 OFFCURVE",
"472.371 -1.86 OFFCURVE",
"341 -13.528 CURVE",
"341 -128 LINE",
"271 -128 LINE",
"271 -14.372 LINE",
"167.309 -10.541 OFFCURVE",
"125.369 10.484 OFFCURVE",
"70 40 CURVE",
"70 230 LINE",
"117 230 LINE",
"133.838 113.143 OFFCURVE",
"195.974 40 OFFCURVE",
"297 40 CURVE SMOOTH",
"388.591 40 OFFCURVE",
"454 96.51 OFFCURVE",
"454 163 CURVE SMOOTH",
"454 231.382 OFFCURVE",
"384.68 267.738 OFFCURVE",
"294 296 CURVE SMOOTH",
"200.771 325.056 OFFCURVE",
"50 389.378 OFFCURVE",
"50 525 CURVE SMOOTH",
"50 636.351 OFFCURVE",
"139.591 709.881 OFFCURVE",
"271 714.743 CURVE",
"271 829 LINE",
"341 829 LINE",
"341 710.948 LINE",
"403.54 701.683 OFFCURVE",
"458.132 676.943 OFFCURVE",
"505 641 CURVE"
);
}
);
width = 606;
}
);
unicode = 0024;
userData = {
com.fontlab.hintData = {
hhints = (
{
position = -15;
width = 10;
},
{
position = 494;
width = 21;
},
{
position = 705;
width = 10;
}
);
vhints = (
{
position = 50;
width = 104;
},
{
position = 70;
width = 47;
},
{
position = 271;
width = 70;
},
{
position = 454;
width = 100;
},
{
position = 461;
width = 44;
}
);
};
};
},
{
glyphname = percent;
layers = (
{
layerId = "91E832AB-F615-40EB-8273-D93FE80C1C5C";
paths = (
{
closed = 1;
nodes = (
"747 265.972 OFFCURVE",
"727 312 OFFCURVE",
"682 312 CURVE SMOOTH",
"639 312 OFFCURVE",
"618 264.812 OFFCURVE",
"618 164 CURVE SMOOTH",
"618 65.186 OFFCURVE",
"639 19 OFFCURVE",
"683 19 CURVE SMOOTH",
"726 19 OFFCURVE",
"747 66.358 OFFCURVE",
"747 160 CURVE SMOOTH"
);
},
{
closed = 1;
nodes = (
"536 266 OFFCURVE",
"598 343 OFFCURVE",
"683 343 CURVE SMOOTH",
"767 343 OFFCURVE",
"829 268 OFFCURVE",
"829 165 CURVE SMOOTH",
"829 64 OFFCURVE",
"767 -12 OFFCURVE",
"683 -12 CURVE SMOOTH",
"598 -12 OFFCURVE",
"536 61 OFFCURVE",
"536 162 CURVE SMOOTH"
);
},
{
closed = 1;
nodes = (
"191 -31 LINE",
"653 694 LINE",
"724 694 LINE",
"263 -31 LINE"
);
},
{
closed = 1;
nodes = (
"76 617 OFFCURVE",
"138 694 OFFCURVE",
"223 694 CURVE SMOOTH",
"307 694 OFFCURVE",
"369 619 OFFCURVE",
"369 516 CURVE SMOOTH",
"369 415 OFFCURVE",
"307 339 OFFCURVE",
"223 339 CURVE SMOOTH",
"138 339 OFFCURVE",
"76 412 OFFCURVE",
"76 513 CURVE SMOOTH"
);
},
{
closed = 1;
nodes = (
"287 616.972 OFFCURVE",
"267 663 OFFCURVE",
"222 663 CURVE SMOOTH",
"179 663 OFFCURVE",
"158 615.812 OFFCURVE",
"158 515 CURVE SMOOTH",
"158 416.186 OFFCURVE",
"179 370 OFFCURVE",
"223 370 CURVE SMOOTH",
"266 370 OFFCURVE",
"287 417.358 OFFCURVE",
"287 511 CURVE SMOOTH"
);
}
);
width = 906;
}
);
unicode = 0025;
userData = {
com.fontlab.hintData = {
hhints = (
{
position = -12;
width = 31;
},
{
position = 312;
width = 31;
},
{
position = 339;
width = 31;
},
{
position = 663;
width = 31;
}
);
vhints = (
{
position = 76;
width = 82;
},
{
position = 287;
width = 82;
},
{
position = 536;
width = 82;
},
{
position = 747;
width = 82;
}
);
};
};
},
{
glyphname = ampersand;
lastChange = "2018-06-30 02:44:09 +0000";
layers = (
{
layerId = "91E832AB-F615-40EB-8273-D93FE80C1C5C";
paths = (
{
closed = 1;
nodes = (
"224.001 541 OFFCURVE",
"255.001 506.999 OFFCURVE",
"309.001 459.999 CURVE",
"369.001 494.999 OFFCURVE",
"396.001 525 OFFCURVE",
"396.001 558 CURVE SMOOTH",
"396.001 613.384 OFFCURVE",
"353.001 650 OFFCURVE",
"315.001 650 CURVE SMOOTH",
"270.001 650 OFFCURVE",
"224.001 630.499 OFFCURVE",
"224.001 571 CURVE SMOOTH"
);
},
{
closed = 1;
nodes = (
"135.001 140.999 OFFCURVE",
"222.001 63 OFFCURVE",
"312.001 63 CURVE SMOOTH",
"360.001 63 OFFCURVE",
"392.001 77 OFFCURVE",
"440.001 119 CURVE",
"385.001 215.999 OFFCURVE",
"302.001 326.999 OFFCURVE",
"250.001 372.999 CURVE",
"169.001 316.999 OFFCURVE",
"135.001 271.999 OFFCURVE",
"135.001 221.999 CURVE SMOOTH"
);
},
{
closed = 1;
nodes = (
"725 440 LINE",
"725 400 LINE",
"630 380 OFFCURVE",
"639 308.999 OFFCURVE",
"535 169.999 CURVE",
"554 146.999 OFFCURVE",
"577 118 OFFCURVE",
"590 105 CURVE SMOOTH",
"647.069 47.93 OFFCURVE",
"700 45 OFFCURVE",
"730 45 CURVE",
"730 0 LINE",
"710 -5 OFFCURVE",
"690 -10 OFFCURVE",
"645 -10 CURVE SMOOTH",
"567 -10 OFFCURVE",
"508 21 OFFCURVE",
"464 87 CURVE",
"385 12.818 OFFCURVE",
"326 -15 OFFCURVE",
"248 -15 CURVE SMOOTH",
"109 -15 OFFCURVE",
"40 82.557 OFFCURVE",
"40 173 CURVE SMOOTH",
"40 255 OFFCURVE",
"88 306 OFFCURVE",
"223 401 CURVE",
"171 458 OFFCURVE",
"150 498 OFFCURVE",
"150 537 CURVE SMOOTH",
"150 669.506 OFFCURVE",
"281 700 OFFCURVE",
"343 700 CURVE SMOOTH",
"421 700 OFFCURVE",
"471 659.303 OFFCURVE",
"471 570 CURVE SMOOTH",
"471 527 OFFCURVE",
"440 495 OFFCURVE",
"338 431 CURVE",
"391 385 OFFCURVE",
"451 296 OFFCURVE",
"510 207 CURVE",
"552 263 OFFCURVE",
"578 319 OFFCURVE",
"578 345 CURVE SMOOTH",
"578 372 OFFCURVE",
"553 394 OFFCURVE",
"515 401 CURVE",
"515 440 LINE"
);
}
);
width = 755;
},
{
layerId = "E0C67D53-4E2B-482D-A2FA-71A3EC4FAED6";
paths = (
{
closed = 1;
nodes = (
"893 315 OFFCURVE",
"937 386 OFFCURVE",
"937 445 CURVE SMOOTH",
"937 514 OFFCURVE",
"897 554 OFFCURVE",
"865 554 CURVE SMOOTH",
"838 554 OFFCURVE",
"817 536 OFFCURVE",
"817 512 CURVE SMOOTH",
"817 464 OFFCURVE",
"904 493 OFFCURVE",
"904 431 CURVE SMOOTH",
"904 393 OFFCURVE",
"879 376 OFFCURVE",
"835 376 CURVE SMOOTH",
"796 376 OFFCURVE",
"637 470 OFFCURVE",
"569 470 CURVE SMOOTH",
"461 470 OFFCURVE",
"400 396 OFFCURVE",
"400 313 CURVE SMOOTH",
"400 250 OFFCURVE",
"435 204 OFFCURVE",
"484 204 CURVE SMOOTH",
"517 204 OFFCURVE",
"531 221 OFFCURVE",
"531 245 CURVE SMOOTH",
"531 312 OFFCURVE",
"437 291 OFFCURVE",
"437 340 CURVE SMOOTH",
"437 393 OFFCURVE",
"481 424 OFFCURVE",
"545 424 CURVE SMOOTH",
"609 424 OFFCURVE",
"695 372 OFFCURVE",
"695 268 CURVE SMOOTH",
"695 159 OFFCURVE",
"584 49 OFFCURVE",
"386 50 CURVE SMOOTH",
"208 51 OFFCURVE",
"109 153 OFFCURVE",
"109 256 CURVE SMOOTH",
"109 359 OFFCURVE",
"198 434 OFFCURVE",
"346 434 CURVE",
"357 459 LINE",
"357 459 OFFCURVE",
"245 466 OFFCURVE",
"245 546 CURVE SMOOTH",
"245 636 OFFCURVE",
"334 685 OFFCURVE",
"398 685 CURVE SMOOTH",
"496 685 OFFCURVE",
"455 577 OFFCURVE",
"524 577 CURVE SMOOTH",
"561 577 OFFCURVE",
"574 598 OFFCURVE",
"574 624 CURVE SMOOTH",
"574 645 OFFCURVE",
"540 710 OFFCURVE",
"399 710 CURVE SMOOTH",
"309 710 OFFCURVE",
"162 665 OFFCURVE",
"162 525 CURVE SMOOTH",
"162 477 OFFCURVE",
"187 434 OFFCURVE",
"240 434 CURVE",
"240 447 LINE",
"164 447 OFFCURVE",
"20 376 OFFCURVE",
"20 223 CURVE SMOOTH",
"20 27 OFFCURVE",
"226 -10 OFFCURVE",
"370 -10 CURVE SMOOTH",
"514 -10 OFFCURVE",
"728 83 OFFCURVE",
"728 260 CURVE SMOOTH",
"728 328 OFFCURVE",
"700 367 OFFCURVE",
"700 367 CURVE",
"700 359 LINE",
"733 339 OFFCURVE",
"777 315 OFFCURVE",
"820 315 CURVE SMOOTH"
);
}
);
width = 1007.01449;
}
);
unicode = 0026;
userData = {
com.fontlab.hintData = {
hhints = (
{
position = -15;
width = 78;
},
{
position = -6;
width = 50;
},
{
position = 401;
width = 38;
},
{
position = 650;
width = 50;
}
);
vhints = (
{
position = 40;
width = 95;
},
{
position = 150;
width = 74;
},
{
position = 396;
width = 75;
}
);
};
};
},
{
glyphname = parenleft;
layers = (
{
layerId = "91E832AB-F615-40EB-8273-D93FE80C1C5C";
paths = (
{
closed = 1;
nodes = (
"349 -185 LINE",
"184.804 -90 OFFCURVE",
"85 64 OFFCURVE",
"85 255 CURVE SMOOTH",
"85 446 OFFCURVE",
"184.804 600 OFFCURVE",
"349 695 CURVE",
"370 657 LINE",
"272.725 574 OFFCURVE",
"188 437 OFFCURVE",
"188 255 CURVE SMOOTH",
"188 73 OFFCURVE",
"272.725 -64 OFFCURVE",
"370 -147 CURVE"
);
}
);
width = 385;
}
);
unicode = 0028;
userData = {
com.fontlab.hintData = {
vhints = (
{
position = 85;
width = 103;
}
);
};
};
},
{
glyphname = parenright;
layers = (
{
layerId = "91E832AB-F615-40EB-8273-D93FE80C1C5C";
paths = (
{
closed = 1;
nodes = (
"36 695 LINE",
"200.196 600 OFFCURVE",
"300 446 OFFCURVE",
"300 255 CURVE SMOOTH",
"300 64 OFFCURVE",
"200.196 -90 OFFCURVE",
"36 -185 CURVE",
"15 -147 LINE",
"111.755 -64 OFFCURVE",
"197 73 OFFCURVE",
"197 255 CURVE SMOOTH",
"197 437 OFFCURVE",
"111.755 574 OFFCURVE",
"15 657 CURVE"
);
}
);
width = 385;
}
);
unicode = 0029;
userData = {
com.fontlab.hintData = {
vhints = (
{
position = 197;
width = 103;
}
);
};
};
},
{
glyphname = asterisk;
layers = (
{
layerId = "91E832AB-F615-40EB-8273-D93FE80C1C5C";
paths = (
{
closed = 1;
nodes = (
"173 383 LINE",
"138 418 LINE",
"260 523 LINE",
"100 510 LINE",
"100 560 LINE",
"260 547 LINE",
"138 652 LINE",
"173 687 LINE",
"277 565 LINE",
"264 725 LINE",
"316 725 LINE",
"303 565 LINE",
"407 687 LINE",
"442 652 LINE",
"320 547 LINE",
"480 560 LINE",
"480 510 LINE",
"320 523 LINE",
"442 418 LINE",
"407 383 LINE",
"303 505 LINE",
"316 345 LINE",
"264 345 LINE",
"277 505 LINE"
);
}
);
width = 580;
}
);
unicode = 002A;
},
{
glyphname = plus;
layers = (
{
layerId = "91E832AB-F615-40EB-8273-D93FE80C1C5C";
paths = (
{
closed = 1;
nodes = (
"269 350 LINE",
"269 579 LINE",
"339 579 LINE",
"339 350 LINE",
"568 350 LINE",
"568 280 LINE",
"339 280 LINE",
"339 51 LINE",
"269 51 LINE",
"269 280 LINE",
"40 280 LINE",
"40 350 LINE"
);
}
);
width = 608;
}
);
unicode = 002B;
userData = {
com.fontlab.hintData = {
hhints = (
{
position = 280;
width = 70;
}
);
vhints = (
{
position = 269;
width = 70;
}
);
};
};
},
{
glyphname = comma;
layers = (
{
layerId = "91E832AB-F615-40EB-8273-D93FE80C1C5C";
paths = (
{
closed = 1;
nodes = (
"50 -120 LINE",
"90 -100 OFFCURVE",
"120 -60 OFFCURVE",
"120 -30 CURVE SMOOTH",
"120 -10 OFFCURVE",
"110 0 OFFCURVE",
"95 0 CURVE SMOOTH",
"55 0 OFFCURVE",
"30 35 OFFCURVE",
"30 70 CURVE SMOOTH",
"30 105 OFFCURVE",
"55 135 OFFCURVE",
"95 135 CURVE SMOOTH",
"160 135 OFFCURVE",
"180 80 OFFCURVE",
"180 50 CURVE SMOOTH",
"180 -20 OFFCURVE",
"170 -100 OFFCURVE",
"70 -150 CURVE"
);
}
);
width = 230;
}
);
unicode = 002C;
userData = {
com.fontlab.hintData = {
hhints = (
{
position = -160;
width = 37;
},
{
position = -20;
width = 153;
},
{
position = 13;
width = 120;
}
);
vhints = (
{
position = 65;
width = 140;
},
{
position = 174;
width = 59;
}
);
};
};
},
{
glyphname = hyphen;
layers = (
{
layerId = "91E832AB-F615-40EB-8273-D93FE80C1C5C";
paths = (
{
closed = 1;
nodes = (
"40 300 LINE",
"350 300 LINE",
"350 240 LINE",
"40 240 LINE"
);
}
);
width = 390;
}
);
unicode = 002D;
userData = {
com.fontlab.hintData = {
hhints = (
{
position = 280;
width = 70;
}
);
vhints = (
{
position = 40;
width = 310;
}
);
};
};
},
{
glyphname = period;
layers = (
{
layerId = "91E832AB-F615-40EB-8273-D93FE80C1C5C";
paths = (
{
closed = 1;
nodes = (
"116 -20 OFFCURVE",
"80 11.5 OFFCURVE",
"80 56.5 CURVE SMOOTH",
"80 101.5 OFFCURVE",
"116 133 OFFCURVE",
"156.5 133 CURVE SMOOTH",
"197 133 OFFCURVE",
"233 101.5 OFFCURVE",
"233 56.5 CURVE SMOOTH",
"233 11.5 OFFCURVE",
"197 -20 OFFCURVE",
"156.5 -20 CURVE SMOOTH"
);
}
);
width = 313;
}
);
unicode = 002E;
userData = {
com.fontlab.hintData = {
hhints = (
{
position = -20;
width = 153;
}
);
vhints = (
{
position = 80;
width = 153;
}
);
};
};
},
{
glyphname = slash;
lastChange = "2018-06-30 02:44:09 +0000";
layers = (
{
layerId = "91E832AB-F615-40EB-8273-D93FE80C1C5C";
paths = (
{
closed = 1;
nodes = (
"-342 -79 LINE",
"-396 -79 LINE",
"274 715 LINE",
"328 715 LINE"
);
}
);
width = 338;
},
{
layerId = "E0C67D53-4E2B-482D-A2FA-71A3EC4FAED6";
paths = (
{
closed = 1;
nodes = (
"32 -56 LINE",
"332 719 LINE",
"300 719 LINE",
"0 -56 LINE"
);
}
);
width = 232;
}
);
unicode = 002F;
userData = {
com.fontlab.hintData = {
hhints = (
{
position = -15;
width = 21;
},
{
position = 695;
width = 20;
}
);
vhints = (
{
position = 20;
width = 308;
}
);
};
};
},
{
glyphname = zero;
layers = (
{
layerId = "91E832AB-F615-40EB-8273-D93FE80C1C5C";
paths = (
{
closed = 1;
nodes = (
"169.442 -15 OFFCURVE",
"40 97.512 OFFCURVE",
"40 336 CURVE SMOOTH",
"40 539.609 OFFCURVE",
"144.345 700 OFFCURVE",
"314 700 CURVE SMOOTH",
"442.707 700 OFFCURVE",
"567 587.809 OFFCURVE",
"567 350 CURVE SMOOTH",
"567 124.645 OFFCURVE",
"457.4 -15 OFFCURVE",
"293 -15 CURVE SMOOTH"
);
},
{
closed = 1;
nodes = (
"434.105 25 OFFCURVE",
"457 195.247 OFFCURVE",
"457 328 CURVE SMOOTH",
"457 564.134 OFFCURVE",
"381.289 660 OFFCURVE",
"300 660 CURVE SMOOTH",
"179.211 660 OFFCURVE",
"150 483.244 OFFCURVE",
"150 358 CURVE SMOOTH",
"150 114.07 OFFCURVE",
"225.711 25 OFFCURVE",
"307 25 CURVE SMOOTH"
);
}
);
width = 607;
}
);
unicode = 0030;
userData = {
com.fontlab.hintData = {
hhints = (
{
position = -15;
width = 40;
},
{
position = 660;
width = 40;
}
);
vhints = (
{
position = 40;
width = 110;
},
{
position = 457;
width = 110;
}
);
};
};
},
{
glyphname = one;
layers = (
{
layerId = "91E832AB-F615-40EB-8273-D93FE80C1C5C";
paths = (
{
closed = 1;
nodes = (
"405 0 LINE",
"80 0 LINE",
"80 30 LINE",
"160 50 LINE SMOOTH",
"180 55 OFFCURVE",
"190 70 OFFCURVE",
"190 90 CURVE SMOOTH",
"190 100 LINE",
"190 531 LINE SMOOTH",
"190 585 OFFCURVE",
"169 613 OFFCURVE",
"111 613 CURVE SMOOTH",
"94 613 LINE",
"94 649 LINE",
"167.205 649 OFFCURVE",
"209.478 662 OFFCURVE",
"260 700 CURVE",
"295 700 LINE",
"295 100 LINE",
"295 90 LINE SMOOTH",
"295 70 OFFCURVE",
"305 55 OFFCURVE",
"325 50 CURVE SMOOTH",
"405 30 LINE"
);
}
);
width = 485;
}
);
unicode = 0031;
userData = {
com.fontlab.hintData = {
hhints = (
{
position = 0;
width = 30;
},
{
position = 613;
width = 36;
},
{
position = 680;
width = 20;
}
);
vhints = (
{
position = 190;
width = 105;
}
);
};
};
},
{
glyphname = two;
layers = (
{
layerId = "91E832AB-F615-40EB-8273-D93FE80C1C5C";
paths = (
{
closed = 1;
nodes = (
"466 0 LINE",
"40 0 LINE",
"40 36 LINE",
"235.118 256.276 OFFCURVE",
"391 362.617 OFFCURVE",
"391 495 CURVE SMOOTH",
"391 568 OFFCURVE",
"352.359 628 OFFCURVE",
"254 628 CURVE SMOOTH",
"184 628 OFFCURVE",
"122 573 OFFCURVE",
"81 476 CURVE",
"44 491 LINE",
"92 625 OFFCURVE",
"176 700 OFFCURVE",
"279 700 CURVE SMOOTH",
"426.497 700 OFFCURVE",
"501 617 OFFCURVE",
"501 514 CURVE SMOOTH",
"501 334.038 OFFCURVE",
"294.832 274.051 OFFCURVE",
"133 81 CURVE",
"363 81 LINE SMOOTH",
"427 81 OFFCURVE",
"452 99 OFFCURVE",
"480 165 CURVE",
"515 165 LINE"
);
}
);
width = 555;
}
);
unicode = 0032;
userData = {
com.fontlab.hintData = {
hhints = (
{
position = 0;
width = 81;
},
{
position = 628;
width = 72;
}
);
vhints = (
{
position = 391;
width = 110;
}
);
};
};
},
{
glyphname = three;
layers = (
{
layerId = "91E832AB-F615-40EB-8273-D93FE80C1C5C";
paths = (
{
closed = 1;
nodes = (
"166.999 362 LINE",
"298.72 432 OFFCURVE",
"362.999 467 OFFCURVE",
"362.999 542 CURVE SMOOTH",
"362.999 589.662 OFFCURVE",
"321.746 628 OFFCURVE",
"265.999 628 CURVE SMOOTH",
"191.979 628 OFFCURVE",
"140.387 594.399 OFFCURVE",
"86 515 CURVE",
"58 537 LINE",
"122 656 OFFCURVE",
"193.542 700 OFFCURVE",
"295 700 CURVE SMOOTH",
"388.053 700 OFFCURVE",
"473 646.059 OFFCURVE",
"473 569 CURVE SMOOTH",
"473 508 OFFCURVE",
"433.848 468 OFFCURVE",
"333 422 CURVE",
"335 420 LINE",
"447 420 OFFCURVE",
"521 353.573 OFFCURVE",
"521 251 CURVE SMOOTH",
"521 90.052 OFFCURVE",
"387.252 -15 OFFCURVE",
"229 -15 CURVE SMOOTH",
"158.868 -15 OFFCURVE",
"82.792 3 OFFCURVE",
"40 30 CURVE",
"60 59 LINE",
"111.902 36 OFFCURVE",
"147.585 28 OFFCURVE",
"193 28 CURVE SMOOTH",
"312.48 28 OFFCURVE",
"411 94.486 OFFCURVE",
"411 228 CURVE SMOOTH",
"411 308.992 OFFCURVE",
"356.652 367 OFFCURVE",
"286 367 CURVE SMOOTH",
"255 367 OFFCURVE",
"220 354 OFFCURVE",
"183 329 CURVE"
);
}
);
width = 561;
}
);
unicode = 0033;
userData = {
com.fontlab.hintData = {
hhints = (
{
position = -15;
width = 43;
},
{
position = 367;
width = 53;
},
{
position = 628;
width = 72;
}
);
vhints = (
{
position = 363;
width = 110;
},
{
position = 411;
width = 110;
}
);
};
};
},
{
glyphname = four;
layers = (
{
layerId = "91E832AB-F615-40EB-8273-D93FE80C1C5C";
paths = (
{
closed = 1;
nodes = (
"314 613 LINE",
"312 613 LINE",
"81 236 LINE",
"314 236 LINE"
);
},
{
closed = 1;
nodes = (
"424 115 LINE SMOOTH",
"424 57 OFFCURVE",
"449 36 OFFCURVE",
"512 36 CURVE",
"512 0 LINE",
"224 0 LINE",
"224 36 LINE",
"292 36 OFFCURVE",
"314 60 OFFCURVE",
"314 117 CURVE SMOOTH",
"314 187 LINE",
"40 187 LINE",
"40 245 LINE",
"328 700 LINE",
"424 700 LINE",
"424 236 LINE",
"464 236 OFFCURVE",
"478 251 OFFCURVE",
"493 300 CURVE",
"527 300 LINE",
"512 187 LINE",
"424 187 LINE"
);
}
);
width = 567;
}
);
unicode = 0034;
userData = {
com.fontlab.hintData = {
hhints = (
{
position = 0;
width = 36;
},
{
position = 187;
width = 49;
},
{
position = 680;
width = 20;
}
);
vhints = (
{
position = 314;
width = 110;
},
{
position = 493;
width = 34;
}
);
};
};
},
{
glyphname = five;
layers = (
{
layerId = "91E832AB-F615-40EB-8273-D93FE80C1C5C";
paths = (
{
closed = 1;
nodes = (
"367 700 LINE SMOOTH",
"407 700 OFFCURVE",
"417 702 OFFCURVE",
"425 712 CURVE",
"459 712 LINE",
"440 619 LINE",
"140 619 LINE",
"110 481 LINE",
"159.966 500 OFFCURVE",
"194.725 508 OFFCURVE",
"236 508 CURVE SMOOTH",
"377.688 508 OFFCURVE",
"470 399.703 OFFCURVE",
"470 260 CURVE SMOOTH",
"470 101.432 OFFCURVE",
"343.461 -15 OFFCURVE",
"173 -15 CURVE SMOOTH",
"128 -15 OFFCURVE",
"82 -7 OFFCURVE",
"40 9 CURVE",
"55 43 LINE",
"93 35 OFFCURVE",
"122 31 OFFCURVE",
"150 31 CURVE SMOOTH",
"266 31 OFFCURVE",
"360 126.681 OFFCURVE",
"360 246 CURVE SMOOTH",
"360 352.142 OFFCURVE",
"291 427 OFFCURVE",
"196 427 CURVE SMOOTH",
"149 427 OFFCURVE",
"112 414 OFFCURVE",
"73 383 CURVE",
"50 389 LINE",
"121 700 LINE"
);
}
);
width = 510;
}
);
unicode = 0035;
userData = {
com.fontlab.hintData = {
hhints = (
{
position = -15;
width = 46;
},
{
position = 427;
width = 81;
},
{
position = 619;
width = 81;
},
{
position = 619;
width = 93;
}
);
vhints = (
{
position = 360;
width = 110;
}
);
};
};
},
{
glyphname = six;
layers = (
{
layerId = "91E832AB-F615-40EB-8273-D93FE80C1C5C";
paths = (
{
closed = 1;
nodes = (
"150 169.787 OFFCURVE",
"207.022 31 OFFCURVE",
"308 31 CURVE SMOOTH",
"381.637 31 OFFCURVE",
"443 97.111 OFFCURVE",
"443 225 CURVE SMOOTH",
"443 342.983 OFFCURVE",
"385.782 422 OFFCURVE",
"303 422 CURVE SMOOTH",
"244.43 422 OFFCURVE",
"202.594 397 OFFCURVE",
"150 333 CURVE"
);
},
{
closed = 1;
nodes = (
"452 665 LINE",
"302.362 659.883 OFFCURVE",
"180.03 567.773 OFFCURVE",
"156 403 CURVE",
"158 401 LINE",
"215.112 454 OFFCURVE",
"271.06 472 OFFCURVE",
"334 472 CURVE SMOOTH",
"460.725 472 OFFCURVE",
"553 375.571 OFFCURVE",
"553 247 CURVE SMOOTH",
"553 103.115 OFFCURVE",
"442.418 -15 OFFCURVE",
"309 -15 CURVE SMOOTH",
"187.254 -15 OFFCURVE",
"40 89.66 OFFCURVE",
"40 309 CURVE SMOOTH",
"40 536.491 OFFCURVE",
"231.628 700 OFFCURVE",
"452 700 CURVE"
);
}
);
width = 593;
}
);
unicode = 0036;
userData = {
com.fontlab.hintData = {
hhints = (
{
position = -15;
width = 46;
},
{
position = 422;
width = 50;
},
{
position = 665;
width = 35;
}
);
vhints = (
{
position = 40;
width = 110;
},
{
position = 443;
width = 110;
}
);
};
};
},
{
glyphname = seven;
layers = (
{
layerId = "91E832AB-F615-40EB-8273-D93FE80C1C5C";
paths = (
{
closed = 1;
nodes = (
"189 0 LINE",
"189 149.601 OFFCURVE",
"272 342.563 OFFCURVE",
"414 619 CURVE",
"188 619 LINE SMOOTH",
"124 619 OFFCURVE",
"94 596 OFFCURVE",
"77 532 CURVE",
"40 532 LINE",
"81 712 LINE",
"105 712 LINE",
"114 705 OFFCURVE",
"125 702 OFFCURVE",
"137 701 CURVE SMOOTH",
"149 700 OFFCURVE",
"163 700 OFFCURVE",
"179 700 CURVE SMOOTH",
"487 700 LINE",
"487 649 LINE",
"394 491.34 OFFCURVE",
"300 192.216 OFFCURVE",
"299 0 CURVE"
);
}
);
width = 527;
}
);
unicode = 0037;
userData = {
com.fontlab.hintData = {
hhints = (
{
position = 0;
width = 21;
},
{
position = 619;
width = 81;
}
);
vhints = (
{
position = 40;
width = 37;
},
{
position = 189;
width = 110;
}
);
};
};
},
{
glyphname = eight;
layers = (
{
layerId = "91E832AB-F615-40EB-8273-D93FE80C1C5C";
paths = (
{
closed = 1;
nodes = (
"185 295.792 OFFCURVE",
"150 244.438 OFFCURVE",
"150 181 CURVE SMOOTH",
"150 88.917 OFFCURVE",
"210 25 OFFCURVE",
"297 25 CURVE SMOOTH",
"378 25 OFFCURVE",
"435 80.042 OFFCURVE",
"435 156 CURVE SMOOTH",
"435 238.485 OFFCURVE",
"368 275.704 OFFCURVE",
"249 326 CURVE"
);
},
{
closed = 1;
nodes = (
"388 426.793 OFFCURVE",
"417 468.725 OFFCURVE",
"417 525 CURVE SMOOTH",
"417 601.363 OFFCURVE",
"361 657 OFFCURVE",
"284 657 CURVE SMOOTH",
"218 657 OFFCURVE",
"167 609.174 OFFCURVE",
"167 548 CURVE SMOOTH",
"167 457.835 OFFCURVE",
"259 432.849 OFFCURVE",
"329 397 CURVE"
);
},
{
closed = 1;
nodes = (
"105.286 393.407 OFFCURVE",
"57 444.963 OFFCURVE",
"57 518 CURVE SMOOTH",
"57 618.047 OFFCURVE",
"162.529 700 OFFCURVE",
"291 700 CURVE SMOOTH",
"414.271 700 OFFCURVE",
"512 626.135 OFFCURVE",
"512 533 CURVE SMOOTH",
"512 465.761 OFFCURVE",
"467.203 418.042 OFFCURVE",
"367 379 CURVE",
"475.667 332.759 OFFCURVE",
"530 267.419 OFFCURVE",
"530 187 CURVE SMOOTH",
"530 69.941 OFFCURVE",
"430.959 -12 OFFCURVE",
"289 -12 CURVE SMOOTH",
"147.861 -12 OFFCURVE",
"40 68.202 OFFCURVE",
"40 173 CURVE SMOOTH",
"40 251.459 OFFCURVE",
"109.937 307.788 OFFCURVE",
"213 344 CURVE"
);
}
);
width = 570;
}
);
unicode = 0038;
userData = {
com.fontlab.hintData = {
hhints = (
{
position = -12;
width = 37;
},
{
position = 657;
width = 43;
}
);
vhints = (
{
position = 40;
width = 110;
},
{
position = 57;
width = 110;
},
{
position = 417;
width = 95;
},
{
position = 435;
width = 95;
}
);
};
};
},
{
glyphname = nine;
layers = (
{
layerId = "91E832AB-F615-40EB-8273-D93FE80C1C5C";
paths = (
{
closed = 1;
nodes = (
"433 537.581 OFFCURVE",
"369.604 657 OFFCURVE",
"282 657 CURVE SMOOTH",
"204.214 657 OFFCURVE",
"150 590.48 OFFCURVE",
"150 468 CURVE SMOOTH",
"150 350.506 OFFCURVE",
"205.174 270 OFFCURVE",
"285 270 CURVE SMOOTH",
"341.656 270 OFFCURVE",
"391.375 299 OFFCURVE",
"433 359 CURVE"
);
},
{
closed = 1;
nodes = (
"100 23 LINE",
"273.866 33.393 OFFCURVE",
"394.607 116.529 OFFCURVE",
"426 288 CURVE",
"424 290 LINE",
"365.066 240 OFFCURVE",
"315.2 220 OFFCURVE",
"254 220 CURVE SMOOTH",
"130.169 220 OFFCURVE",
"40 316.857 OFFCURVE",
"40 446 CURVE SMOOTH",
"40 584.451 OFFCURVE",
"148.315 700 OFFCURVE",
"279 700 CURVE SMOOTH",
"395.069 700 OFFCURVE",
"543 601.986 OFFCURVE",
"543 382 CURVE SMOOTH",
"543 181.433 OFFCURVE",
"365.8 -13.966 OFFCURVE",
"100 -15 CURVE"
);
}
);
width = 583;
}
);
unicode = 0039;
userData = {
com.fontlab.hintData = {
hhints = (
{
position = -15;
width = 38;
},
{
position = 220;
width = 50;
},
{
position = 657;
width = 43;
}
);
vhints = (
{
position = 40;
width = 110;
},
{
position = 433;
width = 110;
}
);
};
};
},
{
glyphname = colon;
lastChange = "2018-06-30 02:44:09 +0000";
layers = (
{
layerId = "91E832AB-F615-40EB-8273-D93FE80C1C5C";
paths = (
{
closed = 1;
nodes = (
"188 467 OFFCURVE",
"219 437 OFFCURVE",
"219 399 CURVE SMOOTH",
"219 360 OFFCURVE",
"188 328 OFFCURVE",
"149 328 CURVE SMOOTH",
"111 328 OFFCURVE",
"80 360 OFFCURVE",
"80 399 CURVE SMOOTH",
"80 437 OFFCURVE",
"111 467 OFFCURVE",
"149 467 CURVE SMOOTH"
);
},
{
closed = 1;
nodes = (
"188 119 OFFCURVE",
"219 89 OFFCURVE",
"219 51 CURVE SMOOTH",
"219 12 OFFCURVE",
"188 -20 OFFCURVE",
"149 -20 CURVE SMOOTH",
"111 -20 OFFCURVE",
"80 12 OFFCURVE",
"80 51 CURVE SMOOTH",
"80 89 OFFCURVE",
"111 119 OFFCURVE",
"149 119 CURVE SMOOTH"
);
}
);
width = 299;
},
{
layerId = "E0C67D53-4E2B-482D-A2FA-71A3EC4FAED6";
paths = (
{
closed = 1;
nodes = (
"210 466 OFFCURVE",
"242 498 OFFCURVE",
"242 537 CURVE SMOOTH",
"242 576 OFFCURVE",
"210 607 OFFCURVE",
"171 607 CURVE SMOOTH",
"132 607 OFFCURVE",
"100 576 OFFCURVE",
"100 537 CURVE SMOOTH",
"100 498 OFFCURVE",
"132 466 OFFCURVE",
"171 466 CURVE SMOOTH"
);
},
{
closed = 1;
nodes = (
"110 -8 OFFCURVE",
"142 24 OFFCURVE",
"142 63 CURVE SMOOTH",
"142 102 OFFCURVE",
"110 133 OFFCURVE",
"71 133 CURVE SMOOTH",
"32 133 OFFCURVE",
"0 102 OFFCURVE",
"0 63 CURVE SMOOTH",
"0 24 OFFCURVE",
"32 -8 OFFCURVE",
"71 -8 CURVE SMOOTH"
);
}
);
width = 182;
}
);
unicode = 003A;
userData = {
com.fontlab.hintData = {
hhints = (
{
position = -20;
width = 139;
},
{
position = 328;
width = 139;
}
);
vhints = (
{
position = 80;
width = 139;
}
);
};
};
},
{
glyphname = semicolon;
layers = (
{
layerId = "91E832AB-F615-40EB-8273-D93FE80C1C5C";
paths = (
{
closed = 1;
nodes = (
"187.58 467 OFFCURVE",
"219 436.737 OFFCURVE",
"219 398.5 CURVE SMOOTH",
"219 360.287 OFFCURVE",
"187.58 328 OFFCURVE",
"149 328 CURVE SMOOTH",
"110.568 328 OFFCURVE",
"80 360.287 OFFCURVE",
"80 398.5 CURVE SMOOTH",
"80 436.737 OFFCURVE",
"110.568 467 OFFCURVE",
"149 467 CURVE SMOOTH"
);
},
{
closed = 1;
nodes = (
"48 -123 LINE",
"136.373 -114.274 OFFCURVE",
"189 -89.843 OFFCURVE",
"189 -34 CURVE SMOOTH",
"189 -24.345 OFFCURVE",
"187.975 -16.25 OFFCURVE",
"185.711 -9.65 CURVE",
"174.92 -16.309 OFFCURVE",
"162.456 -20 OFFCURVE",
"149.5 -20 CURVE SMOOTH",
"106.353 -20 OFFCURVE",
"68 11.5 OFFCURVE",
"68 56.5 CURVE SMOOTH",
"68 83.629 OFFCURVE",
"81.939 105.852 OFFCURVE",
"102.465 119.224 CURVE SMOOTH",
"114.195 128.134 OFFCURVE",
"130.067 133 OFFCURVE",
"149 133 CURVE SMOOTH",
"149.088 133 OFFCURVE",
"149.176 133 OFFCURVE",
"149.264 133 CURVE SMOOTH",
"149.342 133 OFFCURVE",
"149.421 133 OFFCURVE",
"149.5 133 CURVE SMOOTH",
"150.096 133 OFFCURVE",
"150.691 132.992 OFFCURVE",
"151.285 132.977 CURVE SMOOTH",
"215.455 131.659 OFFCURVE",
"248 74.728 OFFCURVE",
"248 0 CURVE SMOOTH",
"248 -99.765 OFFCURVE",
"175 -158.117 OFFCURVE",
"48 -160 CURVE"
);
}
);
width = 328;
}
);
unicode = 003B;
userData = {
com.fontlab.hintData = {
hhints = (
{
position = -160;
width = 37;
},
{
position = -20;
width = 153;
},
{
position = 13;
width = 120;
},
{
position = 328;
width = 139;
}
);
vhints = (
{
position = 80;
width = 141;
},
{
position = 189;
width = 59;
}
);
};
};
},
{
glyphname = less;
layers = (
{
layerId = "91E832AB-F615-40EB-8273-D93FE80C1C5C";
paths = (
{
closed = 1;
nodes = (
"80 261 LINE",
"80 331 LINE",
"554 555 LINE",
"554 472 LINE",
"184 296 LINE",
"554 120 LINE",
"554 37 LINE"
);
}
);
width = 594;
}
);
unicode = 003C;
},
{
glyphname = equal;
layers = (
{
layerId = "91E832AB-F615-40EB-8273-D93FE80C1C5C";
paths = (
{
closed = 1;
nodes = (
"601 244 LINE",
"601 172 LINE",
"66 172 LINE",
"66 244 LINE"
);
},
{
closed = 1;
nodes = (
"601 480 LINE",
"601 408 LINE",
"66 408 LINE",
"66 480 LINE"
);
}
);
width = 667;
}
);
unicode = 003D;
userData = {
com.fontlab.hintData = {
hhints = (
{
position = 172;
width = 72;
},
{
position = 408;
width = 72;
}
);
};
};
},
{
glyphname = greater;
layers = (
{
layerId = "91E832AB-F615-40EB-8273-D93FE80C1C5C";
paths = (
{
closed = 1;
nodes = (
"514 330 LINE",
"514 261 LINE",
"40 37 LINE",
"40 120 LINE",
"410 295 LINE",
"40 471 LINE",
"40 555 LINE"
);
}
);
width = 594;
}
);
unicode = 003E;
},
{
glyphname = question;
layers = (
{
layerId = "91E832AB-F615-40EB-8273-D93FE80C1C5C";
paths = (
{
closed = 1;
nodes = (
"108 220 LINE",
"108 315 OFFCURVE",
"93 348 OFFCURVE",
"93 369 CURVE SMOOTH",
"93 377 OFFCURVE",
"94 382 OFFCURVE",
"99 387 CURVE SMOOTH",
"116.213 404 OFFCURVE",
"210.375 403 OFFCURVE",
"261 453 CURVE SMOOTH",
"279 471 OFFCURVE",
"291 495 OFFCURVE",
"291 518 CURVE SMOOTH",
"291 587.754 OFFCURVE",
"219 670 OFFCURVE",
"158 670 CURVE SMOOTH",
"122 670 OFFCURVE",
"107 648 OFFCURVE",
"77 648 CURVE SMOOTH",
"52 648 OFFCURVE",
"35 665 OFFCURVE",
"35 689 CURVE SMOOTH",
"35 726 OFFCURVE",
"70 750 OFFCURVE",
"123 750 CURVE SMOOTH",
"263 750 OFFCURVE",
"354 536.355 OFFCURVE",
"354 474 CURVE SMOOTH",
"354 437 OFFCURVE",
"343 404 OFFCURVE",
"316 377 CURVE SMOOTH",
"263.702 324 OFFCURVE",
"200.55 326 OFFCURVE",
"167 292 CURVE SMOOTH",
"153 278 OFFCURVE",
"149 252 OFFCURVE",
"148 220 CURVE"
);
},
{
closed = 1;
nodes = (
"167.58 119 OFFCURVE",
"199 88.737 OFFCURVE",
"199 50.5 CURVE SMOOTH",
"199 12.287 OFFCURVE",
"167.58 -20 OFFCURVE",
"129 -20 CURVE SMOOTH",
"90.568 -20 OFFCURVE",
"60 12.287 OFFCURVE",
"60 50.5 CURVE SMOOTH",
"60 88.737 OFFCURVE",
"90.568 119 OFFCURVE",
"129 119 CURVE SMOOTH"
);
}
);
width = 385;
}
);
unicode = 003F;
userData = {
com.fontlab.hintData = {
hhints = (
{
position = -20;
width = 139;
},
{
position = 670;
width = 80;
}
);
vhints = (
{
position = 60;
width = 139;
},
{
position = 108;
width = 40;
},
{
position = 291;
width = 63;
}
);
};
};
},
{
glyphname = at;
layers = (
{
layerId = "91E832AB-F615-40EB-8273-D93FE80C1C5C";
paths = (
{
closed = 1;
nodes = (
"394 428 OFFCURVE",
"302 232 OFFCURVE",
"302 164 CURVE SMOOTH",
"302 131 OFFCURVE",
"323 110 OFFCURVE",
"345 110 CURVE SMOOTH",
"409 110 OFFCURVE",
"517 243 OFFCURVE",
"517 372 CURVE SMOOTH",
"517 407 OFFCURVE",
"497 428 OFFCURVE",
"472 428 CURVE SMOOTH"
);
},
{
closed = 1;
nodes = (
"545 144 OFFCURVE",
"543 132 OFFCURVE",
"543 122 CURVE SMOOTH",
"543 97 OFFCURVE",
"553 88 OFFCURVE",
"568 88 CURVE SMOOTH",
"636 88 OFFCURVE",
"743 195 OFFCURVE",
"743 356 CURVE SMOOTH",
"743 491 OFFCURVE",
"638 618 OFFCURVE",
"467 618 CURVE SMOOTH",
"239 618 OFFCURVE",
"99 420 OFFCURVE",
"99 226 CURVE SMOOTH",
"99 19 OFFCURVE",
"237 -124 OFFCURVE",
"434 -124 CURVE SMOOTH",
"591 -124 OFFCURVE",
"714 -40 OFFCURVE",
"779 113 CURVE",
"780 116 LINE",
"782 118 LINE",
"785 118 LINE",
"819 118 LINE",
"825 118 LINE",
"823 113 LINE",
"821 107 LINE",
"777 -47 OFFCURVE",
"617 -170 OFFCURVE",
"423 -170 CURVE SMOOTH",
"203 -170 OFFCURVE",
"40 -19 OFFCURVE",
"40 229 CURVE SMOOTH",
"40 474 OFFCURVE",
"226 668 OFFCURVE",
"464 668 CURVE SMOOTH",
"656 668 OFFCURVE",
"788 541 OFFCURVE",
"788 357 CURVE SMOOTH",
"788 233 OFFCURVE",
"711 38 OFFCURVE",
"537 38 CURVE SMOOTH",
"488 38 OFFCURVE",
"460 63 OFFCURVE",
"460 109 CURVE SMOOTH",
"460 120 OFFCURVE",
"461 132 OFFCURVE",
"462 143 CURVE",
"417 88 OFFCURVE",
"362 38 OFFCURVE",
"304 38 CURVE SMOOTH",
"252 38 OFFCURVE",
"215 90 OFFCURVE",
"215 151 CURVE SMOOTH",
"215 294 OFFCURVE",
"360 467 OFFCURVE",
"466 467 CURVE SMOOTH",
"497 467 OFFCURVE",
"526 452 OFFCURVE",
"541 424 CURVE",
"548 450 LINE",
"549 453 LINE",
"552 454 LINE",
"631 465 LINE",
"638 466 LINE",
"636 459 LINE",
"549 158 LINE SMOOTH"
);
}
);
width = 865;
}
);
unicode = 0040;
userData = {
com.fontlab.hintData = {
hhints = (
{
position = -170;
width = 46;
},
{
position = 38;
width = 50;
},
{
position = 38;
width = 72;
},
{
position = 428;
width = 39;
},
{
position = 618;
width = 50;
}
);
vhints = (
{
position = 40;
width = 59;
},
{
position = 215;
width = 87;
},
{
position = 460;
width = 83;
},
{
position = 743;
width = 45;
}
);
};
};
},
{
glyphname = A;
lastChange = "2018-06-30 02:44:09 +0000";
layers = (
{
anchors = (
{
name = "Anchor-1";
position = "{380, 810}";
},
{
name = Anchor1;
position = "{380, 810}";
}
);
layerId = "91E832AB-F615-40EB-8273-D93FE80C1C5C";
paths = (
{
closed = 1;
nodes = (
"475 290 LINE",
"235 290 LINE",
"167 100 LINE SMOOTH",
"160 80 OFFCURVE",
"175 56 OFFCURVE",
"195 50 CURVE SMOOTH",
"260 30 LINE",
"260 0 LINE",
"0 0 LINE",
"0 30 LINE",
"70 50 LINE SMOOTH",
"85 54 OFFCURVE",
"94 70 OFFCURVE",
"102 90 CURVE SMOOTH",
"340 700 LINE",
"435 700 LINE",
"678 90 LINE SMOOTH",
"686 70 OFFCURVE",
"690 56 OFFCURVE",
"710 50 CURVE SMOOTH",
"780 30 LINE",
"780 0 LINE",
"455 0 LINE",
"455 30 LINE",
"520 50 LINE SMOOTH",
"540 56 OFFCURVE",
"552 80 OFFCURVE",
"545 100 CURVE SMOOTH"
);
},
{
closed = 1;
nodes = (
"250 335 LINE",
"460 335 LINE",
"355 620 LINE"
);
}
);
width = 780;
},
{
layerId = "E0C67D53-4E2B-482D-A2FA-71A3EC4FAED6";
paths = (
{
closed = 1;
nodes = (
"732 30 LINE",
"732 30 OFFCURVE",
"637 25 OFFCURVE",
"645 99 CURVE SMOOTH",
"656 199 OFFCURVE",
"706 706 OFFCURVE",
"706 706 CURVE",
"614 706 LINE",
"177 184 LINE",
"177 184 OFFCURVE",
"83 34 OFFCURVE",
"3 34 CURVE",
"0 -1 LINE",
"243 -1 LINE",
"254 35 LINE",
"254 35 OFFCURVE",
"190 46 OFFCURVE",
"188 88 CURVE SMOOTH",
"186 130 OFFCURVE",
"639 659 OFFCURVE",
"639 659 CURVE",
"604 659 LINE",
"552 133 LINE",
"552 133 OFFCURVE",
"559 49 OFFCURVE",
"445 35 CURVE",
"435 -4 LINE",
"726 0 LINE"
);
},
{
closed = 1;
nodes = (
"584 282 LINE",
"600 327 LINE",
"333 327 LINE",
"294 282 LINE"
);
}
);
width = 715;
}
);
unicode = 0041;
userData = {
com.fontlab.hintData = {
hhints = (
{
position = 0;
width = 30;
},
{
position = 290;
width = 45;
},
{
position = 680;
width = 20;
}
);
};
};
},
{
glyphname = B;
lastChange = "2018-06-30 02:45:01 +0000";
layers = (
{
layerId = "91E832AB-F615-40EB-8273-D93FE80C1C5C";
paths = (
{
closed = 1;
nodes = (
"472 384 OFFCURVE",
"510 444.726 OFFCURVE",
"510 520 CURVE SMOOTH",
"510 618 OFFCURVE",
"460 660 OFFCURVE",
"350 660 CURVE SMOOTH",
"300 660 LINE SMOOTH",
"280 660 OFFCURVE",
"260 650 OFFCURVE",
"260 620 CURVE SMOOTH",
"260 384 LINE",
"370 384 LINE SMOOTH"
);
},
{
closed = 1;
nodes = (
"260 80 LINE SMOOTH",
"260 50 OFFCURVE",
"280 40 OFFCURVE",
"300 40 CURVE SMOOTH",
"380 40 LINE SMOOTH",
"490 40 OFFCURVE",
"540 85 OFFCURVE",
"540 190 CURVE SMOOTH",
"540 270.721 OFFCURVE",
"483 344 OFFCURVE",
"370 344 CURVE SMOOTH",
"260 344 LINE"
);
},
{
closed = 1;
nodes = (
"506 356 LINE",
"599 343.505 OFFCURVE",
"660 268.622 OFFCURVE",
"660 190 CURVE SMOOTH",
"660 67.059 OFFCURVE",
"600 0 OFFCURVE",
"410 0 CURVE SMOOTH",
"40 0 LINE",
"40 30 LINE",
"120 50 LINE SMOOTH",
"140 55 OFFCURVE",
"150 70 OFFCURVE",
"150 90 CURVE SMOOTH",
"150 610 LINE SMOOTH",
"150 630 OFFCURVE",
"140 645 OFFCURVE",
"120 650 CURVE SMOOTH",
"40 670 LINE",
"40 700 LINE",
"380 700 LINE SMOOTH",
"570 700 OFFCURVE",
"630 636.471 OFFCURVE",
"630 520 CURVE SMOOTH",
"630 438.66 OFFCURVE",
"594.745 379.728 OFFCURVE",
"506 359.276 CURVE"
);
}
);
width = 700;
},
{
layerId = "E0C67D53-4E2B-482D-A2FA-71A3EC4FAED6";
width = 600;
}
);
unicode = 0042;
userData = {
com.fontlab.hintData = {
hhints = (
{
position = 0;
width = 30;
},
{
position = 0;
width = 40;
},
{
position = 344;
width = 40;
},
{
position = 660;
width = 40;
},
{
position = 670;
width = 30;
}
);
vhints = (
{
position = 150;
width = 110;
},
{
position = 510;
width = 120;
},
{
position = 540;
width = 120;
}
);
};
};
},
{
glyphname = C;
lastChange = "2018-06-30 02:45:01 +0000";
layers = (
{
anchors = (
{
name = "Anchor-0";
position = "{330, 0}";
},
{
name = Anchor0;
position = "{330, 0}";
}
);
layerId = "91E832AB-F615-40EB-8273-D93FE80C1C5C";
paths = (
{
closed = 1;
nodes = (
"383 -15 LINE SMOOTH",
"215.488 -15 OFFCURVE",
"40 99.756 OFFCURVE",
"40 343 CURVE SMOOTH",
"40 551.084 OFFCURVE",
"178.619 715 OFFCURVE",
"404 715 CURVE SMOOTH",
"490.464 715 OFFCURVE",
"563.638 687.292 OFFCURVE",
"624 641 CURVE",
"624 494 LINE",
"580 494 LINE",
"554.559 620.962 OFFCURVE",
"480.287 675 OFFCURVE",
"407 675 CURVE SMOOTH",
"390 675 LINE SMOOTH",
"204.79 675 OFFCURVE",
"160 493.562 OFFCURVE",
"160 365 CURVE SMOOTH",
"160 115.942 OFFCURVE",
"274.289 25 OFFCURVE",
"397 25 CURVE SMOOTH",
"407 25 LINE SMOOTH",
"480.287 25 OFFCURVE",
"554.559 79.038 OFFCURVE",
"580 206 CURVE",
"624 206 LINE",
"624 59 LINE",
"563.638 12.708 OFFCURVE",
"490.464 -15 OFFCURVE",
"404 -15 CURVE SMOOTH"
);
}
);
width = 664;
},
{
layerId = "E0C67D53-4E2B-482D-A2FA-71A3EC4FAED6";
width = 600;
}
);
unicode = 0043;
userData = {
com.fontlab.hintData = {
hhints = (
{
position = -15;
width = 40;
},
{
position = 494;
width = 21;
},
{
position = 675;
width = 40;
}
);
vhints = (
{
position = 40;
width = 120;
},
{
position = 580;
width = 44;
}
);
};
};
},
{
glyphname = D;
lastChange = "2018-06-30 02:44:09 +0000";
layers = (
{
layerId = "91E832AB-F615-40EB-8273-D93FE80C1C5C";
paths = (
{
closed = 1;
nodes = (
"710 123.671 OFFCURVE",
"572 0 OFFCURVE",
"410 0 CURVE SMOOTH",
"40 0 LINE",
"40 30 LINE",
"120 50 LINE SMOOTH",
"140 55 OFFCURVE",
"150 70 OFFCURVE",
"150 90 CURVE SMOOTH",
"150 610 LINE SMOOTH",
"150 630 OFFCURVE",
"140 645 OFFCURVE",
"120 650 CURVE SMOOTH",
"40 670 LINE",
"40 700 LINE",
"380 700 LINE SMOOTH",
"626.321 700 OFFCURVE",
"710 521.84 OFFCURVE",
"710 350 CURVE SMOOTH"
);
},
{
closed = 1;
nodes = (
"260 50 OFFCURVE",
"280 40 OFFCURVE",
"300 40 CURVE SMOOTH",
"380 40 LINE SMOOTH",
"530.938 40 OFFCURVE",
"590 214.375 OFFCURVE",
"590 350 CURVE SMOOTH",
"590 542.2 OFFCURVE",
"502.842 660 OFFCURVE",
"350 660 CURVE SMOOTH",
"300 660 LINE SMOOTH",
"280 660 OFFCURVE",
"260 650 OFFCURVE",
"260 620 CURVE SMOOTH",
"260 80 LINE SMOOTH"
);
}
);
width = 750;
},
{
layerId = "E0C67D53-4E2B-482D-A2FA-71A3EC4FAED6";
paths = (
{
closed = 1;
nodes = (
"155 665 LINE",
"221 665 OFFCURVE",
"245 629 OFFCURVE",
"229 571 CURVE SMOOTH",
"108 121 LINE",
"88 67 OFFCURVE",
"62 45 OFFCURVE",
"9 35 CURVE",
"0 0 LINE",
"389 -2 LINE",
"538 -6 OFFCURVE",
"771 126 OFFCURVE",
"771 391 CURVE SMOOTH",
"771 656 OFFCURVE",
"570 700 OFFCURVE",
"457 700 CURVE SMOOTH",
"166 700 LINE"
);
},
{
closed = 1;
nodes = (
"425 660 LINE SMOOTH",
"554 660 OFFCURVE",
"661 555 OFFCURVE",
"661 402 CURVE SMOOTH",
"661 224 OFFCURVE",
"547 25 OFFCURVE",
"324 38 CURVE SMOOTH",
"241 43 OFFCURVE",
"215 60 OFFCURVE",
"215 117 CURVE SMOOTH",
"215 161 OFFCURVE",
"359 673 OFFCURVE",
"359 673 CURVE",
"323 660 LINE"
);
}
);
width = 751;
}
);
unicode = 0044;
userData = {
com.fontlab.hintData = {
hhints = (
{
position = 0;
width = 30;
},
{
position = 0;
width = 40;
},
{
position = 660;
width = 40;
},
{
position = 670;
width = 30;
}
);
vhints = (
{
position = 150;
width = 110;
},
{
position = 590;
width = 120;
}
);
};
};
},
{
glyphname = E;
lastChange = "2018-06-30 02:44:09 +0000";
layers = (
{
anchors = (
{
name = "Anchor-1";
position = "{340, 810}";
},
{
name = Anchor1;
position = "{340, 810}";
}
);
layerId = "91E832AB-F615-40EB-8273-D93FE80C1C5C";
paths = (
{
closed = 1;
nodes = (
"460 230 LINE",
"440 290 LINE SMOOTH",
"427 330 OFFCURVE",
"390 340 OFFCURVE",
"340 340 CURVE SMOOTH",
"260 340 LINE",
"260 90 LINE SMOOTH",
"260 60 OFFCURVE",
"280 50 OFFCURVE",
"300 50 CURVE SMOOTH",
"450 50 LINE SMOOTH",
"510 50 OFFCURVE",
"540 70 OFFCURVE",
"570 130 CURVE SMOOTH",
"610 210 LINE",
"650 210 LINE",
"620 0 LINE",
"40 0 LINE",
"40 30 LINE",
"120 50 LINE SMOOTH",
"140 55 OFFCURVE",
"150 70 OFFCURVE",
"150 90 CURVE SMOOTH",
"150 610 LINE SMOOTH",
"150 630 OFFCURVE",
"140 645 OFFCURVE",
"120 650 CURVE SMOOTH",
"40 670 LINE",
"40 700 LINE",
"600 700 LINE",
"600 510 LINE",
"560 510 LINE",
"520 590 LINE SMOOTH",
"495 640 OFFCURVE",
"460 650 OFFCURVE",
"400 650 CURVE SMOOTH",
"300 650 LINE SMOOTH",
"280 650 OFFCURVE",
"260 640 OFFCURVE",
"260 610 CURVE SMOOTH",
"260 380 LINE",
"340 380 LINE SMOOTH",
"390 380 OFFCURVE",
"427 390 OFFCURVE",
"440 430 CURVE SMOOTH",
"460 490 LINE",
"490 490 LINE",
"490 230 LINE"
);
}
);
width = 690;
},
{
layerId = "E0C67D53-4E2B-482D-A2FA-71A3EC4FAED6";
paths = (
{
closed = 1;
nodes = (
"178 665 LINE",
"249 640 OFFCURVE",
"265 611 OFFCURVE",
"246 543 CURVE SMOOTH",
"221 454 OFFCURVE",
"179 225 OFFCURVE",
"140 121 CURVE",
"104 58 OFFCURVE",
"72 43 OFFCURVE",
"31 34 CURVE SMOOTH",
"-10 25 OFFCURVE",
"21 -2 OFFCURVE",
"21 -2 CURVE",
"597 0 LINE",
"670 165 LINE",
"630 186 LINE",
"630 186 OFFCURVE",
"552 34 OFFCURVE",
"378 44 CURVE SMOOTH",
"204 54 OFFCURVE",
"251 71 OFFCURVE",
"247 112 CURVE SMOOTH",
"243 153 OFFCURVE",
"389 679 OFFCURVE",
"389 679 CURVE",
"328 662 LINE",
"601 656 LINE",
"601 656 OFFCURVE",
"678 595 OFFCURVE",
"656 540 CURVE",
"692 536 LINE",
"726 647 LINE",
"735 671 OFFCURVE",
"724 695 OFFCURVE",
"699 697 CURVE",
"191 697 LINE"
);
},
{
closed = 1;
nodes = (
"250 344 LINE",
"250 344 OFFCURVE",
"386 344 OFFCURVE",
"471 344 CURVE SMOOTH",
"556 344 OFFCURVE",
"532 243 OFFCURVE",
"532 243 CURVE",
"567 237 LINE",
"632 469 LINE",
"596 475 LINE",
"589 401 OFFCURVE",
"490 389 OFFCURVE",
"490 389 CURVE",
"270 382 LINE"
);
}
);
width = 645.78838;
}
);
unicode = 0045;
userData = {
com.fontlab.hintData = {
hhints = (
{
position = 0;
width = 30;
},
{
position = 0;
width = 50;
},
{
position = 340;
width = 40;
},
{
position = 470;
width = 20;
},
{
position = 650;
width = 50;
},
{
position = 670;
width = 30;
}
);
vhints = (
{
position = 150;
width = 110;
},
{
position = 240;
width = 20;
},
{
position = 440;
width = 50;
}
);
};
};
},
{
glyphname = F;
lastChange = "2018-06-30 02:45:01 +0000";
layers = (
{
layerId = "91E832AB-F615-40EB-8273-D93FE80C1C5C";
paths = (
{
closed = 1;
nodes = (
"150 610 LINE SMOOTH",
"150 630 OFFCURVE",
"140 645 OFFCURVE",
"120 650 CURVE SMOOTH",
"40 670 LINE",
"40 700 LINE",
"600 700 LINE",
"600 510 LINE",
"560 510 LINE",
"520 590 LINE SMOOTH",
"495 640 OFFCURVE",
"460 650 OFFCURVE",
"400 650 CURVE SMOOTH",
"300 650 LINE SMOOTH",
"280 650 OFFCURVE",
"260 640 OFFCURVE",
"260 610 CURVE SMOOTH",
"260 380 LINE",
"340 380 LINE SMOOTH",
"390 380 OFFCURVE",
"427 390 OFFCURVE",
"440 430 CURVE SMOOTH",
"460 490 LINE",
"490 490 LINE",
"490 230 LINE",
"460 230 LINE",
"440 290 LINE SMOOTH",
"427 330 OFFCURVE",
"390 340 OFFCURVE",
"340 340 CURVE SMOOTH",
"260 340 LINE",
"260 90 LINE SMOOTH",
"260 70 OFFCURVE",
"270 55 OFFCURVE",
"290 50 CURVE SMOOTH",
"370 30 LINE",
"370 0 LINE",
"40 0 LINE",
"40 30 LINE",
"120 50 LINE SMOOTH",
"140 55 OFFCURVE",
"150 70 OFFCURVE",
"150 90 CURVE SMOOTH"
);
}
);
width = 630;
},
{
layerId = "E0C67D53-4E2B-482D-A2FA-71A3EC4FAED6";
width = 600;
}
);
unicode = 0046;
userData = {
com.fontlab.hintData = {
hhints = (
{
position = 0;
width = 30;
},
{
position = 340;
width = 40;
},
{
position = 470;
width = 20;
},
{
position = 650;
width = 50;
},
{
position = 670;
width = 30;
}
);
vhints = (
{
position = 150;
width = 110;
},
{
position = 240;
width = 20;
},
{
position = 440;
width = 50;
}
);
};
};
},
{
glyphname = G;
lastChange = "2018-06-30 02:44:09 +0000";
layers = (
{
layerId = "91E832AB-F615-40EB-8273-D93FE80C1C5C";
paths = (
{
closed = 1;
nodes = (
"383 -15 LINE SMOOTH",
"215.488 -15 OFFCURVE",
"40 99.756 OFFCURVE",
"40 343 CURVE SMOOTH",
"40 551.084 OFFCURVE",
"178.619 715 OFFCURVE",
"404 715 CURVE SMOOTH",
"490.464 715 OFFCURVE",
"563.638 687.292 OFFCURVE",
"624 641 CURVE",
"624 494 LINE",
"580 494 LINE",
"554.559 620.962 OFFCURVE",
"480.287 675 OFFCURVE",
"407 675 CURVE SMOOTH",
"390 675 LINE SMOOTH",
"204.79 675 OFFCURVE",
"160 493.562 OFFCURVE",
"160 365 CURVE SMOOTH",
"160 115.942 OFFCURVE",
"274.289 25 OFFCURVE",
"397 25 CURVE SMOOTH",
"407 25 LINE SMOOTH",
"449.072 25 OFFCURVE",
"491.469 42.809 OFFCURVE",
"524.766 82 CURVE",
"514 82 LINE",
"514 230 LINE SMOOTH",
"514 250 OFFCURVE",
"507.333 265 OFFCURVE",
"494 270 CURVE SMOOTH",
"434 290 LINE",
"434 320 LINE",
"694 320 LINE",
"694 290 LINE",
"644 270 LINE SMOOTH",
"630.667 265 OFFCURVE",
"624 250 OFFCURVE",
"624 230 CURVE SMOOTH",
"624 206 LINE",
"624 82 LINE",
"624 59 LINE",
"563.638 12.708 OFFCURVE",
"490.464 -15 OFFCURVE",
"404 -15 CURVE SMOOTH"
);
}
);
width = 664;
},
{
layerId = "E0C67D53-4E2B-482D-A2FA-71A3EC4FAED6";
paths = (
{
closed = 1;
nodes = (
"692 478 LINE",
"732 641 LINE",
"732 641 OFFCURVE",
"633 712 OFFCURVE",
"483 712 CURVE SMOOTH",
"325 712 OFFCURVE",
"2 572 OFFCURVE",
"0 288 CURVE SMOOTH",
"-2 37 OFFCURVE",
"219 -13 OFFCURVE",
"312 -13 CURVE SMOOTH",
"416 -13 OFFCURVE",
"571 43 OFFCURVE",
"571 43 CURVE",
"622 232 LINE",
"622 232 OFFCURVE",
"652 320 OFFCURVE",
"722 325 CURVE",
"737 358 LINE",
"444 359 LINE",
"430 322 LINE",
"430 322 OFFCURVE",
"520 311 OFFCURVE",
"515 235 CURVE SMOOTH",
"510 159 OFFCURVE",
"474 47 OFFCURVE",
"474 47 CURVE",
"505 81 LINE",
"505 81 OFFCURVE",
"412 25 OFFCURVE",
"326 27 CURVE SMOOTH",
"240 29 OFFCURVE",
"115 102 OFFCURVE",
"118 249 CURVE SMOOTH",
"121 420 OFFCURVE",
"213 673 OFFCURVE",
"452 671 CURVE SMOOTH",
"646 669 OFFCURVE",
"658 486 OFFCURVE",
"654 486 CURVE"
);
}
);
width = 667;
}
);
unicode = 0047;
userData = {
com.fontlab.hintData = {
hhints = (
{
position = -15;
width = 40;
},
{
position = 494;
width = 21;
},
{
position = 675;
width = 40;
}
);
vhints = (
{
position = 40;
width = 120;
},
{
position = 514;
width = 110;
},
{
position = 580;
width = 44;
}
);
};
};
},
{
glyphname = H;
lastChange = "2018-06-30 02:44:09 +0000";
layers = (
{
layerId = "91E832AB-F615-40EB-8273-D93FE80C1C5C";
paths = (
{
closed = 1;
nodes = (
"840 0 LINE",
"510 0 LINE",
"510 30 LINE",
"590 50 LINE SMOOTH",
"610 55 OFFCURVE",
"620 70 OFFCURVE",
"620 90 CURVE SMOOTH",
"620 335 LINE",
"260 335 LINE",
"260 90 LINE SMOOTH",
"260 70 OFFCURVE",
"270 55 OFFCURVE",
"290 50 CURVE SMOOTH",
"370 30 LINE",
"370 0 LINE",
"40 0 LINE",
"40 30 LINE",
"120 50 LINE SMOOTH",
"140 55 OFFCURVE",
"150 70 OFFCURVE",
"150 90 CURVE SMOOTH",
"150 610 LINE SMOOTH",
"150 630 OFFCURVE",
"140 645 OFFCURVE",
"120 650 CURVE SMOOTH",
"40 670 LINE",
"40 700 LINE",
"370 700 LINE",
"370 670 LINE",
"290 650 LINE SMOOTH",
"270 645 OFFCURVE",
"260 630 OFFCURVE",
"260 610 CURVE SMOOTH",
"260 380 LINE",
"620 380 LINE",
"620 610 LINE SMOOTH",
"620 630 OFFCURVE",
"610 645 OFFCURVE",
"590 650 CURVE SMOOTH",
"510 670 LINE",
"510 700 LINE",
"840 700 LINE",
"840 670 LINE",
"760 650 LINE SMOOTH",
"740 645 OFFCURVE",
"730 630 OFFCURVE",
"730 610 CURVE SMOOTH",
"730 90 LINE SMOOTH",
"730 70 OFFCURVE",
"740 55 OFFCURVE",
"760 50 CURVE SMOOTH",
"840 30 LINE"
);
}
);
width = 880;
},
{
layerId = "E0C67D53-4E2B-482D-A2FA-71A3EC4FAED6";
paths = (
{
closed = 1;
nodes = (
"178 664 LINE",
"225 660 OFFCURVE",
"263 636 OFFCURVE",
"247 573 CURVE SMOOTH",
"136 129 LINE SMOOTH",
"121 69 OFFCURVE",
"88 45 OFFCURVE",
"20 34 CURVE",
"13 0 LINE",
"293 3 LINE",
"306 34 LINE",
"263 37 OFFCURVE",
"231 36 OFFCURVE",
"229 91 CURVE",
"349 547 LINE SMOOTH",
"368 620 OFFCURVE",
"389 655 OFFCURVE",
"466 659 CURVE",
"477 699 LINE",
"189 699 LINE"
);
},
{
closed = 1;
nodes = (
"628 664 LINE",
"675 660 OFFCURVE",
"713 636 OFFCURVE",
"697 573 CURVE SMOOTH",
"586 129 LINE SMOOTH",
"571 69 OFFCURVE",
"538 45 OFFCURVE",
"470 34 CURVE",
"463 0 LINE",
"743 3 LINE",
"756 34 LINE",
"713 37 OFFCURVE",
"681 36 OFFCURVE",
"679 91 CURVE",
"799 547 LINE SMOOTH",
"818 620 OFFCURVE",
"839 655 OFFCURVE",
"916 659 CURVE",
"927 699 LINE",
"639 699 LINE"
);
},
{
closed = 1;
nodes = (
"694 336 LINE",
"694 384 LINE",
"237 384 LINE",
"237 336 LINE"
);
}
);
width = 765;
}
);
unicode = 0048;
userData = {
com.fontlab.hintData = {
hhints = (
{
position = 0;
width = 30;
},
{
position = 335;
width = 45;
},
{
position = 670;
width = 30;
}
);
vhints = (
{
position = 150;
width = 110;
},
{
position = 240;
width = 20;
},
{
position = 620;
width = 20;
},
{
position = 620;
width = 110;
}
);
};
};
},
{
glyphname = I;
lastChange = "2018-06-30 02:45:01 +0000";
layers = (
{
anchors = (
{
name = "Anchor-1";
position = "{205, 810}";
},
{
name = Anchor1;
position = "{205, 810}";
}
);
layerId = "91E832AB-F615-40EB-8273-D93FE80C1C5C";
paths = (
{
closed = 1;
nodes = (
"370 0 LINE",
"40 0 LINE",
"40 30 LINE",
"120 50 LINE SMOOTH",
"140 55 OFFCURVE",
"150 70 OFFCURVE",
"150 90 CURVE SMOOTH",
"150 610 LINE SMOOTH",
"150 630 OFFCURVE",
"140 645 OFFCURVE",
"120 650 CURVE SMOOTH",
"40 670 LINE",
"40 700 LINE",
"370 700 LINE",
"370 670 LINE",
"290 650 LINE SMOOTH",
"270 645 OFFCURVE",
"260 630 OFFCURVE",
"260 610 CURVE SMOOTH",
"260 90 LINE SMOOTH",
"260 70 OFFCURVE",
"270 55 OFFCURVE",
"290 50 CURVE SMOOTH",
"370 30 LINE"
);
}
);
width = 410;
},
{
layerId = "E0C67D53-4E2B-482D-A2FA-71A3EC4FAED6";
width = 600;
}
);
unicode = 0049;
userData = {
com.fontlab.hintData = {
hhints = (
{
position = 0;
width = 30;
},
{
position = 670;
width = 30;
}
);
vhints = (
{
position = 150;
width = 110;
}
);
};
};
},
{
glyphname = J;
lastChange = "2018-06-30 02:44:09 +0000";
layers = (
{
layerId = "91E832AB-F615-40EB-8273-D93FE80C1C5C";
paths = (
{
closed = 1;
nodes = (
"370 700 LINE",
"370 670 LINE",
"290 650 LINE SMOOTH",
"270.597 645.149 OFFCURVE",
"260 630 OFFCURVE",
"260 610 CURVE SMOOTH",
"260 27.463 LINE SMOOTH",
"260 -96.163 OFFCURVE",
"216.345 -162.889 OFFCURVE",
"99 -162.889 CURVE SMOOTH",
"38.458 -162.889 OFFCURVE",
"-25.946 -134.864 OFFCURVE",
"-25.946 -91 CURVE SMOOTH",
"-25.946 -59.945 OFFCURVE",
"-7.061 -45.683 OFFCURVE",
"14 -45.683 CURVE SMOOTH",
"32.036 -45.683 OFFCURVE",
"43.046 -58.535 OFFCURVE",
"56.596 -76.101 CURVE",
"56.596 -76.101 OFFCURVE",
"81 -116.876 OFFCURVE",
"103.623 -116.876 CURVE SMOOTH",
"124.516 -116.876 OFFCURVE",
"150 -101.282 OFFCURVE",
"150 -70.449 CURVE SMOOTH",
"150 610 LINE SMOOTH",
"150 630 OFFCURVE",
"139.894 645.026 OFFCURVE",
"120 650 CURVE SMOOTH",
"40 670 LINE",
"40 700 LINE"
);
}
);
width = 410;
},
{
layerId = "E0C67D53-4E2B-482D-A2FA-71A3EC4FAED6";
paths = (
{
closed = 1;
nodes = (
"608 378 LINE",
"621 425 LINE",
"269 425 LINE",
"256 378 LINE"
);
},
{
closed = 1;
nodes = (
"428 652 OFFCURVE",
"286 720 OFFCURVE",
"220 721 CURVE SMOOTH",
"154 722 OFFCURVE",
"40 649 OFFCURVE",
"40 545 CURVE SMOOTH",
"40 441 OFFCURVE",
"86 453 OFFCURVE",
"111 453 CURVE SMOOTH",
"136 453 OFFCURVE",
"168 469 OFFCURVE",
"168 506 CURVE SMOOTH",
"168 543 OFFCURVE",
"144 551 OFFCURVE",
"116 553 CURVE SMOOTH",
"108 553 OFFCURVE",
"80 547 OFFCURVE",
"65 524 CURVE",
"81 524 LINE",
"67 603 OFFCURVE",
"150 614 OFFCURVE",
"170 615 CURVE SMOOTH",
"223 618 OFFCURVE",
"349 583 OFFCURVE",
"407 569 CURVE SMOOTH",
"441 560 OFFCURVE",
"446 563 OFFCURVE",
"481 569 CURVE",
"485 625 LINE"
);
},
{
closed = 1;
nodes = (
"12 -80 OFFCURVE",
"-2 -94 OFFCURVE",
"2 -124 CURVE SMOOTH",
"6 -154 OFFCURVE",
"33 -193 OFFCURVE",
"99 -197 CURVE SMOOTH",
"233 -206 OFFCURVE",
"345 -148 OFFCURVE",
"393 -5 CURVE",
"539 481 LINE SMOOTH",
"553 529 OFFCURVE",
"564 558 OFFCURVE",
"596 603 CURVE",
"635 613 OFFCURVE",
"664 638 OFFCURVE",
"664 674 CURVE SMOOTH",
"664 712 OFFCURVE",
"634 730 OFFCURVE",
"607 730 CURVE SMOOTH",
"565 730 OFFCURVE",
"537 695 OFFCURVE",
"537 639 CURVE SMOOTH",
"537 586 LINE",
"479 540 OFFCURVE",
"425 429 OFFCURVE",
"410 378 CURVE SMOOTH",
"299 -7 LINE",
"299 -7 OFFCURVE",
"261 -146 OFFCURVE",
"167 -147 CURVE SMOOTH",
"73 -148 OFFCURVE",
"108 -83 OFFCURVE",
"52 -79 CURVE"
);
}
);
width = 548;
}
);
unicode = 004A;
userData = {
com.fontlab.hintData = {
hhints = (
{
position = -163;
width = 46;
},
{
position = 670;
width = 30;
}
);
vhints = (
{
position = 150;
width = 110;
}
);
};
};
},
{
glyphname = K;
lastChange = "2018-06-30 02:45:01 +0000";
layers = (
{
layerId = "91E832AB-F615-40EB-8273-D93FE80C1C5C";
paths = (
{
closed = 1;
nodes = (
"579.436 0 LINE SMOOTH",
"566.028 0 OFFCURVE",
"536.601 28.69 OFFCURVE",
"509.869 57.309 CURVE SMOOTH",
"260 346.831 LINE",
"260 93.248 LINE SMOOTH",
"260 73.248 OFFCURVE",
"270.597 54.851 OFFCURVE",
"290 50 CURVE SMOOTH",
"370 30 LINE",
"370 0 LINE",
"40 0 LINE",
"40 30 LINE",
"120 50 LINE SMOOTH",
"140.353 55.088 OFFCURVE",
"150 68.392 OFFCURVE",
"150 88.392 CURVE SMOOTH",
"150 610 LINE SMOOTH",
"150 630 OFFCURVE",
"140 645 OFFCURVE",
"120 650 CURVE SMOOTH",
"40 670 LINE",
"40 700 LINE",
"370 700 LINE",
"370 670 LINE",
"290 650 LINE SMOOTH",
"270.597 645.149 OFFCURVE",
"260 630 OFFCURVE",
"260 610 CURVE SMOOTH",
"260 372.737 LINE",
"491 603 LINE SMOOTH",
"503.471 614.236 OFFCURVE",
"510.051 622 OFFCURVE",
"510.051 632 CURVE SMOOTH",
"510.051 642 OFFCURVE",
"505.668 645.965 OFFCURVE",
"498 650 CURVE SMOOTH",
"460 670 LINE",
"460 700 LINE",
"703 700 LINE",
"703 670 LINE",
"658 670 OFFCURVE",
"610 649 OFFCURVE",
"578 616 CURVE SMOOTH",
"364 405 LINE",
"646 88 LINE",
"690.651 55.618 OFFCURVE",
"726.809 30 OFFCURVE",
"771 30 CURVE",
"771 0 LINE"
);
}
);
width = 811;
},
{
layerId = "E0C67D53-4E2B-482D-A2FA-71A3EC4FAED6";
width = 600;
}
);
unicode = 004B;
userData = {
com.fontlab.hintData = {
hhints = (
{
position = 0;
width = 30;
},
{
position = 670;
width = 30;
}
);
vhints = (
{
position = 150;
width = 110;
}
);
};
};
},
{
glyphname = L;
lastChange = "2018-06-30 02:45:01 +0000";
layers = (
{
layerId = "91E832AB-F615-40EB-8273-D93FE80C1C5C";
paths = (
{
closed = 1;
nodes = (
"620 0 LINE",
"40 0 LINE",
"40 30 LINE",
"120 50 LINE SMOOTH",
"140 55 OFFCURVE",
"150 70 OFFCURVE",
"150 90 CURVE SMOOTH",
"150 610 LINE SMOOTH",
"150 630 OFFCURVE",
"140 645 OFFCURVE",
"120 650 CURVE SMOOTH",
"40 670 LINE",
"40 700 LINE",
"370 700 LINE",
"370 670 LINE",
"290 650 LINE SMOOTH",
"270 645 OFFCURVE",
"260 630 OFFCURVE",
"260 610 CURVE SMOOTH",
"260 90 LINE SMOOTH",
"260 60 OFFCURVE",
"280 50 OFFCURVE",
"300 50 CURVE SMOOTH",
"450 50 LINE SMOOTH",
"510 50 OFFCURVE",
"540 70 OFFCURVE",
"570 130 CURVE SMOOTH",
"610 210 LINE",
"650 210 LINE"
);
}
);
width = 670;
},
{
layerId = "E0C67D53-4E2B-482D-A2FA-71A3EC4FAED6";
width = 600;
}
);
unicode = 004C;
userData = {
com.fontlab.hintData = {
hhints = (
{
position = 0;
width = 30;
},
{
position = 0;
width = 50;
},
{
position = 670;
width = 30;
}
);
vhints = (
{
position = 150;
width = 110;
}
);
};
};
},
{
glyphname = M;
lastChange = "2018-06-30 02:44:09 +0000";
layers = (
{
layerId = "91E832AB-F615-40EB-8273-D93FE80C1C5C";
paths = (
{
closed = 1;
nodes = (
"128 700 LINE",
"320 700 LINE",
"497 180 LINE",
"669 625 LINE",
"669 700 LINE",
"864 700 LINE",
"864 670 LINE",
"804 640 LINE",
"788 610 LINE",
"854 100 LINE",
"873 50 LINE",
"955 30 LINE",
"955 0 LINE",
"648 0 LINE",
"648 30 LINE",
"728 60 LINE",
"750 90 LINE",
"696.813 540 LINE",
"490 0 LINE",
"440 0 LINE",
"250 540 LINE",
"200 100 LINE SMOOTH",
"200.75 72.083 OFFCURVE",
"217.587 60.253 OFFCURVE",
"236 50 CURVE SMOOTH",
"278 30 LINE",
"278 0 LINE",
"40 0 LINE",
"40 30 LINE",
"91 50 LINE SMOOTH",
"119.139 62.528 OFFCURVE",
"137.671 84.663 OFFCURVE",
"147 116 CURVE",
"220 618 LINE",
"180 650 LINE",
"128 670 LINE"
);
}
);
width = 1000;
},
{
layerId = "E0C67D53-4E2B-482D-A2FA-71A3EC4FAED6";
paths = (
{
closed = 1;
nodes = (
"140 2 LINE",
"-100 -3 LINE",
"-95 34 LINE",
"-95 34 OFFCURVE",
"-22 47 OFFCURVE",
"6 112 CURVE SMOOTH",
"34 177 OFFCURVE",
"217 566 OFFCURVE",
"214 607 CURVE SMOOTH",
"211 648 OFFCURVE",
"139 661 OFFCURVE",
"139 661 CURVE",
"151 697 LINE",
"354 693 LINE",
"354 693 OFFCURVE",
"338 641 OFFCURVE",
"339 611 CURVE SMOOTH",
"340 581 OFFCURVE",
"407 164 OFFCURVE",
"403 135 CURVE SMOOTH",
"399 106 OFFCURVE",
"376 119 OFFCURVE",
"376 119 CURVE",
"720 619 LINE",
"740 696 LINE",
"957 698 LINE",
"949 658 LINE",
"949 658 OFFCURVE",
"847 630 OFFCURVE",
"840 575 CURVE SMOOTH",
"833 520 OFFCURVE",
"776 158 OFFCURVE",
"780 118 CURVE SMOOTH",
"784 78 OFFCURVE",
"815 42 OFFCURVE",
"858 34 CURVE SMOOTH",
"901 26 OFFCURVE",
"852 1 OFFCURVE",
"852 1 CURVE",
"580 1 LINE",
"580 35 LINE",
"580 35 OFFCURVE",
"682 52 OFFCURVE",
"686 103 CURVE SMOOTH",
"690 154 OFFCURVE",
"743 622 OFFCURVE",
"743 622 CURVE",
"767 611 LINE",
"375 -3 LINE",
"328 -2 LINE",
"236 610 LINE",
"267 616 LINE",
"267 616 OFFCURVE",
"75 165 OFFCURVE",
"71 106 CURVE SMOOTH",
"67 47 OFFCURVE",
"150 29 OFFCURVE",
"147 32 CURVE"
);
}
);
width = 857;
}
);
unicode = 004D;
userData = {
com.fontlab.hintData = {
hhints = (
{
position = 0;
width = 30;
},
{
position = 680;
width = 20;
}
);
};
};
},
{
glyphname = N;
lastChange = "2018-06-30 02:45:01 +0000";
layers = (
{
layerId = "91E832AB-F615-40EB-8273-D93FE80C1C5C";
paths = (
{
closed = 1;
nodes = (
"310 0 LINE",
"40 0 LINE",
"40 30 LINE",
"120 50 LINE SMOOTH",
"140 55 OFFCURVE",
"150 70 OFFCURVE",
"150 90 CURVE SMOOTH",
"150 588 LINE SMOOTH",
"150 608 OFFCURVE",
"137.252 618.942 OFFCURVE",
"120 628 CURVE SMOOTH",
"40 670 LINE",
"40 700 LINE",
"200 700 LINE",
"620 172.766 LINE",
"620 610 LINE SMOOTH",
"620 630 OFFCURVE",
"610 645 OFFCURVE",
"590 650 CURVE SMOOTH",
"510 670 LINE",
"510 700 LINE",
"780 700 LINE",
"780 670 LINE",
"700 650 LINE SMOOTH",
"680 645 OFFCURVE",
"670 630 OFFCURVE",
"670 610 CURVE SMOOTH",
"670 110 LINE SMOOTH",
"670 66 OFFCURVE",
"673 30 OFFCURVE",
"680 0 CURVE",
"620 0 LINE",
"200 527.234 LINE",
"200 90 LINE SMOOTH",
"200 70 OFFCURVE",
"210 55 OFFCURVE",
"230 50 CURVE SMOOTH",
"310 30 LINE"
);
}
);
width = 820;
},
{
layerId = "E0C67D53-4E2B-482D-A2FA-71A3EC4FAED6";
width = 600;
}
);
unicode = 004E;
userData = {
com.fontlab.hintData = {
hhints = (
{
position = 0;
width = 30;
},
{
position = 670;
width = 30;
}
);
vhints = (
{
position = 150;
width = 50;
},
{
position = 620;
width = 50;
}
);
};
};
},
{
glyphname = O;
lastChange = "2018-06-30 02:45:01 +0000";
layers = (
{
anchors = (
{
name = "Anchor-1";
position = "{390, 810}";
},
{
name = Anchor1;
position = "{390, 810}";
}
);
layerId = "91E832AB-F615-40EB-8273-D93FE80C1C5C";
paths = (
{
closed = 1;
nodes = (
"215.488 -15 OFFCURVE",
"40 99.756 OFFCURVE",
"40 343 CURVE SMOOTH",
"40 551.084 OFFCURVE",
"178.619 715 OFFCURVE",
"404 715 CURVE SMOOTH",
"578.491 715 OFFCURVE",
"747 600.244 OFFCURVE",
"747 357 CURVE SMOOTH",
"747 127.322 OFFCURVE",
"601.4 -15 OFFCURVE",
"383 -15 CURVE SMOOTH"
);
},
{
closed = 1;
nodes = (
"591.895 25 OFFCURVE",
"627 199.18 OFFCURVE",
"627 335 CURVE SMOOTH",
"627 576.824 OFFCURVE",
"512.711 675 OFFCURVE",
"390 675 CURVE SMOOTH",
"204.79 675 OFFCURVE",
"160 493.562 OFFCURVE",
"160 365 CURVE SMOOTH",
"160 115.942 OFFCURVE",
"274.289 25 OFFCURVE",
"397 25 CURVE SMOOTH"
);
}
);
width = 787;
},
{
layerId = "E0C67D53-4E2B-482D-A2FA-71A3EC4FAED6";
width = 600;
}
);
unicode = 004F;
userData = {
com.fontlab.hintData = {
hhints = (
{
position = -15;
width = 40;
},
{
position = 675;
width = 40;
}
);
vhints = (
{
position = 40;
width = 120;
},
{
position = 627;
width = 120;
}
);
};
};
},
{
glyphname = P;
lastChange = "2018-06-30 02:45:01 +0000";
layers = (
{
layerId = "91E832AB-F615-40EB-8273-D93FE80C1C5C";
paths = (
{
closed = 1;
nodes = (
"360 290 OFFCURVE",
"335 295 OFFCURVE",
"320 300 CURVE",
"320 340 LINE",
"460 320 OFFCURVE",
"510 411 OFFCURVE",
"510 510 CURVE SMOOTH",
"510 601 OFFCURVE",
"460 660 OFFCURVE",
"350 660 CURVE SMOOTH",
"300 660 LINE SMOOTH",
"280 660 OFFCURVE",
"260 650 OFFCURVE",
"260 620 CURVE SMOOTH",
"260 90 LINE SMOOTH",
"260 70 OFFCURVE",
"270 55 OFFCURVE",
"290 50 CURVE SMOOTH",
"370 30 LINE",
"370 0 LINE",
"40 0 LINE",
"40 30 LINE",
"120 50 LINE SMOOTH",
"140 55 OFFCURVE",
"150 70 OFFCURVE",
"150 90 CURVE SMOOTH",
"150 610 LINE SMOOTH",
"150 630 OFFCURVE",
"140 645 OFFCURVE",
"120 650 CURVE SMOOTH",
"40 670 LINE",
"40 700 LINE",
"380 700 LINE SMOOTH",
"570 700 OFFCURVE",
"630 620 OFFCURVE",
"630 510 CURVE SMOOTH",
"630 380 OFFCURVE",
"530 290 OFFCURVE",
"380 290 CURVE SMOOTH"
);
}
);
width = 660;
},
{
layerId = "E0C67D53-4E2B-482D-A2FA-71A3EC4FAED6";
width = 600;
}
);
unicode = 0050;
userData = {
com.fontlab.hintData = {
hhints = (
{
position = 0;
width = 30;
},
{
position = 300;
width = 40;
},
{
position = 660;
width = 40;
},
{
position = 670;
width = 30;
}
);
vhints = (
{
position = 150;
width = 110;
},
{
position = 510;
width = 120;
}
);
};
};
},
{
glyphname = Q;
lastChange = "2018-06-30 02:45:01 +0000";
layers = (
{
layerId = "91E832AB-F615-40EB-8273-D93FE80C1C5C";
paths = (
{
closed = 1;
nodes = (
"1020 -170 LINE",
"990 -210 OFFCURVE",
"930 -255 OFFCURVE",
"860 -255 CURVE SMOOTH",
"630 -255 OFFCURVE",
"521 -15 OFFCURVE",
"383 -15 CURVE",
"480 0 LINE",
"550 0 OFFCURVE",
"760 -165 OFFCURVE",
"900 -165 CURVE SMOOTH",
"930 -165 OFFCURVE",
"965 -165 OFFCURVE",
"1000 -145 CURVE"
);
},
{
closed = 1;
nodes = (
"215 -15 OFFCURVE",
"40 100 OFFCURVE",
"40 343 CURVE SMOOTH",
"40 551 OFFCURVE",
"179 715 OFFCURVE",
"404 715 CURVE SMOOTH",
"578 715 OFFCURVE",
"747 600 OFFCURVE",
"747 357 CURVE SMOOTH",
"747 127 OFFCURVE",
"600 -15 OFFCURVE",
"383 -15 CURVE SMOOTH"
);
},
{
closed = 1;
nodes = (
"592 25 OFFCURVE",
"627 199 OFFCURVE",
"627 335 CURVE SMOOTH",
"627 577 OFFCURVE",
"513 675 OFFCURVE",
"390 675 CURVE SMOOTH",
"205 675 OFFCURVE",
"160 494 OFFCURVE",
"160 365 CURVE SMOOTH",
"160 116 OFFCURVE",
"274 25 OFFCURVE",
"397 25 CURVE SMOOTH"
);
}
);
width = 785;
},
{
layerId = "E0C67D53-4E2B-482D-A2FA-71A3EC4FAED6";
width = 600;
}
);
unicode = 0051;
userData = {
com.fontlab.hintData = {
hhints = (
{
position = -195;
width = 55;
},
{
position = 0;
width = 25;
},
{
position = 675;
width = 40;
}
);
vhints = (
{
position = 40;
width = 123;
},
{
position = 622;
width = 123;
}
);
};
};
},
{
glyphname = R;
lastChange = "2018-06-30 02:45:01 +0000";
layers = (
{
layerId = "91E832AB-F615-40EB-8273-D93FE80C1C5C";
paths = (
{
closed = 1;
nodes = (
"260 90 LINE SMOOTH",
"260 70 OFFCURVE",
"270 55 OFFCURVE",
"290 50 CURVE SMOOTH",
"370 30 LINE",
"370 0 LINE",
"40 0 LINE",
"40 30 LINE",
"120 50 LINE SMOOTH",
"140 55 OFFCURVE",
"150 70 OFFCURVE",
"150 90 CURVE SMOOTH",
"150 610 LINE SMOOTH",
"150 630 OFFCURVE",
"140 645 OFFCURVE",
"120 650 CURVE SMOOTH",
"40 670 LINE",
"40 700 LINE",
"380 700 LINE SMOOTH",
"570 700 OFFCURVE",
"630 620 OFFCURVE",
"630 510 CURVE SMOOTH",
"630 404.205 OFFCURVE",
"563.772 324.901 OFFCURVE",
"458.263 299.037 CURVE",
"646 88 LINE",
"690.651 55.618 OFFCURVE",
"726.809 30 OFFCURVE",
"771 30 CURVE",
"771 0 LINE",
"599 0 LINE SMOOTH",
"586 0 OFFCURVE",
"556 28 OFFCURVE",
"530 57 CURVE SMOOTH",
"324 290 LINE",
"260 290 LINE"
);
},
{
closed = 1;
nodes = (
"357 337 LINE SMOOTH",
"469 337 OFFCURVE",
"510 420.271 OFFCURVE",
"510 510 CURVE SMOOTH",
"510 601 OFFCURVE",
"460 660 OFFCURVE",
"350 660 CURVE SMOOTH",
"300 660 LINE SMOOTH",
"280 660 OFFCURVE",
"260 650 OFFCURVE",
"260 620 CURVE SMOOTH",
"260 337 LINE",
"320 337 LINE"
);
}
);
width = 811;
},
{
layerId = "E0C67D53-4E2B-482D-A2FA-71A3EC4FAED6";
width = 600;
}
);
unicode = 0052;
userData = {
com.fontlab.hintData = {
hhints = (
{
position = 0;
width = 30;
},
{
position = 290;
width = 47;
},
{
position = 300;
width = 37;
},
{
position = 660;
width = 40;
},
{
position = 670;
width = 30;
}
);
vhints = (
{
position = 150;
width = 110;
},
{
position = 510;
width = 120;
}
);
};
};
},
{
glyphname = S;
lastChange = "2018-06-30 02:44:09 +0000";
layers = (
{
layerId = "91E832AB-F615-40EB-8273-D93FE80C1C5C";
paths = (
{
closed = 1;
nodes = (
"505 494 LINE",
"461 494 LINE",
"435.559 610.44 OFFCURVE",
"381.287 660 OFFCURVE",
"288 660 CURVE SMOOTH",
"203.802 660 OFFCURVE",
"154 623.8 OFFCURVE",
"154 556 CURVE SMOOTH",
"154 487.087 OFFCURVE",
"243.261 439.085 OFFCURVE",
"340 408 CURVE SMOOTH",
"446.659 373.728 OFFCURVE",
"554 326.781 OFFCURVE",
"554 200 CURVE SMOOTH",
"554 68.22 OFFCURVE",
"458.141 -15 OFFCURVE",
"307 -15 CURVE SMOOTH",
"176.246 -15 OFFCURVE",
"131.372 7.284 OFFCURVE",
"70 40 CURVE",
"70 230 LINE",
"117 230 LINE",
"133.838 113.143 OFFCURVE",
"195.974 40 OFFCURVE",
"297 40 CURVE SMOOTH",
"388.591 40 OFFCURVE",
"454 96.51 OFFCURVE",
"454 163 CURVE SMOOTH",
"454 231.382 OFFCURVE",
"384.68 267.738 OFFCURVE",
"294 296 CURVE SMOOTH",
"200.771 325.056 OFFCURVE",
"50 389.378 OFFCURVE",
"50 525 CURVE SMOOTH",
"50 640.262 OFFCURVE",
"145.995 715 OFFCURVE",
"285 715 CURVE SMOOTH",
"371.464 715 OFFCURVE",
"444.638 687.292 OFFCURVE",
"505 641 CURVE"
);
}
);
width = 606;
},
{
layerId = "E0C67D53-4E2B-482D-A2FA-71A3EC4FAED6";
paths = (
{
closed = 1;
nodes = (
"655 686 OFFCURVE",
"560 761 OFFCURVE",
"408 760 CURVE SMOOTH",
"257 759 OFFCURVE",
"159 651 OFFCURVE",
"159 574 CURVE SMOOTH",
"159 489 OFFCURVE",
"273 394 OFFCURVE",
"313 362 CURVE SMOOTH",
"353 330 OFFCURVE",
"460 250 OFFCURVE",
"460 157 CURVE SMOOTH",
"460 95 OFFCURVE",
"405 17 OFFCURVE",
"291 21 CURVE SMOOTH",
"177 25 OFFCURVE",
"57 94 OFFCURVE",
"71 241 CURVE",
"43 243 LINE",
"0 76 LINE",
"0 76 OFFCURVE",
"173 -16 OFFCURVE",
"304 -17 CURVE SMOOTH",
"435 -18 OFFCURVE",
"548 87 OFFCURVE",
"550 190 CURVE SMOOTH",
"553 315 OFFCURVE",
"461 373 OFFCURVE",
"402 428 CURVE SMOOTH",
"366 462 OFFCURVE",
"252 523 OFFCURVE",
"254 619 CURVE SMOOTH",
"255 684 OFFCURVE",
"315 728 OFFCURVE",
"405 728 CURVE SMOOTH",
"589 728 OFFCURVE",
"588 538 OFFCURVE",
"588 538 CURVE",
"614 528 LINE",
"655 686 LINE"
);
}
);
width = 603.64386;
}
);
unicode = 0053;
userData = {
com.fontlab.hintData = {
hhints = (
{
position = -15;
width = 55;
},
{
position = 494;
width = 21;
},
{
position = 660;
width = 55;
}
);
vhints = (
{
position = 50;
width = 104;
},
{
position = 70;
width = 47;
},
{
position = 454;
width = 100;
},
{
position = 461;
width = 44;
}
);
};
};
},
{
glyphname = T;
lastChange = "2018-06-30 02:45:01 +0000";
layers = (
{
layerId = "91E832AB-F615-40EB-8273-D93FE80C1C5C";
paths = (
{
closed = 1;
nodes = (
"180 0 LINE",
"180 30 LINE",
"260 50 LINE SMOOTH",
"280 55 OFFCURVE",
"290 70 OFFCURVE",
"290 90 CURVE SMOOTH",
"290 610 LINE SMOOTH",
"290 634.026 OFFCURVE",
"274.77 650 OFFCURVE",
"250 650 CURVE SMOOTH",
"240 650 LINE SMOOTH",
"180 650 OFFCURVE",
"145 640 OFFCURVE",
"120 590 CURVE SMOOTH",
"80 510 LINE",
"40 510 LINE",
"40 700 LINE",
"650 700 LINE",
"650 510 LINE",
"610 510 LINE",
"570 590 LINE SMOOTH",
"545 640 OFFCURVE",
"510 650 OFFCURVE",
"450 650 CURVE SMOOTH",
"440 650 LINE SMOOTH",
"420 650 OFFCURVE",
"400 640 OFFCURVE",
"400 610 CURVE SMOOTH",
"400 90 LINE SMOOTH",
"400 70 OFFCURVE",
"410 55 OFFCURVE",
"430 50 CURVE SMOOTH",
"510 30 LINE",
"510 0 LINE"
);
}
);
width = 690;
},
{
layerId = "E0C67D53-4E2B-482D-A2FA-71A3EC4FAED6";
width = 600;
}
);
unicode = 0054;
userData = {
com.fontlab.hintData = {
hhints = (
{
position = 0;
width = 30;
},
{
position = 650;
width = 50;
}
);
vhints = (
{
position = 290;
width = 110;
}
);
};
};
},
{
glyphname = U;
lastChange = "2018-06-30 02:45:01 +0000";
layers = (
{
anchors = (
{
name = "Anchor-1";
position = "{440, 810}";
},
{
name = Anchor1;
position = "{440, 810}";
}
);
layerId = "91E832AB-F615-40EB-8273-D93FE80C1C5C";
paths = (
{
closed = 1;
nodes = (
"370 670 LINE",
"290 650 LINE SMOOTH",
"270.597 645.149 OFFCURVE",
"260 630 OFFCURVE",
"260 610 CURVE SMOOTH",
"260 234 LINE SMOOTH",
"260 113.334 OFFCURVE",
"311 40 OFFCURVE",
"448 40 CURVE SMOOTH",
"532 40 OFFCURVE",
"631.506 77.139 OFFCURVE",
"635 267 CURVE SMOOTH",
"635 610 LINE SMOOTH",
"635 630 OFFCURVE",
"609.251 644.577 OFFCURVE",
"590 650 CURVE SMOOTH",
"519 670 LINE",
"519 700 LINE",
"798 700 LINE",
"798 670 LINE",
"730 650 LINE SMOOTH",
"710.812 644.356 OFFCURVE",
"692 630 OFFCURVE",
"692 610 CURVE SMOOTH",
"692 257 LINE SMOOTH",
"692 59.753 OFFCURVE",
"570 -15 OFFCURVE",
"412 -15 CURVE SMOOTH",
"256 -15 OFFCURVE",
"150 72.177 OFFCURVE",
"150 237.404 CURVE SMOOTH",
"150 610 LINE SMOOTH",
"150 630 OFFCURVE",
"139.403 645.149 OFFCURVE",
"120 650 CURVE SMOOTH",
"40 670 LINE",
"40 700 LINE",
"370 700 LINE"
);
}
);
width = 838;
},
{
layerId = "E0C67D53-4E2B-482D-A2FA-71A3EC4FAED6";
width = 600;
}
);
unicode = 0055;
userData = {
com.fontlab.hintData = {
hhints = (
{
position = -15;
width = 55;
},
{
position = 670;
width = 30;
}
);
vhints = (
{
position = 150;
width = 110;
},
{
position = 635;
width = 57;
}
);
};
};
},
{
glyphname = V;
lastChange = "2018-06-30 02:45:01 +0000";
layers = (
{
layerId = "91E832AB-F615-40EB-8273-D93FE80C1C5C";
paths = (
{
closed = 1;
nodes = (
"320 670 LINE",
"280 650 LINE SMOOTH",
"257.507 638.754 OFFCURVE",
"242 620 OFFCURVE",
"242 610 CURVE SMOOTH",
"430 154 LINE",
"608 610 LINE",
"607 627 OFFCURVE",
"598 644 OFFCURVE",
"580 650 CURVE SMOOTH",
"510 670 LINE",
"510 700 LINE",
"745 700 LINE",
"745 670 LINE",
"700 650 LINE SMOOTH",
"679 641 OFFCURVE",
"670 615 OFFCURVE",
"661 593 CURVE SMOOTH",
"416 -15 LINE",
"373 -15 LINE",
"115 610 LINE SMOOTH",
"106 628 OFFCURVE",
"97 640 OFFCURVE",
"80 650 CURVE SMOOTH",
"40 670 LINE",
"40 700 LINE",
"320 700 LINE"
);
}
);
width = 785;
},
{
layerId = "E0C67D53-4E2B-482D-A2FA-71A3EC4FAED6";
width = 600;
}
);
unicode = 0056;
userData = {
com.fontlab.hintData = {
hhints = (
{
position = -15;
width = 21;
},
{
position = 670;
width = 30;
}
);
};
};
},
{
glyphname = W;
lastChange = "2018-06-30 02:45:01 +0000";
layers = (
{
layerId = "91E832AB-F615-40EB-8273-D93FE80C1C5C";
paths = (
{
closed = 1;
nodes = (
"289.001 700.002 LINE",
"289.001 670.002 LINE",
"262.001 650.002 LINE SMOOTH",
"248.854 640.264 OFFCURVE",
"241.001 627.896 OFFCURVE",
"241.001 617.002 CURVE SMOOTH",
"241.001 615.002 OFFCURVE",
"241.313 612.231 OFFCURVE",
"242.001 610.002 CURVE SMOOTH",
"438.001 112.002 LINE",
"542.165 323.731 LINE",
"413 610 LINE SMOOTH",
"404.899 627.955 OFFCURVE",
"393.096 644.64 OFFCURVE",
"376 655 CURVE SMOOTH",
"346 670 LINE",
"346 700 LINE",
"588 700.002 LINE",
"588 670.002 LINE",
"555 650.002 LINE SMOOTH",
"540.366 641.038 OFFCURVE",
"536.829 621.411 OFFCURVE",
"541 610.002 CURVE SMOOTH",
"605.518 452.505 LINE",
"683 610.002 LINE",
"682.274 627.861 OFFCURVE",
"664 646.002 OFFCURVE",
"649 654.002 CURVE SMOOTH",
"615 670.002 LINE",
"615 700.002 LINE",
"803 700.002 LINE",
"803 670.002 LINE",
"768 650.002 LINE SMOOTH",
"757.084 641.937 OFFCURVE",
"741 614.002 OFFCURVE",
"730 593.002 CURVE SMOOTH",
"629.646 393.604 LINE",
"745 112.002 LINE",
"924 610.002 LINE",
"923.258 626.406 OFFCURVE",
"913.891 643.232 OFFCURVE",
"896 650.002 CURVE SMOOTH",
"845 670.002 LINE",
"845 700.002 LINE",
"1045 700.002 LINE",
"1045 670.002 LINE",
"1018 653.002 LINE",
"1004.03 639.439 OFFCURVE",
"993.714 616.096 OFFCURVE",
"984 593 CURVE SMOOTH",
"739 -14.999 LINE",
"695 -14.999 LINE",
"566.895 268.922 LINE",
"424.001 -14.998 LINE",
"380.001 -14.998 LINE",
"115 610.002 LINE SMOOTH",
"105 628.002 OFFCURVE",
"96 642.002 OFFCURVE",
"80 650.002 CURVE SMOOTH",
"40 670.002 LINE",
"40 700.002 LINE"
);
}
);
width = 1085;
},
{
layerId = "E0C67D53-4E2B-482D-A2FA-71A3EC4FAED6";
width = 600;
}
);
unicode = 0057;
userData = {
com.fontlab.hintData = {
hhints = (
{
position = -15;
width = 21;
},
{
position = 680;
width = 20;
}
);
};
};
},
{
glyphname = X;
lastChange = "2018-06-30 02:45:01 +0000";
layers = (
{
layerId = "91E832AB-F615-40EB-8273-D93FE80C1C5C";
paths = (
{
closed = 1;
nodes = (
"624 660 OFFCURVE",
"589 609 OFFCURVE",
"554 560 CURVE SMOOTH",
"427 380 LINE",
"597 127 LINE SMOOTH",
"631 77 OFFCURVE",
"668 45 OFFCURVE",
"740 30 CURVE",
"740 0 LINE",
"419 0 LINE",
"419 30 LINE",
"474 40 OFFCURVE",
"489 50 OFFCURVE",
"489 70 CURVE SMOOTH",
"489 90 OFFCURVE",
"461 134 OFFCURVE",
"444 160 CURVE SMOOTH",
"342 315 LINE",
"224 140 LINE SMOOTH",
"204 110 OFFCURVE",
"194 100 OFFCURVE",
"194 70 CURVE SMOOTH",
"194 50 OFFCURVE",
"219 40 OFFCURVE",
"274 30 CURVE",
"274 0 LINE",
"10 0 LINE",
"10 30 LINE",
"84 40 OFFCURVE",
"112 70 OFFCURVE",
"144 115 CURVE SMOOTH",
"314 355 LINE",
"184 540 LINE SMOOTH",
"121 630 OFFCURVE",
"104 650 OFFCURVE",
"14 670 CURVE",
"14 700 LINE",
"354 700 LINE",
"354 670 LINE",
"284 660 OFFCURVE",
"274 650 OFFCURVE",
"274 620 CURVE SMOOTH",
"274 600 OFFCURVE",
"305 560 OFFCURVE",
"324 530 CURVE SMOOTH",
"394 420 LINE",
"464 525 LINE SMOOTH",
"494 570 OFFCURVE",
"514 600 OFFCURVE",
"514 620 CURVE SMOOTH",
"514 640 OFFCURVE",
"504 660 OFFCURVE",
"439 670 CURVE",
"439 700 LINE",
"699 700 LINE",
"699 670 LINE"
);
}
);
width = 735;
},
{
layerId = "E0C67D53-4E2B-482D-A2FA-71A3EC4FAED6";
width = 600;
}
);
unicode = 0058;
userData = {
com.fontlab.hintData = {
hhints = (
{
position = 0;
width = 30;
},
{
position = 660;
width = 37;
},
{
position = 670;
width = 30;
}
);
};
};
},
{
glyphname = Y;
lastChange = "2018-06-30 02:45:01 +0000";
layers = (
{
anchors = (
{
name = "Anchor-1";
position = "{355, 810}";
},
{
name = Anchor1;
position = "{410, 810}";
}
);
layerId = "91E832AB-F615-40EB-8273-D93FE80C1C5C";
paths = (
{
closed = 1;
nodes = (
"285 670 LINE",
"225 650 OFFCURVE",
"215 640 OFFCURVE",
"215 620 CURVE SMOOTH",
"215 610 OFFCURVE",
"227 589 OFFCURVE",
"255 540 CURVE SMOOTH",
"375 330 LINE SMOOTH",
"503 540 LINE SMOOTH",
"533 589 OFFCURVE",
"540 610 OFFCURVE",
"540 620 CURVE SMOOTH",
"540 630 OFFCURVE",
"535 650 OFFCURVE",
"465 670 CURVE",
"465 700 LINE",
"695 700 LINE",
"695 670 LINE",
"620 650 OFFCURVE",
"605 616 OFFCURVE",
"591 593 CURVE SMOOTH",
"395 270 LINE SMOOTH",
"395 100 LINE SMOOTH",
"395 65 OFFCURVE",
"406 55 OFFCURVE",
"505 30 CURVE",
"505 0 LINE",
"175 0 LINE",
"175 30 LINE",
"275 55 OFFCURVE",
"285 65 OFFCURVE",
"285 100 CURVE SMOOTH",
"285 270 LINE SMOOTH",
"120 550 LINE SMOOTH",
"79 620 OFFCURVE",
"55 650 OFFCURVE",
"-15 670 CURVE",
"-15 700 LINE",
"285 700 LINE"
);
}
);
width = 680;
},
{
layerId = "E0C67D53-4E2B-482D-A2FA-71A3EC4FAED6";
width = 600;
}
);
unicode = 0059;
userData = {
com.fontlab.hintData = {
hhints = (
{
position = 0;
width = 30;
},
{
position = 245;
width = 77;
},
{
position = 680;
width = 20;
}
);
vhints = (
{
position = 341;
width = 110;
}
);
};
};
},
{
glyphname = Z;
lastChange = "2018-06-30 02:45:01 +0000";
layers = (
{
layerId = "91E832AB-F615-40EB-8273-D93FE80C1C5C";
paths = (
{
closed = 1;
nodes = (
"40 43 LINE",
"460 640 LINE",
"239 640 LINE SMOOTH",
"141 640 OFFCURVE",
"119 580 OFFCURVE",
"99 500 CURVE",
"60 500 LINE",
"60 700 LINE",
"620 700 LINE",
"620 660 LINE",
"185 57 LINE",
"420 57 LINE SMOOTH",
"550 57 OFFCURVE",
"560 110 OFFCURVE",
"620 220 CURVE",
"660 220 LINE",
"619 0 LINE",
"40 0 LINE"
);
}
);
width = 634;
},
{
layerId = "E0C67D53-4E2B-482D-A2FA-71A3EC4FAED6";
width = 600;
}
);
unicode = 005A;
userData = {
com.fontlab.hintData = {
hhints = (
{
position = 0;
width = 57;
},
{
position = 641;
width = 59;
}
);
vhints = (
{
position = 65;
width = 49;
},
{
position = 545;
width = 49;
}
);
};
};
},
{
glyphname = bracketleft;
layers = (
{
layerId = "91E832AB-F615-40EB-8273-D93FE80C1C5C";
paths = (
{
closed = 1;
nodes = (
"224 7 LINE SMOOTH",
"224 -53 OFFCURVE",
"243 -71 OFFCURVE",
"302 -71 CURVE SMOOTH",
"359 -71 LINE",
"359 -110 LINE",
"190 -110 LINE SMOOTH",
"160 -110 OFFCURVE",
"140 -90 OFFCURVE",
"140 -60 CURVE SMOOTH",
"140 750 LINE SMOOTH",
"140 780 OFFCURVE",
"160 800 OFFCURVE",
"190 800 CURVE SMOOTH",
"359 800 LINE",
"359 761 LINE",
"302 761 LINE SMOOTH",
"243 761 OFFCURVE",
"224 743 OFFCURVE",
"224 683 CURVE SMOOTH"
);
}
);
width = 375;
}
);
unicode = 005B;
userData = {
com.fontlab.hintData = {
hhints = (
{
position = -110;
width = 39;
},
{
position = 761;
width = 39;
}
);
vhints = (
{
position = 140;
width = 84;
}
);
};
};
},
{
glyphname = backslash;
layers = (
{
layerId = "91E832AB-F615-40EB-8273-D93FE80C1C5C";
paths = (
{
closed = 1;
nodes = (
"94 699 LINE",
"328 -12 LINE",
"273 -12 LINE",
"40 699 LINE"
);
}
);
width = 368;
}
);
unicode = 005C;
userData = {
com.fontlab.hintData = {
hhints = (
{
position = -12;
width = 21;
},
{
position = 679;
width = 20;
}
);
vhints = (
{
position = 273;
width = 55;
}
);
};
};
},
{
glyphname = bracketright;
layers = (
{
layerId = "91E832AB-F615-40EB-8273-D93FE80C1C5C";
paths = (
{
closed = 1;
nodes = (
"175 743 OFFCURVE",
"156 761 OFFCURVE",
"97 761 CURVE SMOOTH",
"40 761 LINE",
"40 800 LINE",
"209 800 LINE SMOOTH",
"239 800 OFFCURVE",
"259 780 OFFCURVE",
"259 750 CURVE SMOOTH",
"259 -60 LINE SMOOTH",
"259 -90 OFFCURVE",
"239 -110 OFFCURVE",
"209 -110 CURVE SMOOTH",
"40 -110 LINE",
"40 -71 LINE",
"97 -71 LINE SMOOTH",
"156 -71 OFFCURVE",
"175 -53 OFFCURVE",
"175 7 CURVE SMOOTH",
"175 683 LINE SMOOTH"
);
}
);
width = 375;
}
);
unicode = 005D;
userData = {
com.fontlab.hintData = {
hhints = (
{
position = -110;
width = 39;
},
{
position = 761;
width = 39;
}
);
vhints = (
{
position = 175;
width = 84;
}
);
};
};
},
{
glyphname = asciicircum;
layers = (
{
layerId = "91E832AB-F615-40EB-8273-D93FE80C1C5C";
paths = (
{
closed = 1;
nodes = (
"449 380 LINE",
"387 380 LINE",
"235 628 LINE",
"82 380 LINE",
"20 380 LINE",
"217 700 LINE",
"254 700 LINE"
);
}
);
width = 469;
}
);
unicode = 005E;
userData = {
com.fontlab.hintData = {
hhints = (
{
position = 380;
width = 320;
}
);
};
};
},
{
glyphname = underscore;
layers = (
{
layerId = "91E832AB-F615-40EB-8273-D93FE80C1C5C";
paths = (
{
closed = 1;
nodes = (
"-6 -130 LINE",
"-6 -60 LINE",
"506 -60 LINE",
"506 -130 LINE"
);
}
);
width = 500;
}
);
unicode = 005F;
userData = {
com.fontlab.hintData = {
hhints = (
{
position = -130;
width = 70;
}
);
};
};
},
{
glyphname = grave;
layers = (
{
layerId = "91E832AB-F615-40EB-8273-D93FE80C1C5C";
paths = (
{
closed = 1;
nodes = (
"180 750 LINE",
"230 580 LINE",
"200 580 LINE",
"60 750 LINE"
);
}
);
width = 290;
}
);
unicode = 0060;
userData = {
com.fontlab.hintData = {
hhints = (
{
position = 580;
width = 170;
}
);
vhints = (
{
position = 60;
width = 170;
}
);
};
};
},
{
glyphname = a;
lastChange = "2018-06-30 02:44:09 +0000";
layers = (
{
anchors = (
{
name = "Anchor-1";
position = "{230, 580}";
},
{
name = Anchor1;
position = "{230, 580}";
}
);
layerId = "91E832AB-F615-40EB-8273-D93FE80C1C5C";
paths = (
{
closed = 1;
nodes = (
"310 15 OFFCURVE",
"310 75 CURVE SMOOTH",
"310 365 LINE SMOOTH",
"310 422 OFFCURVE",
"278 461 OFFCURVE",
"235 461 CURVE SMOOTH",
"196 461 OFFCURVE",
"158 442 OFFCURVE",
"158 413 CURVE SMOOTH",
"158 389 OFFCURVE",
"173 382 OFFCURVE",
"173 363 CURVE SMOOTH",
"173 341 OFFCURVE",
"134 318 OFFCURVE",
"114 318 CURVE SMOOTH",
"84 318 OFFCURVE",
"77 352 OFFCURVE",
"77 379 CURVE SMOOTH",
"77 434 OFFCURVE",
"143 500 OFFCURVE",
"260 500 CURVE SMOOTH",
"360 500 OFFCURVE",
"410 448 OFFCURVE",
"410 355 CURVE SMOOTH",
"410 80 LINE SMOOTH",
"410 55 OFFCURVE",
"420 50 OFFCURVE",
"430 50 CURVE SMOOTH",
"440 50 OFFCURVE",
"447 52 OFFCURVE",
"455 60 CURVE",
"472 43 LINE",
"457 3 OFFCURVE",
"422 -15 OFFCURVE",
"396 -15 CURVE SMOOTH",
"336 -15 OFFCURVE"
);
},
{
closed = 1;
nodes = (
"201 218 OFFCURVE",
"155 176 OFFCURVE",
"155 130 CURVE SMOOTH",
"155 85 OFFCURVE",
"170 60 OFFCURVE",
"230 60 CURVE SMOOTH",
"266 60 OFFCURVE",
"323 97 OFFCURVE",
"350 139 CURVE",
"350 97 LINE",
"321 30 OFFCURVE",
"238 -20 OFFCURVE",
"180 -20 CURVE SMOOTH",
"100 -20 OFFCURVE",
"55 35 OFFCURVE",
"55 100 CURVE SMOOTH",
"55 214 OFFCURVE",
"204 264 OFFCURVE",
"350 298 CURVE",
"350 256 LINE"
);
}
);
width = 510;
},
{
layerId = "E0C67D53-4E2B-482D-A2FA-71A3EC4FAED6";
paths = (
{
closed = 1;
nodes = (
"467 480 LINE",
"391 404 LINE",
"419 404 LINE",
"387 461 OFFCURVE",
"364 486 OFFCURVE",
"290 486 CURVE SMOOTH",
"146 486 OFFCURVE",
"4 246 OFFCURVE",
"4 82 CURVE SMOOTH",
"4 8 OFFCURVE",
"37 -16 OFFCURVE",
"73 -16 CURVE SMOOTH",
"169 -16 OFFCURVE",
"256 101 OFFCURVE",
"337 235 CURVE",
"346 230 LINE",
"346 230 OFFCURVE",
"279 71 OFFCURVE",
"279 35 CURVE SMOOTH",
"279 2 OFFCURVE",
"294 -10 OFFCURVE",
"321 -10 CURVE SMOOTH",
"390 -10 OFFCURVE",
"472 61 OFFCURVE",
"517 127 CURVE",
"493 139 LINE",
"451 86 OFFCURVE",
"412 60 OFFCURVE",
"399 60 CURVE SMOOTH",
"387 60 OFFCURVE",
"389 88 OFFCURVE",
"401 127 CURVE SMOOTH",
"511 480 LINE"
);
},
{
closed = 1;
nodes = (
"325 452 OFFCURVE",
"377 423 OFFCURVE",
"377 379 CURVE",
"337 250 OFFCURVE",
"172 55 OFFCURVE",
"132 55 CURVE SMOOTH",
"113 55 OFFCURVE",
"106 72 OFFCURVE",
"107 123 CURVE SMOOTH",
"109 214 OFFCURVE",
"209 452 OFFCURVE",
"297 452 CURVE SMOOTH"
);
}
);
width = 513;
}
);
unicode = 0061;
userData = {
com.fontlab.hintData = {
hhints = (
{
position = -20;
width = 70;
},
{
position = 465;
width = 35;
}
);
vhints = (
{
position = 40;
width = 105;
},
{
position = 70;
width = 88;
},
{
position = 310;
width = 100;
}
);
};
com.typemytype.robofont.mark = (
1,
1,
0,
1
);
};
},
{
glyphname = b;
lastChange = "2018-06-30 02:45:01 +0000";
layers = (
{
layerId = "91E832AB-F615-40EB-8273-D93FE80C1C5C";
paths = (
{
closed = 1;
nodes = (
"170 420 LINE",
"180 420 LINE",
"210 460 OFFCURVE",
"255 500 OFFCURVE",
"330 500 CURVE SMOOTH",
"480 500 OFFCURVE",
"535 380 OFFCURVE",
"535 250 CURVE SMOOTH",
"535 110 OFFCURVE",
"450 -20 OFFCURVE",
"300 -20 CURVE SMOOTH",
"240 -20 OFFCURVE",
"190 -5 OFFCURVE",
"150 20 CURVE",
"90 -10 LINE",
"70 0 LINE",
"70 650 LINE SMOOTH",
"70 665 OFFCURVE",
"60 670 OFFCURVE",
"50 675 CURVE SMOOTH",
"10 695 LINE",
"10 720 LINE",
"110 750 LINE",
"170 750 LINE"
);
},
{
closed = 1;
nodes = (
"350 25 OFFCURVE",
"425 60 OFFCURVE",
"425 240 CURVE SMOOTH",
"425 340 OFFCURVE",
"380 430 OFFCURVE",
"270 430 CURVE SMOOTH",
"200 430 OFFCURVE",
"170 380 OFFCURVE",
"170 290 CURVE SMOOTH",
"170 140 LINE SMOOTH",
"170 90 OFFCURVE",
"190 25 OFFCURVE",
"280 25 CURVE SMOOTH"
);
}
);
width = 575;
},
{
layerId = "E0C67D53-4E2B-482D-A2FA-71A3EC4FAED6";
width = 600;
}
);
unicode = 0062;
userData = {
com.fontlab.hintData = {
hhints = (
{
position = -20;
width = 45;
},
{
position = -10;
width = 21;
},
{
position = 430;
width = 70;
},
{
position = 730;
width = 20;
}
);
vhints = (
{
position = 70;
width = 100;
},
{
position = 425;
width = 110;
}
);
};
};
},
{
glyphname = c;
lastChange = "2018-06-30 02:45:01 +0000";
layers = (
{
anchors = (
{
name = "Anchor-0";
position = "{230, 0}";
},
{
name = "Anchor-1";
position = "{255, 580}";
},
{
name = Anchor0;
position = "{230, 0}";
},
{
name = Anchor1;
position = "{255, 580}";
}
);
layerId = "91E832AB-F615-40EB-8273-D93FE80C1C5C";
paths = (
{
closed = 1;
nodes = (
"420 45 OFFCURVE",
"360 -15 OFFCURVE",
"255 -15 CURVE SMOOTH",
"143 -15 OFFCURVE",
"40 60 OFFCURVE",
"40 235 CURVE SMOOTH",
"40 395 OFFCURVE",
"155 495 OFFCURVE",
"280 495 CURVE SMOOTH",
"370 495 OFFCURVE",
"445 460 OFFCURVE",
"445 380 CURVE SMOOTH",
"445 340 OFFCURVE",
"420 320 OFFCURVE",
"390 320 CURVE SMOOTH",
"369 320 OFFCURVE",
"350 325 OFFCURVE",
"335 335 CURVE",
"335 380 LINE SMOOTH",
"335 425 OFFCURVE",
"310 455 OFFCURVE",
"270 455 CURVE SMOOTH",
"220 455 OFFCURVE",
"150 405 OFFCURVE",
"150 275 CURVE SMOOTH",
"150 120 OFFCURVE",
"225 55 OFFCURVE",
"305 55 CURVE SMOOTH",
"350 55 OFFCURVE",
"410 85 OFFCURVE",
"435 110 CURVE",
"455 90 LINE"
);
}
);
width = 475;
},
{
layerId = "E0C67D53-4E2B-482D-A2FA-71A3EC4FAED6";
width = 600;
}
);
unicode = 0063;
userData = {
com.fontlab.hintData = {
hhints = (
{
position = -15;
width = 70;
},
{
position = 455;
width = 40;
}
);
vhints = (
{
position = 40;
width = 110;
},
{
position = 335;
width = 110;
}
);
};
};
},
{
glyphname = d;
lastChange = "2018-06-30 02:44:09 +0000";
layers = (
{
layerId = "91E832AB-F615-40EB-8273-D93FE80C1C5C";
paths = (
{
closed = 1;
nodes = (
"225 455 OFFCURVE",
"149.999 420 OFFCURVE",
"149.999 240 CURVE SMOOTH",
"149.999 140 OFFCURVE",
"194.999 50 OFFCURVE",
"304.999 50 CURVE SMOOTH",
"374.999 50 OFFCURVE",
"409.999 110 OFFCURVE",
"409.999 240 CURVE SMOOTH",
"409.999 340 LINE SMOOTH",
"409.999 352.163 OFFCURVE",
"408.533 365.214 OFFCURVE",
"404.999 378 CURVE SMOOTH",
"394.004 417.777 OFFCURVE",
"363.106 455 OFFCURVE",
"295 455 CURVE SMOOTH"
);
},
{
closed = 1;
nodes = (
"404.999 650 LINE SMOOTH",
"404.999 665 OFFCURVE",
"394.999 670 OFFCURVE",
"384.999 675 CURVE SMOOTH",
"344.999 695 LINE",
"344.999 720 LINE",
"444.999 750 LINE",
"504.999 750 LINE",
"504.999 527 LINE",
"504.999 78 LINE SMOOTH",
"504.999 54.425 OFFCURVE",
"525 37 OFFCURVE",
"561 37 CURVE",
"561 12 LINE",
"429.999 -15 LINE",
"404.999 -15 LINE",
"404.999 60 LINE",
"389.999 25 OFFCURVE",
"334.999 -20 OFFCURVE",
"264.999 -20 CURVE SMOOTH",
"115 -20 OFFCURVE",
"40 100 OFFCURVE",
"40 230 CURVE SMOOTH",
"40 370 OFFCURVE",
"125 500 OFFCURVE",
"274.999 500 CURVE SMOOTH",
"321.909 500 OFFCURVE",
"366.619 488.997 OFFCURVE",
"404.999 475.25 CURVE",
"404.999 527 LINE"
);
}
);
width = 585;
},
{
layerId = "E0C67D53-4E2B-482D-A2FA-71A3EC4FAED6";
paths = (
{
closed = 1;
nodes = (
"558 768 LINE",
"558 768 OFFCURVE",
"373 122 OFFCURVE",
"376 80 CURVE SMOOTH",
"379 38 OFFCURVE",
"363 47 OFFCURVE",
"394 50 CURVE SMOOTH",
"425 53 OFFCURVE",
"472 134 OFFCURVE",
"472 134 CURVE",
"508 123 LINE",
"508 123 OFFCURVE",
"421 -23 OFFCURVE",
"368 -24 CURVE SMOOTH",
"250 -26 OFFCURVE",
"322 185 OFFCURVE",
"322 185 CURVE",
"356 185 LINE",
"356 185 OFFCURVE",
"271 -1 OFFCURVE",
"119 -17 CURVE SMOOTH",
"35 -26 OFFCURVE",
"4 58 OFFCURVE",
"0 130 CURVE SMOOTH",
"-4 202 OFFCURVE",
"154 495 OFFCURVE",
"293 492 CURVE SMOOTH",
"432 489 OFFCURVE",
"417 400 OFFCURVE",
"417 400 CURVE",
"391 424 LINE",
"391 424 OFFCURVE",
"461 638 OFFCURVE",
"464 688 CURVE SMOOTH",
"467 738 OFFCURVE",
"374 717 OFFCURVE",
"374 717 CURVE",
"375 747 LINE"
);
},
{
closed = 1;
nodes = (
"210 453 OFFCURVE",
"90 218 OFFCURVE",
"90 171 CURVE SMOOTH",
"90 124 OFFCURVE",
"72 62 OFFCURVE",
"151 64 CURVE SMOOTH",
"267 67 OFFCURVE",
"354 281 OFFCURVE",
"356 363 CURVE SMOOTH",
"358 445 OFFCURVE",
"342 447 OFFCURVE",
"276 450 CURVE SMOOTH"
);
}
);
width = 508;
}
);
unicode = 0064;
userData = {
com.fontlab.hintData = {
hhints = (
{
position = -20;
width = 70;
},
{
position = 12;
width = 25;
},
{
position = 455;
width = 45;
},
{
position = 730;
width = 20;
}
);
vhints = (
{
position = 40;
width = 110;
},
{
position = 405;
width = 100;
}
);
};
};
},
{
glyphname = e;
lastChange = "2018-06-30 02:44:09 +0000";
layers = (
{
anchors = (
{
name = "Anchor-1";
position = "{250, 600}";
},
{
name = Anchor1;
position = "{250, 600}";
}
);
layerId = "91E832AB-F615-40EB-8273-D93FE80C1C5C";
paths = (
{
closed = 1;
nodes = (
"145.001 275.667 OFFCURVE",
"145 275.334 OFFCURVE",
"145 275 CURVE SMOOTH",
"145 120 OFFCURVE",
"210 55 OFFCURVE",
"305 55 CURVE SMOOTH",
"350 55 OFFCURVE",
"410 85 OFFCURVE",
"435 110 CURVE",
"455 90 LINE",
"420 45 OFFCURVE",
"360 -15 OFFCURVE",
"255 -15 CURVE SMOOTH",
"143 -15 OFFCURVE",
"35 60 OFFCURVE",
"35 234 CURVE SMOOTH",
"35 395 OFFCURVE",
"145 495 OFFCURVE",
"260 495 CURVE SMOOTH",
"395 495 OFFCURVE",
"460 393 OFFCURVE",
"460 297 CURVE SMOOTH",
"460 276 LINE",
"145.001 276 LINE SMOOTH"
);
},
{
closed = 1;
nodes = (
"350 320 LINE",
"352 404 OFFCURVE",
"330 455 OFFCURVE",
"260 455 CURVE SMOOTH",
"198.738 455 OFFCURVE",
"156.624 416.703 OFFCURVE",
"147.065 320 CURVE"
);
}
);
width = 495;
},
{
layerId = "E0C67D53-4E2B-482D-A2FA-71A3EC4FAED6";
paths = (
{
closed = 1;
nodes = (
"182 490 OFFCURVE",
"14 300 OFFCURVE",
"14 134 CURVE SMOOTH",
"14 18 OFFCURVE",
"94 -10 OFFCURVE",
"148 -10 CURVE SMOOTH",
"222 -10 OFFCURVE",
"306 37 OFFCURVE",
"356 134 CURVE",
"332 146 LINE",
"288 87 OFFCURVE",
"234 60 OFFCURVE",
"182 60 CURVE SMOOTH",
"124 60 OFFCURVE",
"90 87 OFFCURVE",
"90 162 CURVE SMOOTH",
"90 253 OFFCURVE",
"178 436 OFFCURVE",
"256 436 CURVE SMOOTH",
"303 436 OFFCURVE",
"316 412 OFFCURVE",
"316 383 CURVE SMOOTH",
"316 313 OFFCURVE",
"220 244 OFFCURVE",
"73 229 CURVE",
"73 197 LINE",
"217 212 OFFCURVE",
"392 282 OFFCURVE",
"392 401 CURVE SMOOTH",
"392 445 OFFCURVE",
"362 490 OFFCURVE",
"297 490 CURVE SMOOTH"
);
}
);
width = 384;
}
);
unicode = 0065;
userData = {
com.fontlab.hintData = {
hhints = (
{
position = -15;
width = 70;
},
{
position = 276;
width = 44;
},
{
position = 455;
width = 40;
}
);
vhints = (
{
position = 35;
width = 110;
},
{
position = 350;
width = 110;
}
);
};
};
},
{
glyphname = f;
lastChange = "2018-06-30 02:45:01 +0000";
layers = (
{
layerId = "91E832AB-F615-40EB-8273-D93FE80C1C5C";
paths = (
{
closed = 1;
nodes = (
"295 440 LINE",
"295 480 LINE",
"163 480 LINE",
"163 440 LINE"
);
},
{
closed = 1;
nodes = (
"280 0 LINE",
"280 25 LINE",
"230 35 OFFCURVE",
"210 55 OFFCURVE",
"210 95 CURVE",
"210 550 LINE SMOOTH",
"210 662 OFFCURVE",
"250 700 OFFCURVE",
"285 700 CURVE SMOOTH",
"330 700 OFFCURVE",
"340 640 OFFCURVE",
"380 640 CURVE SMOOTH",
"401 640 OFFCURVE",
"433 667 OFFCURVE",
"433 700 CURVE SMOOTH",
"433 734 OFFCURVE",
"392 755 OFFCURVE",
"340 755 CURVE SMOOTH",
"176 755 OFFCURVE",
"125 619 OFFCURVE",
"125 539 CURVE SMOOTH",
"125 497 OFFCURVE",
"100 475 OFFCURVE",
"50 465 CURVE",
"50 440 LINE",
"110 440 LINE",
"110 95 LINE SMOOTH",
"110 55 OFFCURVE",
"90 35 OFFCURVE",
"40 25 CURVE",
"40 0 LINE"
);
}
);
width = 333;
},
{
layerId = "E0C67D53-4E2B-482D-A2FA-71A3EC4FAED6";
width = 600;
}
);
unicode = 0066;
userData = {
com.fontlab.hintData = {
hhints = (
{
position = 0;
width = 30;
},
{
position = 440;
width = 20;
},
{
position = 440;
width = 30;
},
{
position = 710;
width = 50;
}
);
vhints = (
{
position = 110;
width = 100;
},
{
position = 120;
width = 90;
}
);
};
com.typemytype.robofont.mark = (
1,
1,
0,
1
);
};
},
{
glyphname = g;
lastChange = "2018-06-30 02:44:10 +0000";
layers = (
{
layerId = "91E832AB-F615-40EB-8273-D93FE80C1C5C";
paths = (
{
closed = 1;
nodes = (
"535 405 LINE",
"505 395 LINE",
"410 420 LINE",
"410 420 LINE",
"431 393 OFFCURVE",
"445 359 OFFCURVE",
"445 320 CURVE SMOOTH",
"445 216 OFFCURVE",
"369 145 OFFCURVE",
"245 145 CURVE SMOOTH",
"209 145 OFFCURVE",
"179 150 OFFCURVE",
"154 160 CURVE",
"141 143 OFFCURVE",
"135 131 OFFCURVE",
"135 120 CURVE SMOOTH",
"135 100 OFFCURVE",
"165 65 OFFCURVE",
"265 65 CURVE SMOOTH",
"425 65 OFFCURVE",
"505 10 OFFCURVE",
"505 -70 CURVE SMOOTH",
"505 -210 OFFCURVE",
"355 -260 OFFCURVE",
"265 -260 CURVE SMOOTH",
"121 -260 OFFCURVE",
"25 -233 OFFCURVE",
"25 -120 CURVE SMOOTH",
"25 -86 OFFCURVE",
"100 -33 OFFCURVE",
"138 -9 CURVE",
"98 10 OFFCURVE",
"60 48 OFFCURVE",
"60 90 CURVE SMOOTH",
"60 116 OFFCURVE",
"95 153 OFFCURVE",
"120 177 CURVE",
"66 213 OFFCURVE",
"45 273 OFFCURVE",
"45 330 CURVE SMOOTH",
"45 429 OFFCURVE",
"116 500 OFFCURVE",
"245 500 CURVE SMOOTH",
"286 500 OFFCURVE",
"331 485 OFFCURVE",
"368 459 CURVE",
"535 480 LINE"
);
},
{
closed = 1;
nodes = (
"321 180 OFFCURVE",
"340 264 OFFCURVE",
"340 320 CURVE SMOOTH",
"340 421 OFFCURVE",
"296 465 OFFCURVE",
"245 465 CURVE SMOOTH",
"166 465 OFFCURVE",
"150 385 OFFCURVE",
"150 330 CURVE SMOOTH",
"150 229 OFFCURVE",
"196 180 OFFCURVE",
"245 180 CURVE SMOOTH"
);
},
{
closed = 1;
nodes = (
"185 -20 OFFCURVE",
"110 -75 OFFCURVE",
"110 -110 CURVE SMOOTH",
"110 -182 OFFCURVE",
"190 -220 OFFCURVE",
"285 -220 CURVE SMOOTH",
"375 -220 OFFCURVE",
"410 -173 OFFCURVE",
"410 -120 CURVE SMOOTH",
"410 -40 OFFCURVE",
"335 -20 OFFCURVE",
"185 -20 CURVE"
);
}
);
width = 545;
},
{
layerId = "E0C67D53-4E2B-482D-A2FA-71A3EC4FAED6";
paths = (
{
closed = 1;
nodes = (
"455 495 OFFCURVE",
"487 414 OFFCURVE",
"486 357 CURVE SMOOTH",
"485 280 OFFCURVE",
"412 155 OFFCURVE",
"276 157 CURVE SMOOTH",
"140 159 OFFCURVE",
"123 220 OFFCURVE",
"123 274 CURVE SMOOTH",
"123 321 OFFCURVE",
"216 495 OFFCURVE",
"337 495 CURVE SMOOTH"
);
},
{
closed = 1;
nodes = (
"244 455 OFFCURVE",
"209 308 OFFCURVE",
"209 271 CURVE SMOOTH",
"209 234 OFFCURVE",
"224 207 OFFCURVE",
"291 203 CURVE SMOOTH",
"358 199 OFFCURVE",
"404 313 OFFCURVE",
"405 365 CURVE SMOOTH",
"406 417 OFFCURVE",
"390 449 OFFCURVE",
"317 452 CURVE SMOOTH"
);
},
{
closed = 1;
nodes = (
"414 458 OFFCURVE",
"440 493 OFFCURVE",
"507 491 CURVE SMOOTH",
"571 489 OFFCURVE",
"589 459 OFFCURVE",
"589 440 CURVE SMOOTH",
"589 421 OFFCURVE",
"581 390 OFFCURVE",
"555 391 CURVE SMOOTH",
"520 393 OFFCURVE",
"537 444 OFFCURVE",
"508 445 CURVE SMOOTH",
"468 446 OFFCURVE",
"426 442 OFFCURVE",
"426 442 CURVE",
"414 458 LINE"
);
},
{
closed = 1;
nodes = (
"237 174 OFFCURVE",
"161 146 OFFCURVE",
"164 103 CURVE SMOOTH",
"167 60 OFFCURVE",
"422 69 OFFCURVE",
"419 -73 CURVE SMOOTH",
"417 -171 OFFCURVE",
"284 -234 OFFCURVE",
"184 -233 CURVE SMOOTH",
"125 -232 OFFCURVE",
"-12 -191 OFFCURVE",
"-10 -102 CURVE SMOOTH",
"-8 7 OFFCURVE",
"167 39 OFFCURVE",
"167 39 CURVE",
"183 15 LINE",
"183 15 OFFCURVE",
"58 -8 OFFCURVE",
"57 -96 CURVE SMOOTH",
"56 -146 OFFCURVE",
"118 -173 OFFCURVE",
"199 -174 CURVE SMOOTH",
"240 -175 OFFCURVE",
"354 -167 OFFCURVE",
"351 -98 CURVE SMOOTH",
"347 -9 OFFCURVE",
"87 -28 OFFCURVE",
"87 78 CURVE SMOOTH",
"87 132 OFFCURVE",
"208 193 OFFCURVE",
"208 193 CURVE",
"239 177 LINE"
);
}
);
width = 667;
}
);
unicode = 0067;
userData = {
com.fontlab.hintData = {
hhints = (
{
position = -260;
width = 40;
},
{
position = -20;
width = 85;
},
{
position = 145;
width = 35;
},
{
position = 395;
width = 85;
},
{
position = 465;
width = 35;
}
);
vhints = (
{
position = 30;
width = 85;
},
{
position = 50;
width = 105;
},
{
position = 65;
width = 75;
},
{
position = 345;
width = 105;
},
{
position = 415;
width = 95;
}
);
};
};
},
{
glyphname = h;
lastChange = "2018-06-30 02:44:10 +0000";
layers = (
{
layerId = "91E832AB-F615-40EB-8273-D93FE80C1C5C";
paths = (
{
closed = 1;
nodes = (
"142 440 LINE",
"218 440 LINE",
"181 426 LINE",
"229 458 OFFCURVE",
"286 490 OFFCURVE",
"344 490 CURVE SMOOTH",
"450 490 OFFCURVE",
"494 440 OFFCURVE",
"494 320 CURVE SMOOTH",
"494 95 LINE SMOOTH",
"494 55 OFFCURVE",
"514 35 OFFCURVE",
"564 25 CURVE",
"564 0 LINE",
"324 0 LINE",
"324 25 LINE",
"374 35 OFFCURVE",
"394 55 OFFCURVE",
"394 95 CURVE SMOOTH",
"394 330 LINE SMOOTH",
"394 390 OFFCURVE",
"372 430 OFFCURVE",
"304 430 CURVE SMOOTH",
"265 430 OFFCURVE",
"220 406 OFFCURVE",
"194 387 CURVE",
"142 387 LINE"
);
},
{
closed = 1;
nodes = (
"24 25 LINE",
"74 35 OFFCURVE",
"94 55 OFFCURVE",
"94 95 CURVE SMOOTH",
"94 660 LINE",
"34 690 LINE",
"34 710 LINE",
"160 750 LINE",
"190 740 LINE",
"190 440 LINE",
"194 387 LINE",
"194 95 LINE SMOOTH",
"194 55 OFFCURVE",
"214 35 OFFCURVE",
"264 25 CURVE",
"264 0 LINE",
"24 0 LINE"
);
}
);
width = 576;
},
{
layerId = "E0C67D53-4E2B-482D-A2FA-71A3EC4FAED6";
paths = (
{
closed = 1;
nodes = (
"62 750 LINE",
"41 714 LINE",
"111 714 LINE SMOOTH",
"142 714 OFFCURVE",
"144 691 OFFCURVE",
"136 665 CURVE SMOOTH",
"-65 0 LINE",
"12 0 LINE",
"38 89 OFFCURVE",
"208 442 OFFCURVE",
"327 442 CURVE SMOOTH",
"352 442 OFFCURVE",
"349 435 OFFCURVE",
"352 419 CURVE SMOOTH",
"355 403 OFFCURVE",
"229 92 OFFCURVE",
"235 43 CURVE SMOOTH",
"241 -6 OFFCURVE",
"266 -17 OFFCURVE",
"286 -17 CURVE SMOOTH",
"359 -17 OFFCURVE",
"445 127 OFFCURVE",
"445 127 CURVE",
"425 142 LINE",
"425 142 OFFCURVE",
"358 50 OFFCURVE",
"333 51 CURVE SMOOTH",
"315 52 OFFCURVE",
"320 50 OFFCURVE",
"316 66 CURVE SMOOTH",
"312 82 OFFCURVE",
"432 379 OFFCURVE",
"429 416 CURVE SMOOTH",
"426 453 OFFCURVE",
"418 492 OFFCURVE",
"362 492 CURVE SMOOTH",
"197 493 OFFCURVE",
"22 121 OFFCURVE",
"22 121 CURVE",
"45 120 LINE",
"237 750 LINE"
);
}
);
width = 450.97045;
}
);
unicode = 0068;
userData = {
com.fontlab.hintData = {
hhints = (
{
position = 0;
width = 25;
},
{
position = 430;
width = 60;
},
{
position = 730;
width = 20;
}
);
vhints = (
{
position = 95;
width = 100;
},
{
position = 395;
width = 100;
}
);
};
com.typemytype.robofont.mark = (
1,
1,
0,
1
);
};
},
{
glyphname = i;
lastChange = "2018-06-30 02:44:10 +0000";
layers = (
{
layerId = "91E832AB-F615-40EB-8273-D93FE80C1C5C";
paths = (
{
closed = 1;
nodes = (
"104 634 OFFCURVE",
"78 664 OFFCURVE",
"78 700 CURVE SMOOTH",
"78 736 OFFCURVE",
"104 766 OFFCURVE",
"144 766 CURVE SMOOTH",
"184 766 OFFCURVE",
"210 736 OFFCURVE",
"210 700 CURVE SMOOTH",
"210 664 OFFCURVE",
"184 634 OFFCURVE",
"144 634 CURVE SMOOTH"
);
},
{
closed = 1;
nodes = (
"28 0 LINE",
"28 24 LINE",
"78 36 OFFCURVE",
"98 56 OFFCURVE",
"98 96 CURVE SMOOTH",
"98 400 LINE",
"38 430 LINE",
"38 450 LINE",
"168 500 LINE",
"198 490 LINE",
"198 96 LINE SMOOTH",
"198 56 OFFCURVE",
"218 36 OFFCURVE",
"268 24 CURVE",
"268 0 LINE"
);
}
);
width = 288;
},
{
layerId = "E0C67D53-4E2B-482D-A2FA-71A3EC4FAED6";
paths = (
{
closed = 1;
nodes = (
"164 490 OFFCURVE",
"226 490 CURVE SMOOTH",
"270 490 OFFCURVE",
"288 438 OFFCURVE",
"265 380 CURVE SMOOTH",
"163 122 LINE SMOOTH",
"149 86 OFFCURVE",
"135 61 OFFCURVE",
"161 61 CURVE SMOOTH",
"190 61 OFFCURVE",
"259 140 OFFCURVE",
"259 140 CURVE",
"280 129 LINE",
"280 129 OFFCURVE",
"192 -10 OFFCURVE",
"105 -10 CURVE SMOOTH",
"47 -10 OFFCURVE",
"42 51 OFFCURVE",
"61 101 CURVE SMOOTH",
"162 361 LINE SMOOTH",
"179 404 OFFCURVE",
"185 432 OFFCURVE",
"165 432 CURVE SMOOTH",
"142 432 OFFCURVE",
"121 416 OFFCURVE",
"89 377 CURVE",
"69 387 LINE",
"121 455 OFFCURVE"
);
},
{
closed = 1;
nodes = (
"319 603 OFFCURVE",
"349 631 OFFCURVE",
"349 667 CURVE SMOOTH",
"349 702 OFFCURVE",
"319 730 OFFCURVE",
"286 730 CURVE SMOOTH",
"250 730 OFFCURVE",
"223 702 OFFCURVE",
"223 667 CURVE SMOOTH",
"223 631 OFFCURVE",
"250 603 OFFCURVE",
"286 603 CURVE SMOOTH"
);
}
);
width = 271.43455;
}
);
unicode = 0069;
userData = {
com.fontlab.hintData = {
hhints = (
{
position = 0;
width = 25;
},
{
position = 635;
width = 130;
}
);
vhints = (
{
position = 80;
width = 130;
},
{
position = 100;
width = 100;
}
);
};
com.typemytype.robofont.mark = (
1,
1,
0,
1
);
};
},
{
glyphname = j;
lastChange = "2018-06-30 02:45:01 +0000";
layers = (
{
layerId = "91E832AB-F615-40EB-8273-D93FE80C1C5C";
paths = (
{
closed = 1;
nodes = (
"185 50 LINE SMOOTH",
"185 -50 OFFCURVE",
"130 -115 OFFCURVE",
"30 -185 CURVE",
"10 -165 LINE",
"80 -75 OFFCURVE",
"85 -25 OFFCURVE",
"85 75 CURVE SMOOTH",
"85 400 LINE",
"25 430 LINE",
"25 450 LINE",
"155 500 LINE",
"185 490 LINE"
);
},
{
closed = 1;
nodes = (
"90 635 OFFCURVE",
"65 665 OFFCURVE",
"65 700 CURVE SMOOTH",
"65 735 OFFCURVE",
"90 765 OFFCURVE",
"130 765 CURVE SMOOTH",
"170 765 OFFCURVE",
"195 735 OFFCURVE",
"195 700 CURVE SMOOTH",
"195 665 OFFCURVE",
"170 635 OFFCURVE",
"130 635 CURVE SMOOTH"
);
}
);
width = 245;
},
{
layerId = "E0C67D53-4E2B-482D-A2FA-71A3EC4FAED6";
width = 600;
}
);
unicode = 006A;
userData = {
com.fontlab.hintData = {
hhints = (
{
position = 635;
width = 130;
}
);
vhints = (
{
position = 65;
width = 130;
},
{
position = 85;
width = 100;
}
);
};
com.typemytype.robofont.mark = (
1,
1,
0,
1
);
};
},
{
glyphname = k;
lastChange = "2018-06-30 02:45:01 +0000";
layers = (
{
layerId = "91E832AB-F615-40EB-8273-D93FE80C1C5C";
paths = (
{
closed = 1;
nodes = (
"260 0 LINE",
"20 0 LINE",
"20 30 LINE",
"70 35 OFFCURVE",
"90 60 OFFCURVE",
"90 100 CURVE SMOOTH",
"90 660 LINE",
"30 690 LINE",
"30 710 LINE",
"160 750 LINE",
"190 740 LINE",
"190 270 LINE",
"300 380 OFFCURVE",
"310 390 OFFCURVE",
"310 420 CURVE SMOOTH",
"310 440 OFFCURVE",
"300 450 OFFCURVE",
"270 460 CURVE",
"270 480 LINE",
"500 480 LINE",
"500 460 LINE",
"440 440 OFFCURVE",
"411 421 OFFCURVE",
"270 280 CURVE",
"470 80 OFFCURVE",
"500 50 OFFCURVE",
"550 30 CURVE",
"550 0 LINE",
"420 0 LINE",
"190 230 LINE",
"190 100 LINE SMOOTH",
"190 60 OFFCURVE",
"210 35 OFFCURVE",
"260 30 CURVE"
);
}
);
width = 555;
},
{
layerId = "E0C67D53-4E2B-482D-A2FA-71A3EC4FAED6";
width = 600;
}
);
unicode = 006B;
userData = {
com.fontlab.hintData = {
hhints = (
{
position = 0;
width = 30;
},
{
position = 460;
width = 20;
},
{
position = 730;
width = 20;
}
);
vhints = (
{
position = 90;
width = 100;
}
);
};
};
},
{
glyphname = l;
lastChange = "2018-06-30 02:44:10 +0000";
layers = (
{
layerId = "91E832AB-F615-40EB-8273-D93FE80C1C5C";
paths = (
{
closed = 1;
nodes = (
"18 0 LINE",
"18 30 LINE",
"68 40 OFFCURVE",
"88 60 OFFCURVE",
"88 100 CURVE SMOOTH",
"88 660 LINE",
"28 690 LINE",
"28 710 LINE",
"158 750 LINE",
"188 740 LINE",
"188 100 LINE SMOOTH",
"188 60 OFFCURVE",
"208 40 OFFCURVE",
"258 30 CURVE",
"258 0 LINE"
);
}
);
width = 272;
},
{
layerId = "E0C67D53-4E2B-482D-A2FA-71A3EC4FAED6";
paths = (
{
closed = 1;
nodes = (
"320 747 LINE",
"320 747 OFFCURVE",
"350 760 OFFCURVE",
"332 702 CURVE SMOOTH",
"314 644 OFFCURVE",
"140 87 OFFCURVE",
"140 87 CURVE",
"140 87 OFFCURVE",
"120 56 OFFCURVE",
"155 56 CURVE SMOOTH",
"190 56 OFFCURVE",
"254 141 OFFCURVE",
"254 141 CURVE",
"277 118 LINE",
"277 118 OFFCURVE",
"172 -21 OFFCURVE",
"104 -21 CURVE SMOOTH",
"36 -21 OFFCURVE",
"54 10 OFFCURVE",
"51 55 CURVE SMOOTH",
"48 100 OFFCURVE",
"240 623 OFFCURVE",
"235 675 CURVE SMOOTH",
"230 727 OFFCURVE",
"151 712 OFFCURVE",
"151 712 CURVE",
"164 747 LINE"
);
}
);
width = 265.382;
}
);
unicode = 006C;
userData = {
com.fontlab.hintData = {
hhints = (
{
position = 0;
width = 30;
},
{
position = 730;
width = 20;
}
);
vhints = (
{
position = 90;
width = 100;
}
);
};
com.typemytype.robofont.mark = (
1,
1,
0,
1
);
};
},
{
glyphname = m;
lastChange = "2018-06-30 02:45:01 +0000";
layers = (
{
layerId = "91E832AB-F615-40EB-8273-D93FE80C1C5C";
paths = (
{
closed = 1;
nodes = (
"142 440 LINE",
"218 440 LINE",
"181 426 LINE",
"229 458 OFFCURVE",
"286 490 OFFCURVE",
"344 490 CURVE SMOOTH",
"450 490 OFFCURVE",
"494 440 OFFCURVE",
"494 320 CURVE SMOOTH",
"494 95 LINE SMOOTH",
"494 55 OFFCURVE",
"514 35 OFFCURVE",
"564 25 CURVE",
"564 0 LINE",
"324 0 LINE",
"324 25 LINE",
"374 35 OFFCURVE",
"394 55 OFFCURVE",
"394 95 CURVE SMOOTH",
"394 330 LINE SMOOTH",
"394 390 OFFCURVE",
"372 430 OFFCURVE",
"304 430 CURVE SMOOTH",
"265 430 OFFCURVE",
"220 406 OFFCURVE",
"194 387 CURVE",
"142 387 LINE"
);
},
{
closed = 1;
nodes = (
"24 25 LINE",
"74 35 OFFCURVE",
"94 55 OFFCURVE",
"94 95 CURVE SMOOTH",
"94 410 LINE",
"34 440 LINE",
"34 460 LINE",
"160 500 LINE",
"190 490 LINE",
"190 440 LINE",
"194 387 LINE",
"194 95 LINE SMOOTH",
"194 55 OFFCURVE",
"214 35 OFFCURVE",
"264 25 CURVE",
"264 0 LINE",
"24 0 LINE"
);
},
{
closed = 1;
nodes = (
"442 435 LINE",
"518 435 LINE",
"451 416 LINE",
"499 448 OFFCURVE",
"586 490 OFFCURVE",
"644 490 CURVE SMOOTH",
"750 490 OFFCURVE",
"794 440 OFFCURVE",
"794 320 CURVE SMOOTH",
"794 95 LINE SMOOTH",
"794 55 OFFCURVE",
"814 35 OFFCURVE",
"864 25 CURVE",
"864 0 LINE",
"624 0 LINE",
"624 25 LINE",
"674 35 OFFCURVE",
"694 55 OFFCURVE",
"694 95 CURVE SMOOTH",
"694 330 LINE SMOOTH",
"694 390 OFFCURVE",
"672 430 OFFCURVE",
"604 430 CURVE SMOOTH",
"565 430 OFFCURVE",
"500 396 OFFCURVE",
"474 377 CURVE",
"442 377 LINE"
);
}
);
width = 880;
},
{
layerId = "E0C67D53-4E2B-482D-A2FA-71A3EC4FAED6";
width = 600;
}
);
unicode = 006D;
userData = {
com.fontlab.hintData = {
hhints = (
{
position = 0;
width = 30;
},
{
position = 430;
width = 60;
}
);
vhints = (
{
position = 100;
width = 100;
},
{
position = 400;
width = 100;
},
{
position = 700;
width = 100;
}
);
};
com.typemytype.robofont.mark = (
1,
1,
0,
1
);
};
},
{
glyphname = n;
lastChange = "2018-06-30 02:44:10 +0000";
layers = (
{
layerId = "91E832AB-F615-40EB-8273-D93FE80C1C5C";
paths = (
{
closed = 1;
nodes = (
"142 440 LINE",
"218 440 LINE",
"181 426 LINE",
"229 458 OFFCURVE",
"286 490 OFFCURVE",
"344 490 CURVE SMOOTH",
"450 490 OFFCURVE",
"494 440 OFFCURVE",
"494 320 CURVE SMOOTH",
"494 95 LINE SMOOTH",
"494 55 OFFCURVE",
"514 35 OFFCURVE",
"564 25 CURVE",
"564 0 LINE",
"324 0 LINE",
"324 25 LINE",
"374 35 OFFCURVE",
"394 55 OFFCURVE",
"394 95 CURVE SMOOTH",
"394 330 LINE SMOOTH",
"394 390 OFFCURVE",
"372 430 OFFCURVE",
"304 430 CURVE SMOOTH",
"265 430 OFFCURVE",
"220 406 OFFCURVE",
"194 387 CURVE",
"142 387 LINE"
);
},
{
closed = 1;
nodes = (
"24 25 LINE",
"74 35 OFFCURVE",
"94 55 OFFCURVE",
"94 95 CURVE SMOOTH",
"94 410 LINE",
"34 440 LINE",
"34 460 LINE",
"160 500 LINE",
"190 490 LINE",
"190 440 LINE",
"194 387 LINE",
"194 95 LINE SMOOTH",
"194 55 OFFCURVE",
"214 35 OFFCURVE",
"264 25 CURVE",
"264 0 LINE",
"24 0 LINE"
);
}
);
width = 590;
},
{
layerId = "E0C67D53-4E2B-482D-A2FA-71A3EC4FAED6";
paths = (
{
closed = 1;
nodes = (
"7 -1 LINE",
"86 315 LINE",
"86 315 OFFCURVE",
"103 375 OFFCURVE",
"105 402 CURVE SMOOTH",
"107 429 OFFCURVE",
"81 429 OFFCURVE",
"81 429 CURVE",
"17 352 LINE",
"0 370 LINE",
"0 370 OFFCURVE",
"61 500 OFFCURVE",
"112 495 CURVE SMOOTH",
"163 490 OFFCURVE",
"180 452 OFFCURVE",
"175 418 CURVE SMOOTH",
"170 384 OFFCURVE",
"125 183 OFFCURVE",
"125 183 CURVE",
"110 182 LINE",
"112 224 LINE",
"134 229 OFFCURVE",
"318 493 OFFCURVE",
"414 492 CURVE SMOOTH",
"486 491 OFFCURVE",
"498 462 OFFCURVE",
"495 417 CURVE SMOOTH",
"494 394 OFFCURVE",
"421 194 OFFCURVE",
"386 87 CURVE SMOOTH",
"385 83 OFFCURVE",
"380 55 OFFCURVE",
"399 55 CURVE SMOOTH",
"417 55 OFFCURVE",
"446 91 OFFCURVE",
"479 122 CURVE",
"501 106 LINE",
"498 101 OFFCURVE",
"412 -12 OFFCURVE",
"354 -8 CURVE SMOOTH",
"335 -7 OFFCURVE",
"291 26 OFFCURVE",
"289 50 CURVE SMOOTH",
"286 86 OFFCURVE",
"411 395 OFFCURVE",
"400 414 CURVE",
"379 442 LINE",
"252 378 OFFCURVE",
"104 146 OFFCURVE",
"89 0 CURVE"
);
}
);
width = 461;
}
);
unicode = 006E;
userData = {
com.fontlab.hintData = {
hhints = (
{
position = 0;
width = 30;
},
{
position = 435;
width = 60;
}
);
vhints = (
{
position = 100;
width = 100;
},
{
position = 410;
width = 100;
}
);
};
com.typemytype.robofont.mark = (
1,
1,
0,
1
);
};
},
{
glyphname = o;
lastChange = "2018-06-30 02:44:10 +0000";
layers = (
{
anchors = (
{
name = Anchor1;
position = "{280, 580}";
}
);
layerId = "91E832AB-F615-40EB-8273-D93FE80C1C5C";
paths = (
{
closed = 1;
nodes = (
"158 -15 OFFCURVE",
"38 65 OFFCURVE",
"38 235 CURVE SMOOTH",
"38 380 OFFCURVE",
"133 495 OFFCURVE",
"288 495 CURVE SMOOTH",
"408 495 OFFCURVE",
"523 415 OFFCURVE",
"523 245 CURVE SMOOTH",
"523 85 OFFCURVE",
"423 -15 OFFCURVE",
"273 -15 CURVE SMOOTH"
);
},
{
closed = 1;
nodes = (
"393 25 OFFCURVE",
"413 140 OFFCURVE",
"413 230 CURVE SMOOTH",
"413 390 OFFCURVE",
"348 455 OFFCURVE",
"278 455 CURVE SMOOTH",
"173 455 OFFCURVE",
"148 335 OFFCURVE",
"148 250 CURVE SMOOTH",
"148 85 OFFCURVE",
"213 25 OFFCURVE",
"283 25 CURVE SMOOTH"
);
}
);
width = 561;
},
{
layerId = "E0C67D53-4E2B-482D-A2FA-71A3EC4FAED6";
paths = (
{
closed = 1;
nodes = (
"123 495 OFFCURVE",
"0 271 OFFCURVE",
"0 150 CURVE SMOOTH",
"0 29 OFFCURVE",
"56 -10 OFFCURVE",
"142 -10 CURVE SMOOTH",
"243 -10 OFFCURVE",
"438 94 OFFCURVE",
"438 330 CURVE SMOOTH",
"438 451 OFFCURVE",
"361 495 OFFCURVE",
"312 495 CURVE SMOOTH"
);
},
{
closed = 1;
nodes = (
"336 449 OFFCURVE",
"350 385 OFFCURVE",
"350 321 CURVE SMOOTH",
"350 209 OFFCURVE",
"256 31 OFFCURVE",
"170 31 CURVE SMOOTH",
"112 31 OFFCURVE",
"93 82 OFFCURVE",
"91 161 CURVE SMOOTH",
"87 318 OFFCURVE",
"186 451 OFFCURVE",
"268 450 CURVE SMOOTH"
);
}
);
width = 451;
}
);
unicode = 006F;
userData = {
com.fontlab.hintData = {
hhints = (
{
position = -15;
width = 40;
},
{
position = 455;
width = 40;
}
);
vhints = (
{
position = 40;
width = 110;
},
{
position = 415;
width = 110;
}
);
};
com.typemytype.robofont.mark = (
1,
1,
0,
1
);
};
},
{
glyphname = p;
lastChange = "2018-06-30 02:44:10 +0000";
layers = (
{
layerId = "91E832AB-F615-40EB-8273-D93FE80C1C5C";
paths = (
{
closed = 1;
nodes = (
"170 420 LINE",
"180 420 LINE",
"210 460 OFFCURVE",
"255 500 OFFCURVE",
"330 500 CURVE SMOOTH",
"480 500 OFFCURVE",
"535 380 OFFCURVE",
"535 250 CURVE SMOOTH",
"535 110 OFFCURVE",
"450 -20 OFFCURVE",
"300 -20 CURVE SMOOTH",
"236 -20 OFFCURVE",
"190 1.85 OFFCURVE",
"170 18 CURVE",
"160 13 LINE",
"166.919 -10.08 OFFCURVE",
"170 -34 OFFCURVE",
"170 -62 CURVE SMOOTH",
"170 -120 LINE SMOOTH",
"170 -160 OFFCURVE",
"190 -180 OFFCURVE",
"240 -190 CURVE",
"240 -220 LINE",
"170 -220 LINE",
"70 -220 LINE",
"0 -220 LINE",
"0 -190 LINE",
"50 -180 OFFCURVE",
"70 -160 OFFCURVE",
"70 -120 CURVE SMOOTH",
"70 398 LINE SMOOTH",
"70 413 OFFCURVE",
"60 418 OFFCURVE",
"50 423 CURVE SMOOTH",
"10 443 LINE",
"10 468 LINE",
"110 498 LINE",
"170 498 LINE"
);
},
{
closed = 1;
nodes = (
"350 25 OFFCURVE",
"425 60 OFFCURVE",
"425 240 CURVE SMOOTH",
"425 340 OFFCURVE",
"380 430 OFFCURVE",
"270 430 CURVE SMOOTH",
"200 430 OFFCURVE",
"170 380 OFFCURVE",
"170 290 CURVE SMOOTH",
"170 140 LINE SMOOTH",
"170 90 OFFCURVE",
"190 25 OFFCURVE",
"280 25 CURVE SMOOTH"
);
}
);
width = 575;
},
{
layerId = "E0C67D53-4E2B-482D-A2FA-71A3EC4FAED6";
paths = (
{
closed = 1;
nodes = (
"60 379 LINE",
"60 379 OFFCURVE",
"258 449 OFFCURVE",
"337 442 CURVE SMOOTH",
"416 435 OFFCURVE",
"415 410 OFFCURVE",
"414 359 CURVE SMOOTH",
"413 308 OFFCURVE",
"338 29 OFFCURVE",
"244 28 CURVE SMOOTH",
"150 27 OFFCURVE",
"111 94 OFFCURVE",
"111 94 CURVE",
"86 33 LINE",
"86 33 OFFCURVE",
"142 -16 OFFCURVE",
"207 -16 CURVE SMOOTH",
"372 -16 OFFCURVE",
"527 203 OFFCURVE",
"527 368 CURVE SMOOTH",
"527 483 OFFCURVE",
"446 496 OFFCURVE",
"400 496 CURVE SMOOTH",
"249 496 OFFCURVE",
"49 406 OFFCURVE",
"49 410 CURVE"
);
},
{
closed = 1;
nodes = (
"-154 -254 LINE",
"153 -254 LINE",
"164 -219 LINE",
"87 -205 OFFCURVE",
"60 -183 OFFCURVE",
"78 -129 CURVE SMOOTH",
"320 603 LINE",
"225 603 LINE",
"-21 -142 LINE SMOOTH",
"-38 -194 OFFCURVE",
"-68 -210 OFFCURVE",
"-135 -218 CURVE"
);
}
);
width = 500;
}
);
unicode = 0070;
userData = {
com.fontlab.hintData = {
hhints = (
{
position = -220;
width = 30;
},
{
position = -220;
width = 100;
},
{
position = -20;
width = 45;
},
{
position = 430;
width = 70;
}
);
vhints = (
{
position = 70;
width = 100;
},
{
position = 425;
width = 110;
}
);
};
};
},
{
glyphname = q;
lastChange = "2018-06-30 02:45:01 +0000";
layers = (
{
layerId = "91E832AB-F615-40EB-8273-D93FE80C1C5C";
paths = (
{
closed = 1;
nodes = (
"225 455 OFFCURVE",
"149.999 420 OFFCURVE",
"149.999 240 CURVE SMOOTH",
"149.999 140 OFFCURVE",
"194.999 50 OFFCURVE",
"304.999 50 CURVE SMOOTH",
"374.999 50 OFFCURVE",
"409.999 110 OFFCURVE",
"409.999 240 CURVE SMOOTH",
"409.999 340 LINE SMOOTH",
"409.999 352.163 OFFCURVE",
"408.533 365.214 OFFCURVE",
"404.999 378 CURVE SMOOTH",
"394.004 417.777 OFFCURVE",
"363.106 455 OFFCURVE",
"295 455 CURVE SMOOTH"
);
},
{
closed = 1;
nodes = (
"321.91 500 OFFCURVE",
"366.62 488.997 OFFCURVE",
"405 475.25 CURVE SMOOTH",
"415 471.375 LINE",
"473 500 LINE",
"505 480 LINE",
"505 -120 LINE SMOOTH",
"505 -160 OFFCURVE",
"525 -180 OFFCURVE",
"575 -190 CURVE",
"575 -220 LINE",
"335 -220 LINE",
"335 -190 LINE",
"385 -180 OFFCURVE",
"405 -160 OFFCURVE",
"405 -120 CURVE SMOOTH",
"405 -20 LINE SMOOTH",
"405 0 OFFCURVE",
"405 25 OFFCURVE",
"415 55 CURVE",
"405 60 LINE",
"390 25 OFFCURVE",
"335 -20 OFFCURVE",
"265 -20 CURVE SMOOTH",
"115 -20 OFFCURVE",
"40 100 OFFCURVE",
"40 230 CURVE SMOOTH",
"40 370 OFFCURVE",
"125 500 OFFCURVE",
"275 500 CURVE SMOOTH"
);
}
);
width = 585;
},
{
layerId = "E0C67D53-4E2B-482D-A2FA-71A3EC4FAED6";
width = 600;
}
);
unicode = 0071;
userData = {
com.fontlab.hintData = {
hhints = (
{
position = -220;
width = 30;
},
{
position = -20;
width = 70;
},
{
position = 455;
width = 45;
}
);
vhints = (
{
position = 40;
width = 110;
},
{
position = 405;
width = 100;
}
);
};
};
},
{
glyphname = r;
lastChange = "2018-06-30 02:44:10 +0000";
layers = (
{
layerId = "91E832AB-F615-40EB-8273-D93FE80C1C5C";
paths = (
{
closed = 1;
nodes = (
"148 410 LINE",
"224 410 LINE",
"187 396 LINE",
"231 429 OFFCURVE",
"284 490 OFFCURVE",
"342 490 CURVE SMOOTH",
"398.631 490 OFFCURVE",
"419 445 OFFCURVE",
"419 413 CURVE SMOOTH",
"419 397.381 OFFCURVE",
"401 348 OFFCURVE",
"358 348 CURVE SMOOTH",
"329.424 348 OFFCURVE",
"310.309 361.755 OFFCURVE",
"310.309 381 CURVE SMOOTH",
"310.309 389.284 OFFCURVE",
"300.964 400 OFFCURVE",
"284 400 CURVE SMOOTH",
"253 400 OFFCURVE",
"226 380 OFFCURVE",
"200 361 CURVE",
"148 361 LINE"
);
},
{
closed = 1;
nodes = (
"30 25 LINE",
"80 35 OFFCURVE",
"100 55 OFFCURVE",
"100 95 CURVE SMOOTH",
"100 395 LINE",
"40 425 LINE",
"40 445 LINE",
"166 500 LINE",
"196 490 LINE",
"196 410 LINE",
"200 361 LINE",
"200 95 LINE SMOOTH",
"200 55 OFFCURVE",
"240 35 OFFCURVE",
"290 25 CURVE",
"290 0 LINE",
"30 0 LINE"
);
}
);
width = 429;
},
{
layerId = "E0C67D53-4E2B-482D-A2FA-71A3EC4FAED6";
paths = (
{
closed = 1;
nodes = (
"101 490 OFFCURVE",
"153 490 CURVE SMOOTH",
"197 490 OFFCURVE",
"207 441 OFFCURVE",
"195 380 CURVE SMOOTH",
"118 0 LINE SMOOTH",
"39 0 LINE",
"124 361 LINE SMOOTH",
"134 404 OFFCURVE",
"134 427 OFFCURVE",
"117 427 CURVE SMOOTH",
"98 427 OFFCURVE",
"78 391 OFFCURVE",
"46 347 CURVE",
"26 357 LINE",
"88 460 OFFCURVE"
);
},
{
closed = 1;
nodes = (
"180 267 LINE",
"180 267 OFFCURVE",
"253 490 OFFCURVE",
"360 490 CURVE SMOOTH",
"392 490 OFFCURVE",
"415 464 OFFCURVE",
"415 425 CURVE SMOOTH",
"415 376 OFFCURVE",
"395 344 OFFCURVE",
"360 344 CURVE SMOOTH",
"326 344 OFFCURVE",
"337 449 OFFCURVE",
"337 449 CURVE",
"359 432 LINE",
"298 432 OFFCURVE",
"221 325 OFFCURVE",
"111 54 CURVE",
"149 267 LINE"
);
}
);
width = 326.4057;
}
);
unicode = 0072;
userData = {
com.fontlab.hintData = {
hhints = (
{
position = 0;
width = 21;
}
);
vhints = (
{
position = 100;
width = 100;
}
);
};
};
},
{
glyphname = s;
lastChange = "2018-06-30 02:44:10 +0000";
layers = (
{
layerId = "91E832AB-F615-40EB-8273-D93FE80C1C5C";
paths = (
{
closed = 1;
nodes = (
"382.762 335.02 LINE",
"349.902 335.02 LINE",
"331.062 411.838 OFFCURVE",
"290.867 446 OFFCURVE",
"221.783 446 CURVE SMOOTH",
"159.43 446 OFFCURVE",
"122.283 421.858 OFFCURVE",
"122.283 378.84 CURVE SMOOTH",
"122.283 337 OFFCURVE",
"190.693 313.667 OFFCURVE",
"260.003 288.897 CURVE SMOOTH",
"344.99 258.524 OFFCURVE",
"418.003 226.56 OFFCURVE",
"418.003 129 CURVE SMOOTH",
"418.003 36.489 OFFCURVE",
"347.49 -20.24 OFFCURVE",
"235.562 -20.24 CURVE SMOOTH",
"175.76 -20.24 OFFCURVE",
"105.192 -2.804 OFFCURVE",
"59.742 22.68 CURVE",
"59.742 156.24 LINE",
"94.722 156.24 LINE",
"107.19 74.205 OFFCURVE",
"153.326 28.98 OFFCURVE",
"228.141 28.98 CURVE SMOOTH",
"295.969 28.98 OFFCURVE",
"344.601 60.357 OFFCURVE",
"344.601 103.24 CURVE SMOOTH",
"344.601 144.026 OFFCURVE",
"290.506 158.476 OFFCURVE",
"226.001 182.29 CURVE SMOOTH",
"146.961 211.47 OFFCURVE",
"45 253.478 OFFCURVE",
"45 357 CURVE SMOOTH",
"45 437.915 OFFCURVE",
"116.721 495 OFFCURVE",
"219.661 495 CURVE SMOOTH",
"283.692 495 OFFCURVE",
"338.059 480.24 OFFCURVE",
"382.76 449.5 CURVE"
);
}
);
width = 463;
},
{
layerId = "E0C67D53-4E2B-482D-A2FA-71A3EC4FAED6";
paths = (
{
closed = 1;
nodes = (
"309 503 OFFCURVE",
"346 456 OFFCURVE",
"343 422 CURVE SMOOTH",
"340 388 OFFCURVE",
"331 374 OFFCURVE",
"306 374 CURVE SMOOTH",
"257 374 OFFCURVE",
"248 452 OFFCURVE",
"206 452 CURVE SMOOTH",
"164 452 OFFCURVE",
"144 430 OFFCURVE",
"147 405 CURVE SMOOTH",
"150 380 OFFCURVE",
"291 203 OFFCURVE",
"291 135 CURVE SMOOTH",
"291 67 OFFCURVE",
"232 -16 OFFCURVE",
"138 -16 CURVE SMOOTH",
"86 -16 OFFCURVE",
"1 26 OFFCURVE",
"0 67 CURVE SMOOTH",
"-1 108 OFFCURVE",
"21 122 OFFCURVE",
"55 122 CURVE SMOOTH",
"89 122 OFFCURVE",
"94 33 OFFCURVE",
"147 33 CURVE SMOOTH",
"200 33 OFFCURVE",
"219 47 OFFCURVE",
"219 85 CURVE SMOOTH",
"219 135 OFFCURVE",
"85 268 OFFCURVE",
"84 359 CURVE SMOOTH",
"83 450 OFFCURVE",
"155 505 OFFCURVE",
"232 504 CURVE SMOOTH"
);
}
);
width = 313.16875;
}
);
unicode = 0073;
userData = {
com.fontlab.hintData = {
hhints = (
{
position = -20;
width = 49;
},
{
position = 446;
width = 49;
}
);
vhints = (
{
position = 45;
width = 77;
},
{
position = 60;
width = 35;
},
{
position = 345;
width = 73;
},
{
position = 350;
width = 33;
}
);
};
};
},
{
glyphname = t;
lastChange = "2018-06-30 02:44:10 +0000";
layers = (
{
layerId = "91E832AB-F615-40EB-8273-D93FE80C1C5C";
paths = (
{
closed = 1;
nodes = (
"190 480 LINE",
"320 480 LINE",
"320 440 LINE",
"190 440 LINE",
"190 153 LINE SMOOTH",
"190 68 OFFCURVE",
"220 30 OFFCURVE",
"265 30 CURVE SMOOTH",
"320 30 LINE",
"320 0 LINE",
"280 -15 OFFCURVE",
"250 -20 OFFCURVE",
"205 -20 CURVE SMOOTH",
"140 -20 OFFCURVE",
"90 26 OFFCURVE",
"90 113 CURVE SMOOTH",
"90 440 LINE",
"10 440 LINE",
"10 470 LINE",
"120 500 OFFCURVE",
"135 540 OFFCURVE",
"160 600 CURVE",
"190 590 LINE"
);
}
);
width = 330;
},
{
layerId = "E0C67D53-4E2B-482D-A2FA-71A3EC4FAED6";
paths = (
{
closed = 1;
nodes = (
"212 593 LINE",
"70 80 LINE",
"70 80 OFFCURVE",
"65 34 OFFCURVE",
"89 34 CURVE SMOOTH",
"133 34 OFFCURVE",
"200 121 OFFCURVE",
"200 121 CURVE",
"217 99 LINE",
"217 99 OFFCURVE",
"146 -14 OFFCURVE",
"57 -14 CURVE SMOOTH",
"3 -14 OFFCURVE",
"-11 10 OFFCURVE",
"-12 48 CURVE SMOOTH",
"-13 86 OFFCURVE",
"127 555 OFFCURVE",
"127 555 CURVE",
"186 593 LINE"
);
},
{
closed = 1;
nodes = (
"41 480 LINE",
"251 480 LINE",
"236 445 LINE",
"26 445 LINE"
);
}
);
width = 226;
}
);
unicode = 0074;
userData = {
com.fontlab.hintData = {
hhints = (
{
position = -20;
width = 50;
},
{
position = 0;
width = 30;
},
{
position = 440;
width = 40;
},
{
position = 440;
width = 30;
}
);
vhints = (
{
position = 90;
width = 100;
},
{
position = 160;
width = 30;
}
);
};
};
},
{
glyphname = u;
lastChange = "2018-06-30 02:44:10 +0000";
layers = (
{
anchors = (
{
name = "Anchor-1";
position = "{270, 580}";
},
{
name = Anchor1;
position = "{270, 580}";
}
);
layerId = "91E832AB-F615-40EB-8273-D93FE80C1C5C";
paths = (
{
closed = 1;
nodes = (
"315 480 LINE",
"485 480 LINE",
"485 70 LINE",
"545 40 LINE",
"545 20 LINE",
"420 -20 LINE",
"390 -10 LINE",
"390 60 LINE",
"355 10 OFFCURVE",
"295 -10 OFFCURVE",
"245 -10 CURVE SMOOTH",
"145 -10 OFFCURVE",
"85 50 OFFCURVE",
"85 140 CURVE SMOOTH",
"85 380 LINE SMOOTH",
"85 420 OFFCURVE",
"65 440 OFFCURVE",
"15 450 CURVE",
"15 480 LINE",
"185 480 LINE",
"185 150 LINE SMOOTH",
"185 85 OFFCURVE",
"220 50 OFFCURVE",
"285 50 CURVE SMOOTH",
"340 50 OFFCURVE",
"385 85 OFFCURVE",
"385 150 CURVE SMOOTH",
"385 380 LINE SMOOTH",
"385 420 OFFCURVE",
"365 440 OFFCURVE",
"315 450 CURVE"
);
}
);
width = 565;
},
{
layerId = "E0C67D53-4E2B-482D-A2FA-71A3EC4FAED6";
paths = (
{
closed = 1;
nodes = (
"484 464 LINE",
"415 173 LINE",
"415 173 OFFCURVE",
"398 113 OFFCURVE",
"396 86 CURVE SMOOTH",
"394 59 OFFCURVE",
"420 59 OFFCURVE",
"420 59 CURVE",
"484 136 LINE",
"501 118 LINE",
"501 118 OFFCURVE",
"440 -12 OFFCURVE",
"389 -7 CURVE SMOOTH",
"338 -2 OFFCURVE",
"321 36 OFFCURVE",
"326 70 CURVE SMOOTH",
"331 104 OFFCURVE",
"376 305 OFFCURVE",
"376 305 CURVE",
"391 306 LINE",
"389 264 LINE",
"367 259 OFFCURVE",
"183 -5 OFFCURVE",
"87 -4 CURVE SMOOTH",
"15 -3 OFFCURVE",
"3 26 OFFCURVE",
"6 71 CURVE SMOOTH",
"7 94 OFFCURVE",
"80 294 OFFCURVE",
"115 401 CURVE SMOOTH",
"116 405 OFFCURVE",
"121 433 OFFCURVE",
"102 433 CURVE SMOOTH",
"84 433 OFFCURVE",
"55 397 OFFCURVE",
"22 366 CURVE",
"0 382 LINE",
"3 387 OFFCURVE",
"89 500 OFFCURVE",
"147 496 CURVE SMOOTH",
"166 495 OFFCURVE",
"210 462 OFFCURVE",
"212 438 CURVE SMOOTH",
"215 402 OFFCURVE",
"90 93 OFFCURVE",
"101 74 CURVE",
"122 46 LINE",
"249 110 OFFCURVE",
"397 342 OFFCURVE",
"412 488 CURVE"
);
}
);
width = 481;
}
);
unicode = 0075;
userData = {
com.fontlab.hintData = {
hhints = (
{
position = -10;
width = 60;
},
{
position = 450;
width = 30;
}
);
vhints = (
{
position = 85;
width = 100;
},
{
position = 385;
width = 100;
}
);
};
};
},
{
glyphname = v;
lastChange = "2018-06-30 02:44:10 +0000";
layers = (
{
layerId = "91E832AB-F615-40EB-8273-D93FE80C1C5C";
paths = (
{
closed = 1;
nodes = (
"55 395 LINE SMOOTH",
"41 430 OFFCURVE",
"20 450 OFFCURVE",
"-10 455 CURVE",
"-10 480 LINE",
"230 480 LINE",
"230 455 LINE",
"200 450 OFFCURVE",
"170 430 OFFCURVE",
"170 410 CURVE SMOOTH",
"170 380 OFFCURVE",
"180.682 360.268 OFFCURVE",
"200 310 CURVE SMOOTH",
"293 68 LINE",
"274 68 LINE",
"372 310 LINE SMOOTH",
"392.213 359.914 OFFCURVE",
"400 380 OFFCURVE",
"400 410 CURVE SMOOTH",
"400 430 OFFCURVE",
"370 450 OFFCURVE",
"340 455 CURVE",
"340 480 LINE",
"530 480 LINE",
"530 455 LINE",
"500 450 OFFCURVE",
"474.579 430.177 OFFCURVE",
"460 395 CURVE SMOOTH",
"288 -20 LINE",
"225 -20 LINE"
);
}
);
width = 520;
},
{
layerId = "E0C67D53-4E2B-482D-A2FA-71A3EC4FAED6";
paths = (
{
closed = 1;
nodes = (
"301 480 LINE",
"249 480 LINE SMOOTH",
"140 480 OFFCURVE",
"39 440 OFFCURVE",
"39 353 CURVE SMOOTH",
"39 296 OFFCURVE",
"61 278 OFFCURVE",
"82 278 CURVE SMOOTH",
"113 278 OFFCURVE",
"129 293 OFFCURVE",
"129 321 CURVE SMOOTH",
"129 349 OFFCURVE",
"84 352 OFFCURVE",
"84 390 CURVE SMOOTH",
"84 413 OFFCURVE",
"83 424 OFFCURVE",
"144 424 CURVE",
"223 424 LINE",
"109 58 LINE SMOOTH",
"95 13 OFFCURVE",
"105 -10 OFFCURVE",
"161 -10 CURVE SMOOTH",
"282 -10 OFFCURVE",
"588 288 OFFCURVE",
"588 416 CURVE SMOOTH",
"588 474 OFFCURVE",
"548 494 OFFCURVE",
"509 494 CURVE SMOOTH",
"475 494 OFFCURVE",
"446 474 OFFCURVE",
"446 437 CURVE SMOOTH",
"446 360 OFFCURVE",
"507 405 OFFCURVE",
"507 369 CURVE SMOOTH",
"507 292 OFFCURVE",
"266 36 OFFCURVE",
"166 16 CURVE",
"199 16 LINE",
"325 456 LINE"
);
}
);
width = 548;
}
);
unicode = 0076;
userData = {
com.fontlab.hintData = {
hhints = (
{
position = 0;
width = 21;
},
{
position = 448;
width = 32;
},
{
position = 455;
width = 25;
}
);
};
};
},
{
glyphname = w;
lastChange = "2018-06-30 02:44:10 +0000";
layers = (
{
layerId = "91E832AB-F615-40EB-8273-D93FE80C1C5C";
paths = (
{
closed = 1;
nodes = (
"55 395 LINE SMOOTH",
"40.711 429.883 OFFCURVE",
"20 450 OFFCURVE",
"-10 455 CURVE",
"-10 480 LINE",
"230 480 LINE",
"230 455 LINE",
"200 450 OFFCURVE",
"170 430 OFFCURVE",
"170 410 CURVE SMOOTH",
"170 380 OFFCURVE",
"180.712 360.279 OFFCURVE",
"200 310 CURVE SMOOTH",
"289 78 LINE",
"275 78 LINE",
"390 352 LINE",
"415.872 292.231 LINE",
"281 -20 LINE",
"225 -20 LINE"
);
},
{
closed = 1;
nodes = (
"339 395 LINE SMOOTH",
"324.711 429.883 OFFCURVE",
"304 450 OFFCURVE",
"274 455 CURVE",
"274 480 LINE",
"514 480 LINE",
"514 455 LINE",
"484 450 OFFCURVE",
"454 430 OFFCURVE",
"454 410 CURVE SMOOTH",
"454 380 OFFCURVE",
"464.712 360.279 OFFCURVE",
"484 310 CURVE SMOOTH",
"573 78 LINE",
"559 78 LINE",
"656 310 LINE SMOOTH",
"676.773 359.684 OFFCURVE",
"684 380 OFFCURVE",
"684 410 CURVE SMOOTH",
"684 430 OFFCURVE",
"654 450 OFFCURVE",
"624 455 CURVE",
"624 480 LINE",
"814 480 LINE",
"814 455 LINE",
"784 450 OFFCURVE",
"759.081 429.965 OFFCURVE",
"744 395 CURVE SMOOTH",
"565 -20 LINE",
"509 -20 LINE"
);
}
);
width = 804;
},
{
layerId = "E0C67D53-4E2B-482D-A2FA-71A3EC4FAED6";
paths = (
{
closed = 1;
nodes = (
"123 480 LINE",
"123 480 OFFCURVE",
"-1 425 OFFCURVE",
"0 338 CURVE SMOOTH",
"1 251 OFFCURVE",
"32 274 OFFCURVE",
"43 273 CURVE SMOOTH",
"54 272 OFFCURVE",
"88 293 OFFCURVE",
"85 316 CURVE SMOOTH",
"82 339 OFFCURVE",
"38 352 OFFCURVE",
"40 375 CURVE SMOOTH",
"42 398 OFFCURVE",
"64 420 OFFCURVE",
"95 416 CURVE SMOOTH",
"126 412 OFFCURVE",
"234 404 OFFCURVE",
"234 404 CURVE",
"234 404 OFFCURVE",
"70 205 OFFCURVE",
"70 118 CURVE SMOOTH",
"70 31 OFFCURVE",
"146 -12 OFFCURVE",
"217 -12 CURVE SMOOTH",
"367 -13 OFFCURVE",
"494 278 OFFCURVE",
"494 391 CURVE SMOOTH",
"494 504 OFFCURVE",
"459 489 OFFCURVE",
"440 489 CURVE SMOOTH",
"421 489 OFFCURVE",
"393 454 OFFCURVE",
"392 437 CURVE SMOOTH",
"388 372 OFFCURVE",
"372 351 OFFCURVE",
"393 307 CURVE SMOOTH",
"426 238 OFFCURVE",
"325 46 OFFCURVE",
"250 46 CURVE SMOOTH",
"135 46 OFFCURVE",
"161 99 OFFCURVE",
"161 131 CURVE SMOOTH",
"161 163 OFFCURVE",
"220 309 OFFCURVE",
"220 309 CURVE",
"301 479 LINE"
);
},
{
closed = 1;
nodes = (
"380 126 LINE",
"380 126 OFFCURVE",
"391 -12 OFFCURVE",
"476 -14 CURVE SMOOTH",
"620 -17 OFFCURVE",
"709 276 OFFCURVE",
"707 373 CURVE SMOOTH",
"705 470 OFFCURVE",
"656 491 OFFCURVE",
"632 493 CURVE SMOOTH",
"608 495 OFFCURVE",
"590 480 OFFCURVE",
"590 441 CURVE SMOOTH",
"590 402 OFFCURVE",
"641 366 OFFCURVE",
"642 303 CURVE SMOOTH",
"643 240 OFFCURVE",
"584 58 OFFCURVE",
"496 58 CURVE SMOOTH",
"419 58 OFFCURVE",
"408 171 OFFCURVE",
"408 171 CURVE"
);
}
);
width = 677.03301;
}
);
unicode = 0077;
userData = {
com.fontlab.hintData = {
hhints = (
{
position = 0;
width = 21;
},
{
position = 448;
width = 32;
},
{
position = 455;
width = 25;
}
);
};
};
},
{
glyphname = x;
lastChange = "2018-06-30 02:45:01 +0000";
layers = (
{
layerId = "91E832AB-F615-40EB-8273-D93FE80C1C5C";
paths = (
{
closed = 1;
nodes = (
"200 25 LINE",
"170 30 OFFCURVE",
"160 40 OFFCURVE",
"160 60 CURVE SMOOTH",
"160 70 OFFCURVE",
"165.159 84.882 OFFCURVE",
"180 105 CURVE SMOOTH",
"270 227 LINE",
"250 254 LINE",
"115 90 LINE SMOOTH",
"82.444 50.451 OFFCURVE",
"50 35 OFFCURVE",
"10 25 CURVE",
"10 0 LINE",
"200 0 LINE"
);
},
{
closed = 1;
nodes = (
"319 90 OFFCURVE",
"330 70 OFFCURVE",
"330 60 CURVE SMOOTH",
"330 40 OFFCURVE",
"315 30 OFFCURVE",
"285 25 CURVE",
"285 0 LINE",
"525 0 LINE",
"525 25 LINE",
"475 35 OFFCURVE",
"457 50 OFFCURVE",
"430 90 CURVE SMOOTH",
"230 380 LINE SMOOTH",
"216 400 OFFCURVE",
"210 410 OFFCURVE",
"210 420 CURVE SMOOTH",
"210 440 OFFCURVE",
"230 450 OFFCURVE",
"260 455 CURVE",
"260 480 LINE",
"25 480 LINE",
"25 455 LINE",
"55 450 OFFCURVE",
"84 433 OFFCURVE",
"110 395 CURVE SMOOTH",
"305 110 LINE SMOOTH"
);
},
{
closed = 1;
nodes = (
"441.892 431.835 OFFCURVE",
"475 450 OFFCURVE",
"505 455 CURVE",
"505 480 LINE",
"325 480 LINE",
"325 455 LINE",
"355 450 OFFCURVE",
"370 440 OFFCURVE",
"370 420 CURVE SMOOTH",
"370 410 OFFCURVE",
"364.124 395.628 OFFCURVE",
"350 375 CURVE SMOOTH",
"274 264 LINE",
"296 232 LINE",
"415 395 LINE SMOOTH"
);
}
);
width = 535;
},
{
layerId = "E0C67D53-4E2B-482D-A2FA-71A3EC4FAED6";
width = 600;
}
);
unicode = 0078;
userData = {
com.fontlab.hintData = {
hhints = (
{
position = 0;
width = 25;
},
{
position = 455;
width = 25;
}
);
};
};
},
{
glyphname = y;
lastChange = "2018-06-30 02:45:01 +0000";
layers = (
{
anchors = (
{
name = Anchor1;
position = "{290, 580}";
}
);
layerId = "91E832AB-F615-40EB-8273-D93FE80C1C5C";
paths = (
{
closed = 1;
nodes = (
"65 -220 OFFCURVE",
"32 -200 OFFCURVE",
"32 -165 CURVE SMOOTH",
"32 -130 OFFCURVE",
"60 -112 OFFCURVE",
"90 -112 CURVE SMOOTH",
"120 -112 OFFCURVE",
"130 -136 OFFCURVE",
"160 -136 CURVE SMOOTH",
"190 -136 OFFCURVE",
"218 -70 OFFCURVE",
"238 -20 CURVE",
"65 395 LINE SMOOTH",
"50.495 429.794 OFFCURVE",
"30 450 OFFCURVE",
"0 455 CURVE",
"0 480 LINE",
"236 480 LINE",
"236 455 LINE",
"206 450 OFFCURVE",
"176 430 OFFCURVE",
"176 410 CURVE SMOOTH",
"176 380 OFFCURVE",
"186.712 360.279 OFFCURVE",
"206 310 CURVE SMOOTH",
"295 78 LINE",
"285 78 LINE",
"382 310 LINE SMOOTH",
"402.773 359.684 OFFCURVE",
"410 380 OFFCURVE",
"410 410 CURVE SMOOTH",
"410 430 OFFCURVE",
"380 450 OFFCURVE",
"350 455 CURVE",
"350 480 LINE",
"540 480 LINE",
"540 455 LINE",
"510 450 OFFCURVE",
"485 430 OFFCURVE",
"470 395 CURVE SMOOTH",
"300 0 LINE SMOOTH",
"240 -140 OFFCURVE",
"190 -220 OFFCURVE",
"110 -220 CURVE SMOOTH"
);
}
);
width = 540;
},
{
layerId = "E0C67D53-4E2B-482D-A2FA-71A3EC4FAED6";
width = 600;
}
);
unicode = 0079;
userData = {
com.fontlab.hintData = {
hhints = (
{
position = -220;
width = 110;
},
{
position = 448;
width = 32;
},
{
position = 455;
width = 25;
}
);
};
};
},
{
glyphname = z;
lastChange = "2018-06-30 02:45:01 +0000";
layers = (
{
layerId = "91E832AB-F615-40EB-8273-D93FE80C1C5C";
paths = (
{
closed = 1;
nodes = (
"30 30 LINE",
"352 465 LINE",
"367.006 440 LINE",
"219 440 LINE SMOOTH",
"130 440 OFFCURVE",
"110 400 OFFCURVE",
"90 320 CURVE",
"50 320 LINE",
"50 496 LINE",
"79.424 496 LINE",
"114.632 480 LINE",
"460 480 LINE",
"460 450 LINE",
"137 18 LINE",
"105.99 40 LINE",
"330 40 LINE SMOOTH",
"380 40 OFFCURVE",
"410 60 OFFCURVE",
"440 170 CURVE",
"480 170 LINE",
"460 0 LINE",
"30 0 LINE"
);
}
);
width = 515;
},
{
layerId = "E0C67D53-4E2B-482D-A2FA-71A3EC4FAED6";
width = 600;
}
);
unicode = 007A;
userData = {
com.fontlab.hintData = {
hhints = (
{
position = 0;
width = 40;
},
{
position = 440;
width = 40;
}
);
vhints = (
{
position = 50;
width = 40;
},
{
position = 440;
width = 40;
}
);
};
};
},
{
glyphname = braceleft;
layers = (
{
layerId = "91E832AB-F615-40EB-8273-D93FE80C1C5C";
paths = (
{
closed = 1;
nodes = (
"80 264.999 LINE",
"146 273.999 OFFCURVE",
"192 316.999 OFFCURVE",
"192 368.999 CURVE SMOOTH",
"192 417.012 OFFCURVE",
"169 465.658 OFFCURVE",
"169 519 CURVE SMOOTH",
"169 614 OFFCURVE",
"245 693 OFFCURVE",
"352 707 CURVE",
"352 674 LINE",
"277.514 658.274 OFFCURVE",
"246 621.033 OFFCURVE",
"246 578 CURVE SMOOTH",
"246 532.722 OFFCURVE",
"264 490.701 OFFCURVE",
"264 424 CURVE SMOOTH",
"264 353 OFFCURVE",
"215.777 287 OFFCURVE",
"140 254 CURVE",
"215.777 221 OFFCURVE",
"264 155 OFFCURVE",
"264 84 CURVE SMOOTH",
"264 17.241 OFFCURVE",
"246 -24.666 OFFCURVE",
"246 -70 CURVE SMOOTH",
"246 -113.034 OFFCURVE",
"277.514 -150.275 OFFCURVE",
"352 -166 CURVE",
"352 -199 LINE",
"245 -185 OFFCURVE",
"169 -106 OFFCURVE",
"169 -11 CURVE SMOOTH",
"169 42.056 OFFCURVE",
"192 91.969 OFFCURVE",
"192 139 CURVE SMOOTH",
"192 191 OFFCURVE",
"146 234 OFFCURVE",
"80 243 CURVE"
);
}
);
width = 392;
}
);
unicode = 007B;
userData = {
com.fontlab.hintData = {
hhints = (
{
position = -199;
width = 33;
},
{
position = 243;
width = 22;
},
{
position = 674;
width = 33;
}
);
vhints = (
{
position = 169;
width = 77;
},
{
position = 192;
width = 72;
}
);
};
};
},
{
glyphname = bar;
layers = (
{
layerId = "91E832AB-F615-40EB-8273-D93FE80C1C5C";
paths = (
{
closed = 1;
nodes = (
"150 -200 LINE",
"80 -200 LINE",
"80 700 LINE",
"150 700 LINE"
);
}
);
width = 230;
}
);
unicode = 007C;
userData = {
com.fontlab.hintData = {
hhints = (
{
position = 680;
width = 20;
}
);
vhints = (
{
position = 80;
width = 70;
}
);
};
};
},
{
glyphname = braceright;
layers = (
{
layerId = "91E832AB-F615-40EB-8273-D93FE80C1C5C";
paths = (
{
closed = 1;
nodes = (
"246 234 OFFCURVE",
"200 191 OFFCURVE",
"200 139 CURVE SMOOTH",
"200 92 OFFCURVE",
"223 42 OFFCURVE",
"223 -11 CURVE SMOOTH",
"223 -106 OFFCURVE",
"147 -185 OFFCURVE",
"40 -199 CURVE",
"40 -166 LINE",
"114 -150 OFFCURVE",
"146 -113 OFFCURVE",
"146 -70 CURVE SMOOTH",
"146 -25 OFFCURVE",
"128 17 OFFCURVE",
"128 84 CURVE SMOOTH",
"128 155 OFFCURVE",
"176 221 OFFCURVE",
"252 254 CURVE",
"176 287 OFFCURVE",
"128 353 OFFCURVE",
"128 424 CURVE SMOOTH",
"128 491 OFFCURVE",
"146 533 OFFCURVE",
"146 578 CURVE SMOOTH",
"146 621 OFFCURVE",
"114 658 OFFCURVE",
"40 674 CURVE",
"40 707 LINE",
"147 693 OFFCURVE",
"223 614 OFFCURVE",
"223 519 CURVE SMOOTH",
"223 466 OFFCURVE",
"200 417 OFFCURVE",
"200 369 CURVE SMOOTH",
"200 317 OFFCURVE",
"246 274 OFFCURVE",
"312 265 CURVE",
"312 243 LINE"
);
}
);
width = 392;
}
);
unicode = 007D;
userData = {
com.fontlab.hintData = {
hhints = (
{
position = -199;
width = 33;
},
{
position = 243;
width = 22;
},
{
position = 674;
width = 33;
}
);
vhints = (
{
position = 128;
width = 72;
},
{
position = 146;
width = 77;
}
);
};
};
},
{
glyphname = asciitilde;
layers = (
{
layerId = "91E832AB-F615-40EB-8273-D93FE80C1C5C";
paths = (
{
closed = 1;
nodes = (
"500 405 LINE",
"497 304.931 OFFCURVE",
"446 242 OFFCURVE",
"369 242 CURVE SMOOTH",
"330 242 OFFCURVE",
"308 249 OFFCURVE",
"185 300 CURVE SMOOTH",
"133 322 OFFCURVE",
"106 330 OFFCURVE",
"83 330 CURVE SMOOTH",
"41.14 330 OFFCURVE",
"15.849 302.667 OFFCURVE",
"8 248 CURVE",
"-32 248 LINE",
"-29 297 OFFCURVE",
"-22 325 OFFCURVE",
"-5 351 CURVE SMOOTH",
"18 389.182 OFFCURVE",
"56 411 OFFCURVE",
"95 411 CURVE SMOOTH",
"122 411 OFFCURVE",
"143 406 OFFCURVE",
"185 391 CURVE SMOOTH",
"209 382 OFFCURVE",
"251 366 OFFCURVE",
"282 352 CURVE SMOOTH",
"337 327 OFFCURVE",
"362 321 OFFCURVE",
"386 321 CURVE SMOOTH",
"428.732 321 OFFCURVE",
"455.768 352.146 OFFCURVE",
"461 405 CURVE"
);
}
);
width = 469;
}
);
unicode = 007E;
userData = {
com.fontlab.hintData = {
hhints = (
{
position = 242;
width = 79;
},
{
position = 330;
width = 81;
}
);
vhints = (
{
position = -32;
width = 40;
},
{
position = 461;
width = 39;
}
);
};
};
},
{
glyphname = exclamdown;
layers = (
{
layerId = "91E832AB-F615-40EB-8273-D93FE80C1C5C";
paths = (
{
closed = 1;
nodes = (
"120 550 OFFCURVE",
"80 515 OFFCURVE",
"80 465 CURVE SMOOTH",
"80 415 OFFCURVE",
"120 380 OFFCURVE",
"165 380 CURVE SMOOTH",
"210 380 OFFCURVE",
"250 415 OFFCURVE",
"250 465 CURVE SMOOTH",
"250 515 OFFCURVE",
"210 550 OFFCURVE",
"165 550 CURVE SMOOTH"
);
},
{
closed = 1;
nodes = (
"130 290 LINE",
"90 -110 LINE",
"90 -160 LINE SMOOTH",
"90 -196 OFFCURVE",
"130.385 -220 OFFCURVE",
"165 -220 CURVE SMOOTH",
"196.385 -220 OFFCURVE",
"233 -196 OFFCURVE",
"233 -160 CURVE SMOOTH",
"233 -110 LINE",
"200 290 LINE"
);
}
);
width = 330;
}
);
unicode = 00A1;
userData = {
com.fontlab.hintData = {
hhints = (
{
position = 380;
width = 170;
}
);
vhints = (
{
position = 80;
width = 170;
},
{
position = 90;
width = 143;
}
);
};
};
},
{
glyphname = cent;
layers = (
{
layerId = "91E832AB-F615-40EB-8273-D93FE80C1C5C";
paths = (
{
closed = 1;
nodes = (
"420 45 OFFCURVE",
"360 -15 OFFCURVE",
"255 -15 CURVE SMOOTH",
"225.186 -15 OFFCURVE",
"196.011 -9.686 OFFCURVE",
"169.246 1.415 CURVE",
"127 -120 LINE",
"83 -120 LINE",
"132.285 21.647 LINE",
"77.7 59.853 OFFCURVE",
"40 129.125 OFFCURVE",
"40 235 CURVE SMOOTH",
"40 395 OFFCURVE",
"155 495 OFFCURVE",
"280 495 CURVE SMOOTH",
"285.678 495 OFFCURVE",
"291.296 494.861 OFFCURVE",
"296.84 494.58 CURVE",
"337 610 LINE",
"381 610 LINE",
"339.01 489.32 LINE",
"400.542 476.512 OFFCURVE",
"445 441.593 OFFCURVE",
"445 380 CURVE SMOOTH",
"445 340 OFFCURVE",
"420 320 OFFCURVE",
"390 320 CURVE SMOOTH",
"369 320 OFFCURVE",
"350 325 OFFCURVE",
"335 335 CURVE",
"335 380 LINE SMOOTH",
"335 401.354 OFFCURVE",
"329.37 419.331 OFFCURVE",
"319.179 432.327 CURVE",
"203.504 99.872 LINE",
"231.528 69.114 OFFCURVE",
"267.721 55 OFFCURVE",
"305 55 CURVE SMOOTH",
"350 55 OFFCURVE",
"410 85 OFFCURVE",
"435 110 CURVE",
"455 90 LINE"
);
},
{
closed = 1;
nodes = (
"278.654 454.634 OFFCURVE",
"274.419 455 OFFCURVE",
"270 455 CURVE SMOOTH",
"220 455 OFFCURVE",
"150 405 OFFCURVE",
"150 275 CURVE SMOOTH",
"150 220.492 OFFCURVE",
"159.275 177.114 OFFCURVE",
"174.781 143.78 CURVE",
"282.693 453.922 LINE"
);
}
);
width = 475;
}
);
unicode = 00A2;
userData = {
com.fontlab.hintData = {
hhints = (
{
position = -15;
width = 70;
},
{
position = 455;
width = 40;
}
);
vhints = (
{
position = 40;
width = 110;
},
{
position = 335;
width = 110;
}
);
};
};
},
{
glyphname = sterling;
layers = (
{
layerId = "91E832AB-F615-40EB-8273-D93FE80C1C5C";
paths = (
{
closed = 1;
nodes = (
"33.333 -113.479 OFFCURVE",
"66.871 -78.202 OFFCURVE",
"120.666 -48.33 CURVE",
"135.909 56.003 OFFCURVE",
"139.063 92.003 OFFCURVE",
"161.666 174.003 CURVE",
"64.666 174.003 LINE",
"72.166 218.17 LINE",
"172.999 218.17 LINE",
"195.11 300.521 OFFCURVE",
"212.999 360.002 OFFCURVE",
"238.999 425.002 CURVE SMOOTH",
"304.601 596.702 OFFCURVE",
"385.224 715.002 OFFCURVE",
"506.333 715.002 CURVE SMOOTH",
"581.492 715.002 OFFCURVE",
"632.833 687.168 OFFCURVE",
"632.833 648.501 CURVE SMOOTH",
"632.833 614.185 OFFCURVE",
"615.269 600.369 OFFCURVE",
"595 600.369 CURVE SMOOTH",
"580 600.369 OFFCURVE",
"563.284 608.729 OFFCURVE",
"551.333 622.417 CURVE SMOOTH",
"531.746 644.852 OFFCURVE",
"508.623 667.834 OFFCURVE",
"469 667.834 CURVE SMOOTH",
"393.759 667.834 OFFCURVE",
"366.268 543.542 OFFCURVE",
"332.619 380.001 CURVE SMOOTH",
"321.637 329.033 OFFCURVE",
"309.165 274.22 OFFCURVE",
"294.167 218.168 CURVE",
"427.167 218.168 LINE",
"417 174.001 LINE",
"282 174.001 LINE",
"258.02 86.388 OFFCURVE",
"244.098 51.969 OFFCURVE",
"204 -20 CURVE",
"233.313 -11.362 OFFCURVE",
"248.5 -9.666 OFFCURVE",
"270.5 -9.666 CURVE SMOOTH",
"380.01 -9.666 OFFCURVE",
"424.113 -118.166 OFFCURVE",
"502.168 -118.166 CURVE SMOOTH",
"525.888 -118.166 OFFCURVE",
"544.834 -104.712 OFFCURVE",
"544.834 -88.666 CURVE SMOOTH",
"544.834 -56.333 OFFCURVE",
"510.698 -43.006 OFFCURVE",
"509.001 -15 CURVE SMOOTH",
"507.334 12.5 OFFCURVE",
"528.334 36.167 OFFCURVE",
"554.667 36.167 CURVE SMOOTH",
"584 36.167 OFFCURVE",
"606.833 8.5 OFFCURVE",
"606.833 -27.833 CURVE SMOOTH",
"606.833 -143.833 OFFCURVE",
"505.833 -192.666 OFFCURVE",
"447 -192.666 CURVE SMOOTH",
"346.669 -192.666 OFFCURVE",
"300 -75.507 OFFCURVE",
"202 -75.507 CURVE SMOOTH",
"193.062 -75.507 OFFCURVE",
"183.7 -76.31 OFFCURVE",
"173.833 -78.333 CURVE",
"135 -155.833 OFFCURVE",
"99.333 -190.833 OFFCURVE",
"71.5 -190.833 CURVE SMOOTH",
"51 -190.833 OFFCURVE",
"33.333 -173.833 OFFCURVE",
"33.333 -152.333 CURVE SMOOTH"
);
}
);
width = 677;
}
);
unicode = 00A3;
userData = {
com.fontlab.hintData = {
hhints = (
{
position = -193;
width = 74;
},
{
position = -76;
width = 66;
},
{
position = 174;
width = 44;
},
{
position = 668;
width = 47;
}
);
vhints = (
{
position = 545;
width = 62;
}
);
};
};
},
{
glyphname = currency;
layers = (
{
layerId = "91E832AB-F615-40EB-8273-D93FE80C1C5C";
paths = (
{
closed = 1;
nodes = (
"184.334 243.002 OFFCURVE",
"252.001 175.335 OFFCURVE",
"334.668 175.335 CURVE SMOOTH",
"416.668 175.335 OFFCURVE",
"484.334 242.669 OFFCURVE",
"484.334 325.669 CURVE SMOOTH",
"484.334 407.669 OFFCURVE",
"416.668 475.335 OFFCURVE",
"334.668 475.335 CURVE SMOOTH",
"252.001 475.335 OFFCURVE",
"184.334 407.669 OFFCURVE",
"184.334 325.669 CURVE SMOOTH"
);
},
{
closed = 1;
nodes = (
"159.001 195.335 LINE",
"126.668 242.002 OFFCURVE",
"115.668 275.335 OFFCURVE",
"115.668 325.335 CURVE SMOOTH",
"115.668 374.668 OFFCURVE",
"126.668 408.001 OFFCURVE",
"159.001 456.001 CURVE",
"95.334 518.668 LINE",
"141.001 564 LINE",
"204.334 501.001 LINE",
"252.334 533 OFFCURVE",
"284.668 544 OFFCURVE",
"333.668 544 CURVE SMOOTH",
"384.335 544 OFFCURVE",
"416.668 533 OFFCURVE",
"464.668 500.334 CURVE",
"527.668 564 LINE",
"572.668 518.668 LINE",
"509.668 455.334 LINE",
"542 408.334 OFFCURVE",
"553 374.334 OFFCURVE",
"553 324.668 CURVE SMOOTH",
"553 275.334 OFFCURVE",
"542 242.001 OFFCURVE",
"509.668 195.334 CURVE",
"572.668 132.334 LINE",
"527.668 87 LINE",
"464.668 149.334 LINE",
"417.334 117.334 OFFCURVE",
"385.001 106.667 OFFCURVE",
"335.334 106.667 CURVE SMOOTH",
"284.667 106.667 OFFCURVE",
"251 118.334 OFFCURVE",
"204.333 149.667 CURVE",
"141 87 LINE",
"95.333 132.333 LINE"
);
}
);
width = 630;
}
);
unicode = 00A4;
userData = {
com.fontlab.hintData = {
hhints = (
{
position = 107;
width = 69;
},
{
position = 475;
width = 69;
}
);
vhints = (
{
position = 116;
width = 69;
},
{
position = 484;
width = 69;
}
);
};
};
},
{
glyphname = yen;
layers = (
{
layerId = "91E832AB-F615-40EB-8273-D93FE80C1C5C";
paths = (
{
closed = 1;
nodes = (
"320 670 LINE",
"289 650 LINE SMOOTH",
"278.591 643.284 OFFCURVE",
"274 624 OFFCURVE",
"282 610 CURVE SMOOTH",
"344.569 506 LINE",
"509.659 506 LINE",
"568 610 LINE SMOOTH",
"576 626 OFFCURVE",
"573.448 644.621 OFFCURVE",
"560 650 CURVE SMOOTH",
"510 670 LINE",
"510 700 LINE",
"725 700 LINE",
"725 670 LINE",
"680 650 LINE SMOOTH",
"649.438 636.417 OFFCURVE",
"634.615 615 OFFCURVE",
"621 593 CURVE SMOOTH",
"569.75 506 LINE",
"705 506 LINE",
"705 466 LINE",
"546.187 466 LINE",
"457.825 316 LINE",
"705 316 LINE",
"705 276 LINE",
"451 276 LINE",
"451 90 LINE SMOOTH",
"451 70 OFFCURVE",
"461 55 OFFCURVE",
"481 50 CURVE SMOOTH",
"561 30 LINE",
"561 0 LINE",
"231 0 LINE",
"231 30 LINE",
"311 50 LINE SMOOTH",
"331 55 OFFCURVE",
"341 70 OFFCURVE",
"341 90 CURVE SMOOTH",
"341 276 LINE",
"60 276 LINE",
"60 316 LINE",
"326.704 316 LINE",
"228.896 466 LINE",
"60 466 LINE",
"60 506 LINE",
"202.814 506 LINE",
"135 610 LINE SMOOTH",
"120.857 628 OFFCURVE",
"105.646 637.177 OFFCURVE",
"80 650 CURVE SMOOTH",
"40 670 LINE",
"40 700 LINE",
"320 700 LINE"
);
},
{
closed = 1;
nodes = (
"430 364 LINE",
"487.22 466 LINE",
"368.634 466 LINE"
);
}
);
width = 765;
}
);
unicode = 00A5;
userData = {
com.fontlab.hintData = {
hhints = (
{
position = 0;
width = 30;
},
{
position = 245;
width = 77;
},
{
position = 276;
width = 40;
},
{
position = 466;
width = 40;
},
{
position = 680;
width = 20;
}
);
vhints = (
{
position = 341;
width = 110;
}
);
};
};
},
{
glyphname = brokenbar;
layers = (
{
layerId = "91E832AB-F615-40EB-8273-D93FE80C1C5C";
paths = (
{
closed = 1;
nodes = (
"150 -200 LINE",
"80 -200 LINE",
"80 103 LINE",
"150 103 LINE"
);
},
{
closed = 1;
nodes = (
"150 396 LINE",
"80 396 LINE",
"80 700 LINE",
"150 700 LINE"
);
}
);
width = 230;
}
);
unicode = 00A6;
userData = {
com.fontlab.hintData = {
hhints = (
{
position = 680;
width = 20;
}
);
vhints = (
{
position = 80;
width = 70;
}
);
};
};
},
{
glyphname = section;
layers = (
{
layerId = "91E832AB-F615-40EB-8273-D93FE80C1C5C";
paths = (
{
closed = 1;
nodes = (
"334.971 -26.838 OFFCURVE",
"348.174 22.533 OFFCURVE",
"348.174 72 CURVE SMOOTH",
"348.174 116 OFFCURVE",
"340.021 163.13 OFFCURVE",
"319.5 203 CURVE SMOOTH",
"306.025 229.18 OFFCURVE",
"286.938 258.296 OFFCURVE",
"264.781 292 CURVE SMOOTH",
"245.88 320.752 OFFCURVE",
"222.765 357.329 OFFCURVE",
"202.715 388 CURVE SMOOTH",
"158.318 455.915 OFFCURVE",
"120.902 512.99 OFFCURVE",
"137 598 CURVE",
"108.114 563.804 OFFCURVE",
"94.922 520.368 OFFCURVE",
"94.922 480 CURVE SMOOTH",
"94.922 420.345 OFFCURVE",
"107.917 357.703 OFFCURVE",
"132.5 304 CURVE SMOOTH",
"154.167 256.667 OFFCURVE",
"186.689 199.95 OFFCURVE",
"227 132 CURVE SMOOTH",
"276.721 48.188 OFFCURVE",
"316.36 2.86 OFFCURVE",
"308 -70 CURVE"
);
},
{
closed = 1;
nodes = (
"117.737 -181.371 OFFCURVE",
"62 -147.865 OFFCURVE",
"62 -84 CURVE SMOOTH",
"62 -42.25 OFFCURVE",
"88.59 -6 OFFCURVE",
"132 -6 CURVE SMOOTH",
"156.714 -6 OFFCURVE",
"171.702 -12.3 OFFCURVE",
"171.702 -24 CURVE SMOOTH",
"171.702 -29.571 OFFCURVE",
"168.11 -36.136 OFFCURVE",
"161 -43.5 CURVE SMOOTH",
"151.667 -53.167 OFFCURVE",
"147 -66.333 OFFCURVE",
"147 -83 CURVE SMOOTH",
"147 -119.212 OFFCURVE",
"178.593 -144 OFFCURVE",
"214 -144 CURVE SMOOTH",
"259.7 -144 OFFCURVE",
"280.704 -103.113 OFFCURVE",
"266 -59 CURVE SMOOTH",
"245.262 3.216 OFFCURVE",
"204.837 64.623 OFFCURVE",
"160 130 CURVE SMOOTH",
"126.923 184.463 OFFCURVE",
"98.188 235.674 OFFCURVE",
"77.5 282.5 CURVE SMOOTH",
"53.796 336.154 OFFCURVE",
"40 401.171 OFFCURVE",
"40 459 CURVE SMOOTH",
"40 502 OFFCURVE",
"50.227 547.047 OFFCURVE",
"72.5 582 CURVE SMOOTH",
"110.749 642.022 OFFCURVE",
"178 680 OFFCURVE",
"269 680 CURVE SMOOTH",
"329.285 680 OFFCURVE",
"385 644.865 OFFCURVE",
"385 581 CURVE SMOOTH",
"385 538.18 OFFCURVE",
"358.41 501 OFFCURVE",
"315 501 CURVE SMOOTH",
"290.95 501 OFFCURVE",
"275.292 508 OFFCURVE",
"275.292 520 CURVE SMOOTH",
"275.292 525.777 OFFCURVE",
"278.459 532.69 OFFCURVE",
"286 540.5 CURVE SMOOTH",
"295.333 550.167 OFFCURVE",
"300 563.333 OFFCURVE",
"300 580 CURVE SMOOTH",
"300 616.212 OFFCURVE",
"268.407 641 OFFCURVE",
"233 641 CURVE SMOOTH",
"197.455 641 OFFCURVE",
"177.657 617.238 OFFCURVE",
"177.657 584 CURVE SMOOTH",
"177.657 559.203 OFFCURVE",
"185.575 543.791 OFFCURVE",
"197 524.5 CURVE SMOOTH",
"224.177 478.609 OFFCURVE",
"255.251 422.782 OFFCURVE",
"284 379 CURVE SMOOTH",
"320.335 323.665 OFFCURVE",
"350.22 273.212 OFFCURVE",
"372.5 226.5 CURVE SMOOTH",
"393.306 182.88 OFFCURVE",
"406 135.978 OFFCURVE",
"406 90 CURVE SMOOTH",
"406 49.231 OFFCURVE",
"397.231 -32.054 OFFCURVE",
"367 -81 CURVE SMOOTH",
"325 -149 OFFCURVE",
"261.97 -185.27 OFFCURVE",
"178 -183 CURVE SMOOTH"
);
}
);
width = 446;
}
);
unicode = 00A7;
userData = {
com.fontlab.hintData = {
hhints = (
{
position = -183;
width = 39;
},
{
position = -26;
width = 20;
},
{
position = 641;
width = 39;
}
);
vhints = (
{
position = 40;
width = 55;
},
{
position = 62;
width = 85;
},
{
position = 300;
width = 85;
},
{
position = 348;
width = 58;
}
);
};
};
},
{
glyphname = dieresis;
layers = (
{
layerId = "91E832AB-F615-40EB-8273-D93FE80C1C5C";
paths = (
{
closed = 1;
nodes = (
"130.399 691.3 OFFCURVE",
"156.8 664.899 OFFCURVE",
"156.8 633 CURVE SMOOTH",
"156.8 601.101 OFFCURVE",
"130.399 574.7 OFFCURVE",
"98.5 574.7 CURVE SMOOTH",
"66.6 574.7 OFFCURVE",
"40.199 601.101 OFFCURVE",
"40.199 633 CURVE SMOOTH",
"40.199 664.899 OFFCURVE",
"66.6 691.3 OFFCURVE",
"98.5 691.3 CURVE SMOOTH"
);
},
{
closed = 1;
nodes = (
"319.6 691.3 OFFCURVE",
"346 664.899 OFFCURVE",
"346 633 CURVE SMOOTH",
"346 601.101 OFFCURVE",
"319.6 574.7 OFFCURVE",
"287.699 574.7 CURVE SMOOTH",
"255.8 574.7 OFFCURVE",
"229.399 601.101 OFFCURVE",
"229.399 633 CURVE SMOOTH",
"229.399 664.899 OFFCURVE",
"255.8 691.3 OFFCURVE",
"287.699 691.3 CURVE SMOOTH"
);
}
);
width = 386;
}
);
unicode = 00A8;
userData = {
com.fontlab.hintData = {
hhints = (
{
position = 575;
width = 117;
}
);
vhints = (
{
position = 40;
width = 117;
},
{
position = 229;
width = 117;
}
);
};
};
},
{
glyphname = copyright;
layers = (
{
layerId = "91E832AB-F615-40EB-8273-D93FE80C1C5C";
paths = (
{
closed = 1;
nodes = (
"380.29 103.55 LINE SMOOTH",
"274.758 103.55 OFFCURVE",
"164.2 175.846 OFFCURVE",
"164.2 329.09 CURVE SMOOTH",
"164.2 460.183 OFFCURVE",
"251.53 563.45 OFFCURVE",
"393.52 563.45 CURVE SMOOTH",
"447.992 563.45 OFFCURVE",
"494.092 545.994 OFFCURVE",
"532.12 516.83 CURVE",
"532.12 424.22 LINE",
"504.4 424.22 LINE",
"488.372 504.206 OFFCURVE",
"441.581 538.25 OFFCURVE",
"395.41 538.25 CURVE SMOOTH",
"384.7 538.25 LINE SMOOTH",
"268.018 538.25 OFFCURVE",
"239.8 423.943 OFFCURVE",
"239.8 342.95 CURVE SMOOTH",
"239.8 186.044 OFFCURVE",
"311.803 128.75 OFFCURVE",
"389.11 128.75 CURVE SMOOTH",
"395.41 128.75 LINE SMOOTH",
"441.581 128.75 OFFCURVE",
"488.372 162.794 OFFCURVE",
"504.4 242.78 CURVE",
"532.12 242.78 LINE",
"532.12 150.17 LINE",
"494.092 121.006 OFFCURVE",
"447.992 103.55 OFFCURVE",
"393.52 103.55 CURVE SMOOTH"
);
},
{
closed = 1;
nodes = (
"695 510 OFFCURVE",
"554 651 OFFCURVE",
"380 651 CURVE SMOOTH",
"206 651 OFFCURVE",
"65 510 OFFCURVE",
"65 336 CURVE SMOOTH",
"65 162 OFFCURVE",
"206 21 OFFCURVE",
"380 21 CURVE SMOOTH",
"554 21 OFFCURVE",
"695 162 OFFCURVE",
"695 336 CURVE SMOOTH"
);
},
{
closed = 1;
nodes = (
"726 145 OFFCURVE",
"571 -10 OFFCURVE",
"380 -10 CURVE SMOOTH",
"189 -10 OFFCURVE",
"34 145 OFFCURVE",
"34 336 CURVE SMOOTH",
"34 527 OFFCURVE",
"189 682 OFFCURVE",
"380 682 CURVE SMOOTH",
"571 682 OFFCURVE",
"726 527 OFFCURVE",
"726 336 CURVE SMOOTH"
);
}
);
width = 760;
}
);
unicode = 00A9;
userData = {
com.fontlab.hintData = {
hhints = (
{
position = -10;
width = 31;
},
{
position = 104;
width = 25;
},
{
position = 424;
width = 21;
},
{
position = 538;
width = 25;
},
{
position = 651;
width = 31;
}
);
vhints = (
{
position = 34;
width = 31;
},
{
position = 164;
width = 76;
},
{
position = 504;
width = 28;
},
{
position = 695;
width = 31;
}
);
};
};
},
{
glyphname = ordfeminine;
lastChange = "2018-06-30 02:45:01 +0000";
layers = (
{
layerId = "91E832AB-F615-40EB-8273-D93FE80C1C5C";
paths = (
{
closed = 1;
nodes = (
"213 391 OFFCURVE",
"189 403 OFFCURVE",
"183 433 CURVE",
"165 403 OFFCURVE",
"141 388 OFFCURVE",
"105 388 CURVE SMOOTH",
"57 388 OFFCURVE",
"21 424 OFFCURVE",
"21 472 CURVE SMOOTH",
"21 532 OFFCURVE",
"93 550 OFFCURVE",
"183 580 CURVE",
"183 637 LINE SMOOTH",
"183 667 OFFCURVE",
"162 679 OFFCURVE",
"138 679 CURVE SMOOTH",
"113.751 679 OFFCURVE",
"91.729 669.202 OFFCURVE",
"91.729 649.6 CURVE SMOOTH",
"91.729 644.8 OFFCURVE",
"93.124 639.751 OFFCURVE",
"96 634 CURVE SMOOTH",
"105 616 LINE",
"93 604 OFFCURVE",
"75 598 OFFCURVE",
"63 598 CURVE SMOOTH",
"45 598 OFFCURVE",
"39 616 OFFCURVE",
"39 634 CURVE SMOOTH",
"39 658 OFFCURVE",
"69 700 OFFCURVE",
"153 700 CURVE SMOOTH",
"225 700 OFFCURVE",
"243 658 OFFCURVE",
"243 622 CURVE SMOOTH",
"243 454 LINE SMOOTH",
"243 436 OFFCURVE",
"255 427 OFFCURVE",
"264 427 CURVE SMOOTH",
"273 427 OFFCURVE",
"285 430 OFFCURVE",
"291 436 CURVE",
"303 424 LINE",
"291 406 OFFCURVE",
"273 391 OFFCURVE",
"243 391 CURVE SMOOTH"
);
},
{
closed = 1;
nodes = (
"183 559 LINE",
"105 529 OFFCURVE",
"84 514 OFFCURVE",
"84 478 CURVE SMOOTH",
"84 454 OFFCURVE",
"99 430 OFFCURVE",
"135 430 CURVE SMOOTH",
"168 430 OFFCURVE",
"183 454 OFFCURVE",
"183 490 CURVE SMOOTH"
);
}
);
width = 313;
},
{
layerId = "E0C67D53-4E2B-482D-A2FA-71A3EC4FAED6";
width = 600;
}
);
unicode = 00AA;
userData = {
com.fontlab.hintData = {
hhints = (
{
position = 388;
width = 42;
},
{
position = 679;
width = 21;
}
);
vhints = (
{
position = 21;
width = 63;
},
{
position = 39;
width = 53;
},
{
position = 183;
width = 60;
}
);
};
};
},
{
glyphname = logicalnot;
layers = (
{
layerId = "91E832AB-F615-40EB-8273-D93FE80C1C5C";
paths = (
{
closed = 1;
nodes = (
"601 480 LINE",
"601 179 LINE",
"531 179 LINE",
"531 410 LINE",
"66 410 LINE",
"66 480 LINE"
);
}
);
width = 667;
}
);
unicode = 00AC;
userData = {
com.fontlab.hintData = {
hhints = (
{
position = 410;
width = 70;
}
);
vhints = (
{
position = 531;
width = 70;
}
);
};
};
},
{
glyphname = registered;
layers = (
{
layerId = "91E832AB-F615-40EB-8273-D93FE80C1C5C";
paths = (
{
closed = 1;
nodes = (
"695 510 OFFCURVE",
"554 651 OFFCURVE",
"380 651 CURVE SMOOTH",
"206 651 OFFCURVE",
"65 510 OFFCURVE",
"65 336 CURVE SMOOTH",
"65 162 OFFCURVE",
"206 21 OFFCURVE",
"380 21 CURVE SMOOTH",
"554 21 OFFCURVE",
"695 162 OFFCURVE",
"695 336 CURVE SMOOTH"
);
},
{
closed = 1;
nodes = (
"726 145 OFFCURVE",
"571 -10 OFFCURVE",
"380 -10 CURVE SMOOTH",
"189 -10 OFFCURVE",
"34 145 OFFCURVE",
"34 336 CURVE SMOOTH",
"34 527 OFFCURVE",
"189 682 OFFCURVE",
"380 682 CURVE SMOOTH",
"571 682 OFFCURVE",
"726 527 OFFCURVE",
"726 336 CURVE SMOOTH"
);
},
{
closed = 1;
nodes = (
"306.15 193.975 LINE SMOOTH",
"306.15 182.425 OFFCURVE",
"311.925 173.763 OFFCURVE",
"323.475 170.875 CURVE SMOOTH",
"369.675 159.325 LINE",
"369.675 142 LINE",
"179.1 142 LINE",
"179.1 159.325 LINE",
"225.3 170.875 LINE SMOOTH",
"236.85 173.763 OFFCURVE",
"242.625 182.425 OFFCURVE",
"242.625 193.975 CURVE SMOOTH",
"242.625 494.275 LINE SMOOTH",
"242.625 505.825 OFFCURVE",
"236.85 514.487 OFFCURVE",
"225.3 517.375 CURVE SMOOTH",
"179.1 528.925 LINE",
"179.1 546.25 LINE",
"375.45 546.25 LINE SMOOTH",
"485.175 546.25 OFFCURVE",
"519.825 500.05 OFFCURVE",
"519.825 436.525 CURVE SMOOTH",
"519.825 375.429 OFFCURVE",
"481.578 329.63 OFFCURVE",
"420.647 314.694 CURVE",
"529.065 192.82 LINE",
"554.852 174.119 OFFCURVE",
"575.731 159.325 OFFCURVE",
"601.253 159.325 CURVE",
"601.253 142 LINE",
"490.624 142 LINE SMOOTH",
"482.881 142 OFFCURVE",
"465.887 158.568 OFFCURVE",
"450.449 175.096 CURVE SMOOTH",
"331.554 309.475 LINE",
"306.15 309.475 LINE"
);
},
{
closed = 1;
nodes = (
"362.168 336.617 LINE SMOOTH",
"426.848 336.617 OFFCURVE",
"450.525 384.707 OFFCURVE",
"450.525 436.525 CURVE SMOOTH",
"450.525 489.077 OFFCURVE",
"421.65 523.15 OFFCURVE",
"358.125 523.15 CURVE SMOOTH",
"329.25 523.15 LINE SMOOTH",
"317.7 523.15 OFFCURVE",
"306.15 517.375 OFFCURVE",
"306.15 500.05 CURVE SMOOTH",
"306.15 336.617 LINE",
"340.8 336.617 LINE"
);
}
);
width = 760;
}
);
unicode = 00AE;
userData = {
com.fontlab.hintData = {
hhints = (
{
position = -10;
width = 31;
},
{
position = 142;
width = 17;
},
{
position = 309;
width = 27;
},
{
position = 315;
width = 21;
},
{
position = 523;
width = 23;
},
{
position = 529;
width = 17;
},
{
position = 651;
width = 31;
}
);
vhints = (
{
position = 34;
width = 31;
},
{
position = 243;
width = 64;
},
{
position = 451;
width = 69;
},
{
position = 695;
width = 31;
}
);
};
};
},
{
glyphname = macron;
layers = (
{
layerId = "91E832AB-F615-40EB-8273-D93FE80C1C5C";
paths = (
{
closed = 1;
nodes = (
"322 650 LINE",
"322 580 LINE",
"11 580 LINE",
"11 650 LINE"
);
}
);
width = 333;
}
);
unicode = 00AF;
userData = {
com.fontlab.hintData = {
hhints = (
{
position = 580;
width = 70;
}
);
vhints = (
{
position = 11;
width = 311;
}
);
};
};
},
{
glyphname = degree;
layers = (
{
layerId = "91E832AB-F615-40EB-8273-D93FE80C1C5C";
paths = (
{
closed = 1;
nodes = (
"292 605 OFFCURVE",
"245 652 OFFCURVE",
"190 652 CURVE SMOOTH",
"135 652 OFFCURVE",
"88 605 OFFCURVE",
"88 550 CURVE SMOOTH",
"88 495 OFFCURVE",
"135 448 OFFCURVE",
"190 448 CURVE SMOOTH",
"245 448 OFFCURVE",
"292 495 OFFCURVE",
"292 550 CURVE SMOOTH"
);
},
{
closed = 1;
nodes = (
"340 467 OFFCURVE",
"273 400 OFFCURVE",
"190 400 CURVE SMOOTH",
"107 400 OFFCURVE",
"40 467 OFFCURVE",
"40 550 CURVE SMOOTH",
"40 633 OFFCURVE",
"107 700 OFFCURVE",
"190 700 CURVE SMOOTH",
"273 700 OFFCURVE",
"340 633 OFFCURVE",
"340 550 CURVE SMOOTH"
);
}
);
width = 380;
}
);
unicode = 00B0;
userData = {
com.fontlab.hintData = {
hhints = (
{
position = 400;
width = 48;
},
{
position = 652;
width = 48;
}
);
vhints = (
{
position = 40;
width = 48;
},
{
position = 292;
width = 48;
}
);
};
};
},
{
glyphname = plusminus;
layers = (
{
layerId = "91E832AB-F615-40EB-8273-D93FE80C1C5C";
paths = (
{
closed = 1;
nodes = (
"298 469 LINE",
"298 698 LINE",
"368 698 LINE",
"368 469 LINE",
"597 469 LINE",
"597 399 LINE",
"368 399 LINE",
"368 170 LINE",
"298 170 LINE",
"298 399 LINE",
"69 399 LINE",
"69 469 LINE"
);
},
{
closed = 1;
nodes = (
"69 70 LINE",
"597 70 LINE",
"597 0 LINE",
"69 0 LINE"
);
}
);
width = 667;
}
);
unicode = 00B1;
userData = {
com.fontlab.hintData = {
hhints = (
{
position = 0;
width = 70;
},
{
position = 399;
width = 70;
}
);
vhints = (
{
position = 298;
width = 70;
}
);
};
};
},
{
glyphname = acute;
layers = (
{
layerId = "91E832AB-F615-40EB-8273-D93FE80C1C5C";
paths = (
{
closed = 1;
nodes = (
"90 580 LINE",
"60 580 LINE",
"110 750 LINE",
"230 750 LINE"
);
}
);
width = 290;
}
);
unicode = 00B4;
userData = {
com.fontlab.hintData = {
hhints = (
{
position = 580;
width = 170;
}
);
vhints = (
{
position = 60;
width = 170;
}
);
};
};
},
{
glyphname = mu;
layers = (
{
layerId = "91E832AB-F615-40EB-8273-D93FE80C1C5C";
paths = (
{
closed = 1;
nodes = (
"172 480 LINE",
"172 175 LINE SMOOTH",
"172 87.67 OFFCURVE",
"196.893 52 OFFCURVE",
"252 52 CURVE SMOOTH",
"296.555 52 OFFCURVE",
"342.962 72.074 OFFCURVE",
"384 120 CURVE",
"384 480 LINE",
"484 480 LINE",
"484 101 LINE SMOOTH",
"484 62.66 OFFCURVE",
"501.239 45 OFFCURVE",
"520 45 CURVE SMOOTH",
"543.45 45 OFFCURVE",
"557.965 67.4 OFFCURVE",
"565 110 CURVE",
"590 110 LINE",
"587.655 25.865 OFFCURVE",
"532.28 -15 OFFCURVE",
"476 -15 CURVE SMOOTH",
"420.893 -15 OFFCURVE",
"395.725 11.385 OFFCURVE",
"384 87 CURVE",
"319.513 16.71 OFFCURVE",
"269.143 -15 OFFCURVE",
"207 -15 CURVE SMOOTH",
"167.135 -15 OFFCURVE",
"141.277 0.985 OFFCURVE",
"119 34 CURVE",
"116 34 LINE",
"116 -84.215 OFFCURVE",
"144 -113.555 OFFCURVE",
"144 -170 CURVE SMOOTH",
"144 -203.015 OFFCURVE",
"120.484 -230 OFFCURVE",
"90 -230 CURVE SMOOTH",
"59.515 -230 OFFCURVE",
"40 -205.145 OFFCURVE",
"40 -170 CURVE SMOOTH",
"40 -111.425 OFFCURVE",
"72 -90.525 OFFCURVE",
"72 59.64 CURVE SMOOTH",
"72 480 LINE"
);
}
);
width = 630;
}
);
unicode = 00B5;
userData = {
com.fontlab.hintData = {
hhints = (
{
position = -12;
width = 56;
},
{
position = -12;
width = 64;
},
{
position = 459;
width = 20;
}
);
vhints = (
{
position = 40;
width = 104;
},
{
position = 73;
width = 43;
},
{
position = 73;
width = 100;
},
{
position = 384;
width = 98;
},
{
position = 565;
width = 25;
}
);
};
};
},
{
glyphname = paragraph;
layers = (
{
layerId = "91E832AB-F615-40EB-8273-D93FE80C1C5C";
paths = (
{
closed = 1;
nodes = (
"436 -191 LINE",
"386 -191 LINE",
"386 642 LINE",
"323 642 LINE",
"323 -191 LINE",
"273 -191 LINE",
"273 314 LINE",
"141 314 OFFCURVE",
"40 359 OFFCURVE",
"40 500 CURVE SMOOTH",
"40 616 OFFCURVE",
"121 682 OFFCURVE",
"259 682 CURVE SMOOTH",
"500 682 LINE",
"500 642 LINE",
"436 642 LINE"
);
}
);
width = 540;
}
);
unicode = 00B6;
userData = {
com.fontlab.hintData = {
hhints = (
{
position = 642;
width = 40;
}
);
vhints = (
{
position = 40;
width = 283;
},
{
position = 273;
width = 50;
},
{
position = 386;
width = 50;
}
);
};
};
},
{
glyphname = periodcentered;
layers = (
{
layerId = "91E832AB-F615-40EB-8273-D93FE80C1C5C";
paths = (
{
closed = 1;
nodes = (
"116 250 OFFCURVE",
"80 281.5 OFFCURVE",
"80 326.5 CURVE SMOOTH",
"80 371.5 OFFCURVE",
"116 403 OFFCURVE",
"156.5 403 CURVE SMOOTH",
"197 403 OFFCURVE",
"233 371.5 OFFCURVE",
"233 326.5 CURVE SMOOTH",
"233 281.5 OFFCURVE",
"197 250 OFFCURVE",
"156.5 250 CURVE SMOOTH"
);
}
);
width = 313;
}
);
unicode = 00B7;
userData = {
com.fontlab.hintData = {
hhints = (
{
position = 250;
width = 153;
}
);
vhints = (
{
position = 80;
width = 153;
}
);
};
};
},
{
glyphname = cedilla;
layers = (
{
layerId = "91E832AB-F615-40EB-8273-D93FE80C1C5C";
paths = (
{
closed = 1;
nodes = (
"210 10 LINE",
"175.463 -52.039 LINE",
"235.118 -57.16 OFFCURVE",
"258 -88.082 OFFCURVE",
"258 -120 CURVE SMOOTH",
"258 -173 OFFCURVE",
"204 -214 OFFCURVE",
"134 -214 CURVE SMOOTH",
"117 -214 OFFCURVE",
"104 -212 OFFCURVE",
"76 -206 CURVE",
"80 -190 LINE",
"98 -194 OFFCURVE",
"107 -195 OFFCURVE",
"116 -195 CURVE SMOOTH",
"151 -195 OFFCURVE",
"180 -171 OFFCURVE",
"180 -141 CURVE SMOOTH",
"180 -111 OFFCURVE",
"156 -92 OFFCURVE",
"110 -87 CURVE",
"164 10 LINE"
);
}
);
width = 333;
}
);
unicode = 00B8;
userData = {
com.fontlab.hintData = {
hhints = (
{
position = -214;
width = 19;
}
);
vhints = (
{
position = 180;
width = 78;
}
);
};
};
},
{
glyphname = ordmasculine;
lastChange = "2018-06-30 02:45:01 +0000";
layers = (
{
layerId = "91E832AB-F615-40EB-8273-D93FE80C1C5C";
paths = (
{
closed = 1;
nodes = (
"97.531 385.575 OFFCURVE",
"22.133 435.841 OFFCURVE",
"22.133 542.655 CURVE SMOOTH",
"22.133 633.762 OFFCURVE",
"81.823 706.019 OFFCURVE",
"179.213 706.019 CURVE SMOOTH",
"254.611 706.019 OFFCURVE",
"326.868 655.753 OFFCURVE",
"326.868 548.938 CURVE SMOOTH",
"326.868 448.407 OFFCURVE",
"264.036 385.575 OFFCURVE",
"169.788 385.575 CURVE SMOOTH"
);
},
{
closed = 1;
nodes = (
"245.187 410.708 OFFCURVE",
"257.753 482.965 OFFCURVE",
"257.753 539.514 CURVE SMOOTH",
"257.753 640.045 OFFCURVE",
"216.912 680.886 OFFCURVE",
"172.93 680.886 CURVE SMOOTH",
"106.956 680.886 OFFCURVE",
"91.248 605.487 OFFCURVE",
"91.248 552.08 CURVE SMOOTH",
"91.248 448.407 OFFCURVE",
"132.089 410.708 OFFCURVE",
"176.071 410.708 CURVE SMOOTH"
);
}
);
width = 354;
},
{
layerId = "E0C67D53-4E2B-482D-A2FA-71A3EC4FAED6";
width = 600;
}
);
unicode = 00BA;
userData = {
com.fontlab.hintData = {
hhints = (
{
position = 386;
width = 25;
},
{
position = 681;
width = 25;
}
);
vhints = (
{
position = 22;
width = 69;
},
{
position = 258;
width = 69;
}
);
};
};
},
{
glyphname = onequarter;
layers = (
{
layerId = "91E832AB-F615-40EB-8273-D93FE80C1C5C";
paths = (
{
closed = 1;
nodes = (
"248.45 302 LINE",
"69.7 302 LINE",
"69.7 318.5 LINE",
"113.7 329.5 LINE SMOOTH",
"124.7 332.25 OFFCURVE",
"130.2 340.5 OFFCURVE",
"130.2 351.5 CURVE SMOOTH",
"130.2 357 LINE",
"130.2 594.05 LINE SMOOTH",
"130.2 623.75 OFFCURVE",
"118.65 639.15 OFFCURVE",
"86.75 639.15 CURVE SMOOTH",
"77.4 639.15 LINE",
"77.4 658.95 LINE",
"117.663 658.95 OFFCURVE",
"140.913 666.1 OFFCURVE",
"168.7 687 CURVE",
"187.95 687 LINE",
"187.95 357 LINE",
"187.95 351.5 LINE SMOOTH",
"187.95 340.5 OFFCURVE",
"193.45 332.25 OFFCURVE",
"204.45 329.5 CURVE SMOOTH",
"248.45 318.5 LINE"
);
},
{
closed = 1;
nodes = (
"654.275 337.15 LINE",
"653.175 337.15 LINE",
"526.125 129.8 LINE",
"654.275 129.8 LINE"
);
},
{
closed = 1;
nodes = (
"714.775 63.25 LINE SMOOTH",
"714.775 31.35 OFFCURVE",
"728.525 19.8 OFFCURVE",
"763.175 19.8 CURVE",
"763.175 0 LINE",
"604.775 0 LINE",
"604.775 19.8 LINE",
"642.175 19.8 OFFCURVE",
"654.275 33 OFFCURVE",
"654.275 64.35 CURVE SMOOTH",
"654.275 102.85 LINE",
"503.575 102.85 LINE",
"503.575 134.75 LINE",
"661.976 385 LINE",
"714.775 385 LINE",
"714.775 129.8 LINE",
"736.775 129.8 OFFCURVE",
"744.476 138.05 OFFCURVE",
"752.726 165 CURVE",
"771.425 165 LINE",
"763.175 102.85 LINE",
"714.775 102.85 LINE"
);
},
{
closed = 1;
nodes = (
"160.575 -22 LINE",
"621.575 706 LINE",
"672.575 706 LINE",
"211.575 -22 LINE"
);
}
);
width = 841;
}
);
unicode = 00BC;
userData = {
com.fontlab.hintData = {
hhints = (
{
position = 0;
width = 20;
},
{
position = 103;
width = 27;
},
{
position = 302;
width = 16;
},
{
position = 374;
width = 21;
},
{
position = 639;
width = 20;
},
{
position = 676;
width = 21;
},
{
position = 686;
width = 20;
}
);
vhints = (
{
position = 130;
width = 58;
},
{
position = 654;
width = 60;
},
{
position = 753;
width = 19;
}
);
};
};
},
{
glyphname = onehalf;
layers = (
{
layerId = "91E832AB-F615-40EB-8273-D93FE80C1C5C";
paths = (
{
closed = 1;
nodes = (
"248.875 302 LINE",
"70.125 302 LINE",
"70.125 318.5 LINE",
"114.125 329.5 LINE SMOOTH",
"125.125 332.25 OFFCURVE",
"130.625 340.5 OFFCURVE",
"130.625 351.5 CURVE SMOOTH",
"130.625 357 LINE",
"130.625 594.05 LINE SMOOTH",
"130.625 623.75 OFFCURVE",
"119.075 639.15 OFFCURVE",
"87.175 639.15 CURVE SMOOTH",
"77.825 639.15 LINE",
"77.825 658.95 LINE",
"118.088 658.95 OFFCURVE",
"141.338 666.1 OFFCURVE",
"169.125 687 CURVE",
"188.375 687 LINE",
"188.375 357 LINE",
"188.375 351.5 LINE SMOOTH",
"188.375 340.5 OFFCURVE",
"193.875 332.25 OFFCURVE",
"204.875 329.5 CURVE SMOOTH",
"248.875 318.5 LINE"
);
},
{
closed = 1;
nodes = (
"785.05 0 LINE",
"550.75 0 LINE",
"550.75 19.8 LINE",
"658.065 140.952 OFFCURVE",
"743.8 199.439 OFFCURVE",
"743.8 272.25 CURVE SMOOTH",
"743.8 312.4 OFFCURVE",
"722.548 345.4 OFFCURVE",
"668.45 345.4 CURVE SMOOTH",
"629.95 345.4 OFFCURVE",
"595.85 315.15 OFFCURVE",
"573.3 261.8 CURVE",
"552.95 270.05 LINE",
"579.35 343.75 OFFCURVE",
"625.55 385 OFFCURVE",
"682.2 385 CURVE SMOOTH",
"763.323 385 OFFCURVE",
"804.3 339.35 OFFCURVE",
"804.3 282.7 CURVE SMOOTH",
"804.3 183.721 OFFCURVE",
"690.907 150.728 OFFCURVE",
"601.9 44.55 CURVE",
"728.4 44.55 LINE SMOOTH",
"763.6 44.55 OFFCURVE",
"777.35 54.45 OFFCURVE",
"792.75 90.75 CURVE",
"812 90.75 LINE"
);
},
{
closed = 1;
nodes = (
"161 -22 LINE",
"622 706 LINE",
"673 706 LINE",
"212 -22 LINE"
);
}
);
width = 882;
}
);
unicode = 00BD;
userData = {
com.fontlab.hintData = {
hhints = (
{
position = 0;
width = 45;
},
{
position = 302;
width = 16;
},
{
position = 345;
width = 40;
},
{
position = 639;
width = 20;
},
{
position = 676;
width = 21;
},
{
position = 686;
width = 20;
}
);
vhints = (
{
position = 131;
width = 58;
},
{
position = 744;
width = 60;
}
);
};
};
},
{
glyphname = threequarters;
layers = (
{
layerId = "91E832AB-F615-40EB-8273-D93FE80C1C5C";
paths = (
{
closed = 1;
nodes = (
"683.851 337.15 LINE",
"682.75 337.15 LINE",
"555.7 129.8 LINE",
"683.851 129.8 LINE"
);
},
{
closed = 1;
nodes = (
"744.351 63.25 LINE SMOOTH",
"744.351 31.35 OFFCURVE",
"758.101 19.8 OFFCURVE",
"792.75 19.8 CURVE",
"792.75 0 LINE",
"634.351 0 LINE",
"634.351 19.8 LINE",
"671.75 19.8 OFFCURVE",
"683.851 33 OFFCURVE",
"683.851 64.35 CURVE SMOOTH",
"683.851 102.85 LINE",
"533.15 102.85 LINE",
"533.15 134.75 LINE",
"691.55 385 LINE",
"744.351 385 LINE",
"744.351 129.8 LINE",
"766.351 129.8 OFFCURVE",
"774.05 138.05 OFFCURVE",
"782.3 165 CURVE",
"801 165 LINE",
"792.75 102.85 LINE",
"744.351 102.85 LINE"
);
},
{
closed = 1;
nodes = (
"139.649 503.1 LINE",
"212.096 541.6 OFFCURVE",
"247.449 560.85 OFFCURVE",
"247.449 602.1 CURVE SMOOTH",
"247.449 628.314 OFFCURVE",
"224.761 649.4 OFFCURVE",
"194.1 649.4 CURVE SMOOTH",
"153.389 649.4 OFFCURVE",
"125.013 630.919 OFFCURVE",
"95.1 587.25 CURVE",
"79.699 599.35 LINE",
"114.899 664.8 OFFCURVE",
"154.247 689 OFFCURVE",
"210.05 689 CURVE SMOOTH",
"261.229 689 OFFCURVE",
"307.949 659.332 OFFCURVE",
"307.949 616.95 CURVE SMOOTH",
"307.949 583.4 OFFCURVE",
"286.416 561.4 OFFCURVE",
"230.949 536.1 CURVE",
"232.05 535 LINE",
"293.649 535 OFFCURVE",
"334.35 498.465 OFFCURVE",
"334.35 442.05 CURVE SMOOTH",
"334.35 353.528 OFFCURVE",
"260.788 295.75 OFFCURVE",
"173.75 295.75 CURVE SMOOTH",
"135.177 295.75 OFFCURVE",
"93.335 305.65 OFFCURVE",
"69.8 320.5 CURVE",
"80.8 336.45 LINE",
"109.346 323.8 OFFCURVE",
"128.972 319.4 OFFCURVE",
"153.949 319.4 CURVE SMOOTH",
"219.664 319.4 OFFCURVE",
"273.85 355.968 OFFCURVE",
"273.85 429.4 CURVE SMOOTH",
"273.85 473.945 OFFCURVE",
"243.958 505.85 OFFCURVE",
"205.1 505.85 CURVE SMOOTH",
"188.05 505.85 OFFCURVE",
"168.8 498.7 OFFCURVE",
"148.449 484.95 CURVE"
);
},
{
closed = 1;
nodes = (
"190.575 -22 LINE",
"651.575 706 LINE",
"702.575 706 LINE",
"241.575 -22 LINE"
);
}
);
width = 871;
}
);
unicode = 00BE;
userData = {
com.fontlab.hintData = {
hhints = (
{
position = 0;
width = 20;
},
{
position = 103;
width = 27;
},
{
position = 296;
width = 24;
},
{
position = 374;
width = 21;
},
{
position = 506;
width = 29;
},
{
position = 649;
width = 40;
},
{
position = 686;
width = 20;
}
);
vhints = (
{
position = 247;
width = 60;
},
{
position = 274;
width = 60;
},
{
position = 684;
width = 60;
},
{
position = 782;
width = 19;
}
);
};
};
},
{
glyphname = questiondown;
layers = (
{
layerId = "91E832AB-F615-40EB-8273-D93FE80C1C5C";
paths = (
{
closed = 1;
nodes = (
"276 279 LINE",
"276 184 OFFCURVE",
"291 151 OFFCURVE",
"291 130 CURVE SMOOTH",
"291 122 OFFCURVE",
"290 117 OFFCURVE",
"285 112 CURVE SMOOTH",
"267.787 95 OFFCURVE",
"173.625 96 OFFCURVE",
"123 46 CURVE SMOOTH",
"105 28 OFFCURVE",
"93 4 OFFCURVE",
"93 -19 CURVE SMOOTH",
"93 -88.754 OFFCURVE",
"165 -171 OFFCURVE",
"226 -171 CURVE SMOOTH",
"262 -171 OFFCURVE",
"277 -149 OFFCURVE",
"307 -149 CURVE SMOOTH",
"332 -149 OFFCURVE",
"349 -166 OFFCURVE",
"349 -190 CURVE SMOOTH",
"349 -227 OFFCURVE",
"314 -251 OFFCURVE",
"261 -251 CURVE SMOOTH",
"121 -251 OFFCURVE",
"30 -37.355 OFFCURVE",
"30 25 CURVE SMOOTH",
"30 62 OFFCURVE",
"41 95 OFFCURVE",
"68 122 CURVE SMOOTH",
"120.298 175 OFFCURVE",
"183.45 173 OFFCURVE",
"217 207 CURVE SMOOTH",
"231 221 OFFCURVE",
"235 247 OFFCURVE",
"236 279 CURVE"
);
},
{
closed = 1;
nodes = (
"216.42 380 OFFCURVE",
"185 410.263 OFFCURVE",
"185 448.5 CURVE SMOOTH",
"185 486.713 OFFCURVE",
"216.42 519 OFFCURVE",
"255 519 CURVE SMOOTH",
"293.432 519 OFFCURVE",
"324 486.713 OFFCURVE",
"324 448.5 CURVE SMOOTH",
"324 410.263 OFFCURVE",
"293.432 380 OFFCURVE",
"255 380 CURVE SMOOTH"
);
}
);
width = 385;
}
);
unicode = 00BF;
userData = {
com.fontlab.hintData = {
hhints = (
{
position = -251;
width = 80;
},
{
position = 380;
width = 139;
}
);
vhints = (
{
position = 30;
width = 63;
},
{
position = 185;
width = 139;
},
{
position = 236;
width = 40;
}
);
};
};
},
{
glyphname = Agrave;
lastChange = "2018-06-30 02:45:01 +0000";
layers = (
{
layerId = "91E832AB-F615-40EB-8273-D93FE80C1C5C";
paths = (
{
closed = 1;
nodes = (
"475 290 LINE",
"235 290 LINE",
"167 100 LINE SMOOTH",
"160 80 OFFCURVE",
"175 56 OFFCURVE",
"195 50 CURVE SMOOTH",
"260 30 LINE",
"260 0 LINE",
"0 0 LINE",
"0 30 LINE",
"70 50 LINE SMOOTH",
"85 54 OFFCURVE",
"94 70 OFFCURVE",
"102 90 CURVE SMOOTH",
"340 700 LINE",
"435 700 LINE",
"678 90 LINE SMOOTH",
"686 70 OFFCURVE",
"690 56 OFFCURVE",
"710 50 CURVE SMOOTH",
"780 30 LINE",
"780 0 LINE",
"455 0 LINE",
"455 30 LINE",
"520 50 LINE SMOOTH",
"540 56 OFFCURVE",
"552 80 OFFCURVE",
"545 100 CURVE SMOOTH"
);
},
{
closed = 1;
nodes = (
"250 335 LINE",
"460 335 LINE",
"355 620 LINE"
);
},
{
closed = 1;
nodes = (
"350 960 LINE",
"400 790 LINE",
"370 790 LINE",
"230 960 LINE"
);
}
);
width = 780;
},
{
layerId = "E0C67D53-4E2B-482D-A2FA-71A3EC4FAED6";
width = 600;
}
);
unicode = 00C0;
userData = {
com.fontlab.hintData = {
hhints = (
{
position = 0;
width = 30;
},
{
position = 290;
width = 45;
},
{
position = 680;
width = 20;
},
{
position = 790;
width = 170;
}
);
vhints = (
{
position = 230;
width = 170;
}
);
};
};
},
{
glyphname = Aacute;
lastChange = "2018-06-30 02:45:01 +0000";
layers = (
{
layerId = "91E832AB-F615-40EB-8273-D93FE80C1C5C";
paths = (
{
closed = 1;
nodes = (
"475 290 LINE",
"235 290 LINE",
"167 100 LINE SMOOTH",
"160 80 OFFCURVE",
"175 56 OFFCURVE",
"195 50 CURVE SMOOTH",
"260 30 LINE",
"260 0 LINE",
"0 0 LINE",
"0 30 LINE",
"70 50 LINE SMOOTH",
"85 54 OFFCURVE",
"94 70 OFFCURVE",
"102 90 CURVE SMOOTH",
"340 700 LINE",
"435 700 LINE",
"678 90 LINE SMOOTH",
"686 70 OFFCURVE",
"690 56 OFFCURVE",
"710 50 CURVE SMOOTH",
"780 30 LINE",
"780 0 LINE",
"455 0 LINE",
"455 30 LINE",
"520 50 LINE SMOOTH",
"540 56 OFFCURVE",
"552 80 OFFCURVE",
"545 100 CURVE SMOOTH"
);
},
{
closed = 1;
nodes = (
"250 335 LINE",
"460 335 LINE",
"355 620 LINE"
);
},
{
closed = 1;
nodes = (
"370 790 LINE",
"340 790 LINE",
"390 960 LINE",
"510 960 LINE"
);
}
);
width = 780;
},
{
layerId = "E0C67D53-4E2B-482D-A2FA-71A3EC4FAED6";
width = 600;
}
);
unicode = 00C1;
userData = {
com.fontlab.hintData = {
hhints = (
{
position = 0;
width = 30;
},
{
position = 290;
width = 45;
},
{
position = 680;
width = 20;
},
{
position = 790;
width = 170;
}
);
vhints = (
{
position = 340;
width = 170;
}
);
};
};
},
{
glyphname = Acircumflex;
lastChange = "2018-06-30 02:45:01 +0000";
layers = (
{
layerId = "91E832AB-F615-40EB-8273-D93FE80C1C5C";
paths = (
{
closed = 1;
nodes = (
"475 290 LINE",
"235 290 LINE",
"167 100 LINE SMOOTH",
"160 80 OFFCURVE",
"175 56 OFFCURVE",
"195 50 CURVE SMOOTH",
"260 30 LINE",
"260 0 LINE",
"0 0 LINE",
"0 30 LINE",
"70 50 LINE SMOOTH",
"85 54 OFFCURVE",
"94 70 OFFCURVE",
"102 90 CURVE SMOOTH",
"340 700 LINE",
"435 700 LINE",
"678 90 LINE SMOOTH",
"686 70 OFFCURVE",
"690 56 OFFCURVE",
"710 50 CURVE SMOOTH",
"780 30 LINE",
"780 0 LINE",
"455 0 LINE",
"455 30 LINE",
"520 50 LINE SMOOTH",
"540 56 OFFCURVE",
"552 80 OFFCURVE",
"545 100 CURVE SMOOTH"
);
},
{
closed = 1;
nodes = (
"250 335 LINE",
"460 335 LINE",
"355 620 LINE"
);
},
{
closed = 1;
nodes = (
"447.5 945 LINE",
"547.5 775 LINE",
"517.5 775 LINE",
"387.5 891.316 LINE",
"257.5 775 LINE",
"227.5 775 LINE",
"327.5 945 LINE"
);
}
);
width = 780;
},
{
layerId = "E0C67D53-4E2B-482D-A2FA-71A3EC4FAED6";
width = 600;
}
);
unicode = 00C2;
userData = {
com.fontlab.hintData = {
hhints = (
{
position = 0;
width = 30;
},
{
position = 290;
width = 45;
},
{
position = 680;
width = 20;
},
{
position = 775;
width = 170;
}
);
vhints = (
{
position = 228;
width = 320;
}
);
};
};
},
{
glyphname = Atilde;
lastChange = "2018-06-30 02:45:01 +0000";
layers = (
{
layerId = "91E832AB-F615-40EB-8273-D93FE80C1C5C";
paths = (
{
closed = 1;
nodes = (
"475 290 LINE",
"235 290 LINE",
"167 100 LINE SMOOTH",
"160 80 OFFCURVE",
"175 56 OFFCURVE",
"195 50 CURVE SMOOTH",
"260 30 LINE",
"260 0 LINE",
"0 0 LINE",
"0 30 LINE",
"70 50 LINE SMOOTH",
"85 54 OFFCURVE",
"94 70 OFFCURVE",
"102 90 CURVE SMOOTH",
"340 700 LINE",
"435 700 LINE",
"678 90 LINE SMOOTH",
"686 70 OFFCURVE",
"690 56 OFFCURVE",
"710 50 CURVE SMOOTH",
"780 30 LINE",
"780 0 LINE",
"455 0 LINE",
"455 30 LINE",
"520 50 LINE SMOOTH",
"540 56 OFFCURVE",
"552 80 OFFCURVE",
"545 100 CURVE SMOOTH"
);
},
{
closed = 1;
nodes = (
"250 335 LINE",
"460 335 LINE",
"355 620 LINE"
);
},
{
closed = 1;
nodes = (
"221.5 777 LINE",
"223.718 859 OFFCURVE",
"260.305 904 OFFCURVE",
"323.5 904 CURVE SMOOTH",
"358.982 904 OFFCURVE",
"392.245 883.112 OFFCURVE",
"421.5 862.992 CURVE SMOOTH",
"443.832 847.633 OFFCURVE",
"464.466 835 OFFCURVE",
"481.5 835 CURVE SMOOTH",
"507.5 835 OFFCURVE",
"523.5 859 OFFCURVE",
"528.5 904 CURVE",
"553.5 904 LINE",
"553.5 829.24 OFFCURVE",
"515.559 775 OFFCURVE",
"449.5 775 CURVE SMOOTH",
"415.061 775 OFFCURVE",
"382.919 795.443 OFFCURVE",
"356.5 813.939 CURVE SMOOTH",
"332.804 830.529 OFFCURVE",
"310.875 844 OFFCURVE",
"291.5 844 CURVE SMOOTH",
"264.5 844 OFFCURVE",
"250.5 815 OFFCURVE",
"246.5 777 CURVE"
);
}
);
width = 780;
},
{
layerId = "E0C67D53-4E2B-482D-A2FA-71A3EC4FAED6";
width = 600;
}
);
unicode = 00C3;
userData = {
com.fontlab.hintData = {
hhints = (
{
position = 0;
width = 30;
},
{
position = 290;
width = 45;
},
{
position = 680;
width = 20;
},
{
position = 775;
width = 60;
},
{
position = 844;
width = 60;
}
);
vhints = (
{
position = 222;
width = 25;
},
{
position = 528;
width = 25;
}
);
};
};
},
{
glyphname = Adieresis;
lastChange = "2018-06-30 02:45:01 +0000";
layers = (
{
layerId = "91E832AB-F615-40EB-8273-D93FE80C1C5C";
paths = (
{
closed = 1;
nodes = (
"475 290 LINE",
"235 290 LINE",
"167 100 LINE SMOOTH",
"160 80 OFFCURVE",
"175 56 OFFCURVE",
"195 50 CURVE SMOOTH",
"260 30 LINE",
"260 0 LINE",
"0 0 LINE",
"0 30 LINE",
"70 50 LINE SMOOTH",
"85 54 OFFCURVE",
"94 70 OFFCURVE",
"102 90 CURVE SMOOTH",
"340 700 LINE",
"435 700 LINE",
"678 90 LINE SMOOTH",
"686 70 OFFCURVE",
"690 56 OFFCURVE",
"710 50 CURVE SMOOTH",
"780 30 LINE",
"780 0 LINE",
"455 0 LINE",
"455 30 LINE",
"520 50 LINE SMOOTH",
"540 56 OFFCURVE",
"552 80 OFFCURVE",
"545 100 CURVE SMOOTH"
);
},
{
closed = 1;
nodes = (
"250 335 LINE",
"460 335 LINE",
"355 620 LINE"
);
},
{
closed = 1;
nodes = (
"324.8 891.6 OFFCURVE",
"351.2 865.199 OFFCURVE",
"351.2 833.3 CURVE SMOOTH",
"351.2 801.4 OFFCURVE",
"324.8 775 OFFCURVE",
"292.9 775 CURVE SMOOTH",
"261 775 OFFCURVE",
"234.6 801.4 OFFCURVE",
"234.6 833.3 CURVE SMOOTH",
"234.6 865.199 OFFCURVE",
"261 891.6 OFFCURVE",
"292.9 891.6 CURVE SMOOTH"
);
},
{
closed = 1;
nodes = (
"514 891.6 OFFCURVE",
"540.4 865.199 OFFCURVE",
"540.4 833.3 CURVE SMOOTH",
"540.4 801.4 OFFCURVE",
"514 775 OFFCURVE",
"482.1 775 CURVE SMOOTH",
"450.2 775 OFFCURVE",
"423.8 801.4 OFFCURVE",
"423.8 833.3 CURVE SMOOTH",
"423.8 865.199 OFFCURVE",
"450.2 891.6 OFFCURVE",
"482.1 891.6 CURVE SMOOTH"
);
}
);
width = 780;
},
{
layerId = "E0C67D53-4E2B-482D-A2FA-71A3EC4FAED6";
width = 600;
}
);
unicode = 00C4;
userData = {
com.fontlab.hintData = {
hhints = (
{
position = 0;
width = 30;
},
{
position = 290;
width = 45;
},
{
position = 680;
width = 20;
},
{
position = 775;
width = 117;
}
);
vhints = (
{
position = 235;
width = 117;
},
{
position = 424;
width = 117;
}
);
};
};
},
{
glyphname = Aring;
lastChange = "2018-06-30 02:45:01 +0000";
layers = (
{
layerId = "91E832AB-F615-40EB-8273-D93FE80C1C5C";
paths = (
{
closed = 1;
nodes = (
"475 290 LINE",
"235 290 LINE",
"167 100 LINE SMOOTH",
"160 80 OFFCURVE",
"175 56 OFFCURVE",
"195 50 CURVE SMOOTH",
"260 30 LINE",
"260 0 LINE",
"0 0 LINE",
"0 30 LINE",
"70 50 LINE SMOOTH",
"85 54 OFFCURVE",
"94 70 OFFCURVE",
"102 90 CURVE SMOOTH",
"340 700 LINE",
"435 700 LINE",
"678 90 LINE SMOOTH",
"686 70 OFFCURVE",
"690 56 OFFCURVE",
"710 50 CURVE SMOOTH",
"780 30 LINE",
"780 0 LINE",
"455 0 LINE",
"455 30 LINE",
"520 50 LINE SMOOTH",
"540 56 OFFCURVE",
"552 80 OFFCURVE",
"545 100 CURVE SMOOTH"
);
},
{
closed = 1;
nodes = (
"250 335 LINE",
"460 335 LINE",
"355 620 LINE"
);
},
{
closed = 1;
nodes = (
"357.35 855.816 OFFCURVE",
"333.95 832.417 OFFCURVE",
"333.95 802.717 CURVE SMOOTH",
"333.95 773.018 OFFCURVE",
"357.35 748.717 OFFCURVE",
"387.05 748.717 CURVE SMOOTH",
"416.75 748.717 OFFCURVE",
"441.05 773.018 OFFCURVE",
"441.05 802.717 CURVE SMOOTH",
"441.05 832.417 OFFCURVE",
"416.75 855.816 OFFCURVE",
"387.05 855.816 CURVE SMOOTH"
);
},
{
closed = 1;
nodes = (
"439 895.767 OFFCURVE",
"481 854.767 OFFCURVE",
"481 802.767 CURVE SMOOTH",
"481 750.767 OFFCURVE",
"439 708.767 OFFCURVE",
"387 708.767 CURVE SMOOTH",
"335 708.767 OFFCURVE",
"294 750.767 OFFCURVE",
"294 802.767 CURVE SMOOTH",
"294 854.767 OFFCURVE",
"335 895.767 OFFCURVE",
"387 895.767 CURVE SMOOTH"
);
}
);
width = 780;
},
{
layerId = "E0C67D53-4E2B-482D-A2FA-71A3EC4FAED6";
width = 600;
}
);
unicode = 00C5;
userData = {
com.fontlab.hintData = {
hhints = (
{
position = 0;
width = 30;
},
{
position = 290;
width = 45;
},
{
position = 680;
width = 20;
},
{
position = 709;
width = 40;
},
{
position = 856;
width = 40;
}
);
vhints = (
{
position = 294;
width = 40;
},
{
position = 441;
width = 40;
}
);
};
};
},
{
glyphname = AE;
lastChange = "2018-06-30 02:45:01 +0000";
layers = (
{
anchors = (
{
name = "Anchor-1";
position = "{616, 810}";
},
{
name = Anchor1;
position = "{616, 810}";
}
);
layerId = "91E832AB-F615-40EB-8273-D93FE80C1C5C";
paths = (
{
closed = 1;
nodes = (
"815 230 LINE",
"795 290 LINE SMOOTH",
"781.7 329.9 OFFCURVE",
"745 340 OFFCURVE",
"695 340 CURVE SMOOTH",
"615 340 LINE",
"615 90 LINE",
"615 89.994 LINE SMOOTH",
"615 68.567 OFFCURVE",
"628.19 56.231 OFFCURVE",
"650 50 CURVE",
"805 50 LINE SMOOTH",
"865 50 OFFCURVE",
"895 70 OFFCURVE",
"925 130 CURVE SMOOTH",
"965 210 LINE",
"1005 210 LINE",
"975 0 LINE",
"720 0 LINE",
"395 0 LINE",
"395 30 LINE",
"475 50 LINE SMOOTH",
"495 55 OFFCURVE",
"505 70 OFFCURVE",
"505 90 CURVE SMOOTH",
"505 289.999 LINE",
"321 289.999 LINE",
"207 100 LINE SMOOTH",
"196.309 82.18 OFFCURVE",
"215.043 56.14 OFFCURVE",
"235 50 CURVE SMOOTH",
"300 30 LINE",
"300 0 LINE",
"40 0 LINE",
"40 30 LINE",
"110 50 LINE SMOOTH",
"124.925 54.264 OFFCURVE",
"131.425 71.462 OFFCURVE",
"142 90 CURVE SMOOTH",
"463.164 652.959 LINE",
"395 670 LINE",
"395 700 LINE",
"955 700 LINE",
"955 510 LINE",
"915 510 LINE",
"875 590 LINE SMOOTH",
"850 640 OFFCURVE",
"815 650 OFFCURVE",
"755 650 CURVE SMOOTH",
"655 650 LINE SMOOTH",
"635 650 OFFCURVE",
"615 640 OFFCURVE",
"615 610 CURVE SMOOTH",
"615 380 LINE",
"695 380 LINE SMOOTH",
"745 380 OFFCURVE",
"781.7 390.1 OFFCURVE",
"795 430 CURVE SMOOTH",
"815 490 LINE",
"845 490 LINE",
"845 230 LINE"
);
},
{
closed = 1;
nodes = (
"341 335 LINE",
"505 335 LINE",
"505 610 LINE SMOOTH",
"505 613.051 OFFCURVE",
"504.767 615.986 OFFCURVE",
"504.302 618.787 CURVE SMOOTH"
);
}
);
width = 1045;
},
{
layerId = "E0C67D53-4E2B-482D-A2FA-71A3EC4FAED6";
width = 600;
}
);
unicode = 00C6;
userData = {
com.fontlab.hintData = {
hhints = (
{
position = 0;
width = 30;
},
{
position = 0;
width = 50;
},
{
position = 290;
width = 45;
},
{
position = 340;
width = 40;
},
{
position = 470;
width = 20;
},
{
position = 650;
width = 50;
},
{
position = 670;
width = 30;
}
);
vhints = (
{
position = 505;
width = 110;
},
{
position = 595;
width = 20;
}
);
};
};
},
{
glyphname = Ccedilla;
lastChange = "2018-06-30 02:45:01 +0000";
layers = (
{
layerId = "91E832AB-F615-40EB-8273-D93FE80C1C5C";
paths = (
{
closed = 1;
nodes = (
"204.199 -7.358 OFFCURVE",
"40 107.71 OFFCURVE",
"40 343 CURVE SMOOTH",
"40 551.084 OFFCURVE",
"178.619 715 OFFCURVE",
"404 715 CURVE SMOOTH",
"490.464 715 OFFCURVE",
"563.638 687.292 OFFCURVE",
"624 641 CURVE",
"624 494 LINE",
"580 494 LINE",
"554.559 620.962 OFFCURVE",
"480.287 675 OFFCURVE",
"407 675 CURVE SMOOTH",
"390 675 LINE SMOOTH",
"204.79 675 OFFCURVE",
"160 493.562 OFFCURVE",
"160 365 CURVE SMOOTH",
"160 115.942 OFFCURVE",
"274.289 25 OFFCURVE",
"397 25 CURVE SMOOTH",
"407 25 LINE SMOOTH",
"480.287 25 OFFCURVE",
"554.559 79.038 OFFCURVE",
"580 206 CURVE",
"624 206 LINE",
"624 59 LINE",
"565.6 14.213 OFFCURVE",
"495.209 -13.179 OFFCURVE",
"412.392 -14.912 CURVE",
"381.963 -69.572 LINE",
"441.618 -74.693 OFFCURVE",
"464.5 -105.616 OFFCURVE",
"464.5 -137.533 CURVE SMOOTH",
"464.5 -190.533 OFFCURVE",
"410.5 -231.533 OFFCURVE",
"340.5 -231.533 CURVE SMOOTH",
"323.5 -231.533 OFFCURVE",
"310.5 -229.533 OFFCURVE",
"282.5 -223.533 CURVE",
"286.5 -207.533 LINE",
"304.5 -211.533 OFFCURVE",
"313.5 -212.533 OFFCURVE",
"322.5 -212.533 CURVE SMOOTH",
"357.5 -212.533 OFFCURVE",
"386.5 -188.533 OFFCURVE",
"386.5 -158.533 CURVE SMOOTH",
"386.5 -128.533 OFFCURVE",
"362.5 -109.533 OFFCURVE",
"316.5 -104.533 CURVE",
"366.548 -14.631 LINE"
);
}
);
width = 664;
},
{
layerId = "E0C67D53-4E2B-482D-A2FA-71A3EC4FAED6";
width = 600;
}
);
unicode = 00C7;
userData = {
com.fontlab.hintData = {
hhints = (
{
position = -232;
width = 19;
},
{
position = -15;
width = 40;
},
{
position = 494;
width = 21;
},
{
position = 675;
width = 40;
}
);
vhints = (
{
position = 40;
width = 120;
},
{
position = 386;
width = 78;
},
{
position = 580;
width = 44;
}
);
};
};
},
{
glyphname = Egrave;
lastChange = "2018-06-30 02:45:01 +0000";
layers = (
{
layerId = "91E832AB-F615-40EB-8273-D93FE80C1C5C";
paths = (
{
closed = 1;
nodes = (
"460 230 LINE",
"440 290 LINE SMOOTH",
"427 330 OFFCURVE",
"390 340 OFFCURVE",
"340 340 CURVE SMOOTH",
"260 340 LINE",
"260 90 LINE SMOOTH",
"260 60 OFFCURVE",
"280 50 OFFCURVE",
"300 50 CURVE SMOOTH",
"450 50 LINE SMOOTH",
"510 50 OFFCURVE",
"540 70 OFFCURVE",
"570 130 CURVE SMOOTH",
"610 210 LINE",
"650 210 LINE",
"620 0 LINE",
"40 0 LINE",
"40 30 LINE",
"120 50 LINE SMOOTH",
"140 55 OFFCURVE",
"150 70 OFFCURVE",
"150 90 CURVE SMOOTH",
"150 610 LINE SMOOTH",
"150 630 OFFCURVE",
"140 645 OFFCURVE",
"120 650 CURVE SMOOTH",
"40 670 LINE",
"40 700 LINE",
"600 700 LINE",
"600 510 LINE",
"560 510 LINE",
"520 590 LINE SMOOTH",
"495 640 OFFCURVE",
"460 650 OFFCURVE",
"400 650 CURVE SMOOTH",
"300 650 LINE SMOOTH",
"280 650 OFFCURVE",
"260 640 OFFCURVE",
"260 610 CURVE SMOOTH",
"260 380 LINE",
"340 380 LINE SMOOTH",
"390 380 OFFCURVE",
"427 390 OFFCURVE",
"440 430 CURVE SMOOTH",
"460 490 LINE",
"490 490 LINE",
"490 230 LINE"
);
},
{
closed = 1;
nodes = (
"310 960 LINE",
"360 790 LINE",
"330 790 LINE",
"190 960 LINE"
);
}
);
width = 690;
},
{
layerId = "E0C67D53-4E2B-482D-A2FA-71A3EC4FAED6";
width = 600;
}
);
unicode = 00C8;
userData = {
com.fontlab.hintData = {
hhints = (
{
position = 0;
width = 30;
},
{
position = 0;
width = 50;
},
{
position = 340;
width = 40;
},
{
position = 470;
width = 20;
},
{
position = 650;
width = 50;
},
{
position = 670;
width = 30;
},
{
position = 790;
width = 170;
}
);
vhints = (
{
position = 150;
width = 110;
},
{
position = 190;
width = 170;
},
{
position = 240;
width = 20;
},
{
position = 440;
width = 50;
}
);
};
};
},
{
glyphname = Eacute;
lastChange = "2018-06-30 02:45:01 +0000";
layers = (
{
layerId = "91E832AB-F615-40EB-8273-D93FE80C1C5C";
paths = (
{
closed = 1;
nodes = (
"460 230 LINE",
"440 290 LINE SMOOTH",
"427 330 OFFCURVE",
"390 340 OFFCURVE",
"340 340 CURVE SMOOTH",
"260 340 LINE",
"260 90 LINE SMOOTH",
"260 60 OFFCURVE",
"280 50 OFFCURVE",
"300 50 CURVE SMOOTH",
"450 50 LINE SMOOTH",
"510 50 OFFCURVE",
"540 70 OFFCURVE",
"570 130 CURVE SMOOTH",
"610 210 LINE",
"650 210 LINE",
"620 0 LINE",
"40 0 LINE",
"40 30 LINE",
"120 50 LINE SMOOTH",
"140 55 OFFCURVE",
"150 70 OFFCURVE",
"150 90 CURVE SMOOTH",
"150 610 LINE SMOOTH",
"150 630 OFFCURVE",
"140 645 OFFCURVE",
"120 650 CURVE SMOOTH",
"40 670 LINE",
"40 700 LINE",
"600 700 LINE",
"600 510 LINE",
"560 510 LINE",
"520 590 LINE SMOOTH",
"495 640 OFFCURVE",
"460 650 OFFCURVE",
"400 650 CURVE SMOOTH",
"300 650 LINE SMOOTH",
"280 650 OFFCURVE",
"260 640 OFFCURVE",
"260 610 CURVE SMOOTH",
"260 380 LINE",
"340 380 LINE SMOOTH",
"390 380 OFFCURVE",
"427 390 OFFCURVE",
"440 430 CURVE SMOOTH",
"460 490 LINE",
"490 490 LINE",
"490 230 LINE"
);
},
{
closed = 1;
nodes = (
"330 790 LINE",
"300 790 LINE",
"350 960 LINE",
"470 960 LINE"
);
}
);
width = 690;
},
{
layerId = "E0C67D53-4E2B-482D-A2FA-71A3EC4FAED6";
width = 600;
}
);
unicode = 00C9;
userData = {
com.fontlab.hintData = {
hhints = (
{
position = 0;
width = 30;
},
{
position = 0;
width = 50;
},
{
position = 340;
width = 40;
},
{
position = 470;
width = 20;
},
{
position = 650;
width = 50;
},
{
position = 670;
width = 30;
},
{
position = 790;
width = 170;
}
);
vhints = (
{
position = 150;
width = 110;
},
{
position = 240;
width = 20;
},
{
position = 300;
width = 170;
},
{
position = 440;
width = 50;
}
);
};
};
},
{
glyphname = Ecircumflex;
lastChange = "2018-06-30 02:45:01 +0000";
layers = (
{
layerId = "91E832AB-F615-40EB-8273-D93FE80C1C5C";
paths = (
{
closed = 1;
nodes = (
"460 230 LINE",
"440 290 LINE SMOOTH",
"427 330 OFFCURVE",
"390 340 OFFCURVE",
"340 340 CURVE SMOOTH",
"260 340 LINE",
"260 90 LINE SMOOTH",
"260 60 OFFCURVE",
"280 50 OFFCURVE",
"300 50 CURVE SMOOTH",
"450 50 LINE SMOOTH",
"510 50 OFFCURVE",
"540 70 OFFCURVE",
"570 130 CURVE SMOOTH",
"610 210 LINE",
"650 210 LINE",
"620 0 LINE",
"40 0 LINE",
"40 30 LINE",
"120 50 LINE SMOOTH",
"140 55 OFFCURVE",
"150 70 OFFCURVE",
"150 90 CURVE SMOOTH",
"150 610 LINE SMOOTH",
"150 630 OFFCURVE",
"140 645 OFFCURVE",
"120 650 CURVE SMOOTH",
"40 670 LINE",
"40 700 LINE",
"600 700 LINE",
"600 510 LINE",
"560 510 LINE",
"520 590 LINE SMOOTH",
"495 640 OFFCURVE",
"460 650 OFFCURVE",
"400 650 CURVE SMOOTH",
"300 650 LINE SMOOTH",
"280 650 OFFCURVE",
"260 640 OFFCURVE",
"260 610 CURVE SMOOTH",
"260 380 LINE",
"340 380 LINE SMOOTH",
"390 380 OFFCURVE",
"427 390 OFFCURVE",
"440 430 CURVE SMOOTH",
"460 490 LINE",
"490 490 LINE",
"490 230 LINE"
);
},
{
closed = 1;
nodes = (
"380 945 LINE",
"480 775 LINE",
"450 775 LINE",
"320 891.316 LINE",
"190 775 LINE",
"160 775 LINE",
"260 945 LINE"
);
}
);
width = 690;
},
{
layerId = "E0C67D53-4E2B-482D-A2FA-71A3EC4FAED6";
width = 600;
}
);
unicode = 00CA;
userData = {
com.fontlab.hintData = {
hhints = (
{
position = 0;
width = 30;
},
{
position = 0;
width = 50;
},
{
position = 340;
width = 40;
},
{
position = 470;
width = 20;
},
{
position = 650;
width = 50;
},
{
position = 670;
width = 30;
},
{
position = 775;
width = 170;
}
);
vhints = (
{
position = 150;
width = 110;
},
{
position = 160;
width = 320;
},
{
position = 240;
width = 20;
},
{
position = 440;
width = 50;
}
);
};
};
},
{
glyphname = Edieresis;
lastChange = "2018-06-30 02:45:01 +0000";
layers = (
{
layerId = "91E832AB-F615-40EB-8273-D93FE80C1C5C";
paths = (
{
closed = 1;
nodes = (
"460 230 LINE",
"440 290 LINE SMOOTH",
"427 330 OFFCURVE",
"390 340 OFFCURVE",
"340 340 CURVE SMOOTH",
"260 340 LINE",
"260 90 LINE SMOOTH",
"260 60 OFFCURVE",
"280 50 OFFCURVE",
"300 50 CURVE SMOOTH",
"450 50 LINE SMOOTH",
"510 50 OFFCURVE",
"540 70 OFFCURVE",
"570 130 CURVE SMOOTH",
"610 210 LINE",
"650 210 LINE",
"620 0 LINE",
"40 0 LINE",
"40 30 LINE",
"120 50 LINE SMOOTH",
"140 55 OFFCURVE",
"150 70 OFFCURVE",
"150 90 CURVE SMOOTH",
"150 610 LINE SMOOTH",
"150 630 OFFCURVE",
"140 645 OFFCURVE",
"120 650 CURVE SMOOTH",
"40 670 LINE",
"40 700 LINE",
"600 700 LINE",
"600 510 LINE",
"560 510 LINE",
"520 590 LINE SMOOTH",
"495 640 OFFCURVE",
"460 650 OFFCURVE",
"400 650 CURVE SMOOTH",
"300 650 LINE SMOOTH",
"280 650 OFFCURVE",
"260 640 OFFCURVE",
"260 610 CURVE SMOOTH",
"260 380 LINE",
"340 380 LINE SMOOTH",
"390 380 OFFCURVE",
"427 390 OFFCURVE",
"440 430 CURVE SMOOTH",
"460 490 LINE",
"490 490 LINE",
"490 230 LINE"
);
},
{
closed = 1;
nodes = (
"257.3 891.6 OFFCURVE",
"283.7 865.199 OFFCURVE",
"283.7 833.3 CURVE SMOOTH",
"283.7 801.4 OFFCURVE",
"257.3 775 OFFCURVE",
"225.4 775 CURVE SMOOTH",
"193.5 775 OFFCURVE",
"167.1 801.4 OFFCURVE",
"167.1 833.3 CURVE SMOOTH",
"167.1 865.199 OFFCURVE",
"193.5 891.6 OFFCURVE",
"225.4 891.6 CURVE SMOOTH"
);
},
{
closed = 1;
nodes = (
"446.5 891.6 OFFCURVE",
"472.9 865.199 OFFCURVE",
"472.9 833.3 CURVE SMOOTH",
"472.9 801.4 OFFCURVE",
"446.5 775 OFFCURVE",
"414.6 775 CURVE SMOOTH",
"382.7 775 OFFCURVE",
"356.3 801.4 OFFCURVE",
"356.3 833.3 CURVE SMOOTH",
"356.3 865.199 OFFCURVE",
"382.7 891.6 OFFCURVE",
"414.6 891.6 CURVE SMOOTH"
);
}
);
width = 690;
},
{
layerId = "E0C67D53-4E2B-482D-A2FA-71A3EC4FAED6";
width = 600;
}
);
unicode = 00CB;
userData = {
com.fontlab.hintData = {
hhints = (
{
position = 0;
width = 30;
},
{
position = 0;
width = 50;
},
{
position = 340;
width = 40;
},
{
position = 470;
width = 20;
},
{
position = 650;
width = 50;
},
{
position = 670;
width = 30;
},
{
position = 775;
width = 117;
}
);
vhints = (
{
position = 150;
width = 110;
},
{
position = 167;
width = 117;
},
{
position = 240;
width = 20;
},
{
position = 356;
width = 117;
},
{
position = 440;
width = 50;
}
);
};
};
},
{
glyphname = Igrave;
lastChange = "2018-06-30 02:45:01 +0000";
layers = (
{
layerId = "91E832AB-F615-40EB-8273-D93FE80C1C5C";
paths = (
{
closed = 1;
nodes = (
"370 0 LINE",
"40 0 LINE",
"40 30 LINE",
"120 50 LINE SMOOTH",
"140 55 OFFCURVE",
"150 70 OFFCURVE",
"150 90 CURVE SMOOTH",
"150 610 LINE SMOOTH",
"150 630 OFFCURVE",
"140 645 OFFCURVE",
"120 650 CURVE SMOOTH",
"40 670 LINE",
"40 700 LINE",
"370 700 LINE",
"370 670 LINE",
"290 650 LINE SMOOTH",
"270 645 OFFCURVE",
"260 630 OFFCURVE",
"260 610 CURVE SMOOTH",
"260 90 LINE SMOOTH",
"260 70 OFFCURVE",
"270 55 OFFCURVE",
"290 50 CURVE SMOOTH",
"370 30 LINE"
);
},
{
closed = 1;
nodes = (
"175 960 LINE",
"225 790 LINE",
"195 790 LINE",
"55 960 LINE"
);
}
);
width = 410;
},
{
layerId = "E0C67D53-4E2B-482D-A2FA-71A3EC4FAED6";
width = 600;
}
);
unicode = 00CC;
userData = {
com.fontlab.hintData = {
hhints = (
{
position = 0;
width = 30;
},
{
position = 670;
width = 30;
},
{
position = 790;
width = 170;
}
);
vhints = (
{
position = 55;
width = 170;
},
{
position = 150;
width = 110;
}
);
};
};
},
{
glyphname = Iacute;
lastChange = "2018-06-30 02:45:01 +0000";
layers = (
{
layerId = "91E832AB-F615-40EB-8273-D93FE80C1C5C";
paths = (
{
closed = 1;
nodes = (
"370 0 LINE",
"40 0 LINE",
"40 30 LINE",
"120 50 LINE SMOOTH",
"140 55 OFFCURVE",
"150 70 OFFCURVE",
"150 90 CURVE SMOOTH",
"150 610 LINE SMOOTH",
"150 630 OFFCURVE",
"140 645 OFFCURVE",
"120 650 CURVE SMOOTH",
"40 670 LINE",
"40 700 LINE",
"370 700 LINE",
"370 670 LINE",
"290 650 LINE SMOOTH",
"270 645 OFFCURVE",
"260 630 OFFCURVE",
"260 610 CURVE SMOOTH",
"260 90 LINE SMOOTH",
"260 70 OFFCURVE",
"270 55 OFFCURVE",
"290 50 CURVE SMOOTH",
"370 30 LINE"
);
},
{
closed = 1;
nodes = (
"195 790 LINE",
"165 790 LINE",
"215 960 LINE",
"335 960 LINE"
);
}
);
width = 410;
},
{
layerId = "E0C67D53-4E2B-482D-A2FA-71A3EC4FAED6";
width = 600;
}
);
unicode = 00CD;
userData = {
com.fontlab.hintData = {
hhints = (
{
position = 0;
width = 30;
},
{
position = 670;
width = 30;
},
{
position = 790;
width = 170;
}
);
vhints = (
{
position = 150;
width = 110;
},
{
position = 165;
width = 170;
}
);
};
};
},
{
glyphname = Icircumflex;
lastChange = "2018-06-30 02:45:01 +0000";
layers = (
{
layerId = "91E832AB-F615-40EB-8273-D93FE80C1C5C";
paths = (
{
closed = 1;
nodes = (
"370 0 LINE",
"40 0 LINE",
"40 30 LINE",
"120 50 LINE SMOOTH",
"140 55 OFFCURVE",
"150 70 OFFCURVE",
"150 90 CURVE SMOOTH",
"150 610 LINE SMOOTH",
"150 630 OFFCURVE",
"140 645 OFFCURVE",
"120 650 CURVE SMOOTH",
"40 670 LINE",
"40 700 LINE",
"370 700 LINE",
"370 670 LINE",
"290 650 LINE SMOOTH",
"270 645 OFFCURVE",
"260 630 OFFCURVE",
"260 610 CURVE SMOOTH",
"260 90 LINE SMOOTH",
"260 70 OFFCURVE",
"270 55 OFFCURVE",
"290 50 CURVE SMOOTH",
"370 30 LINE"
);
},
{
closed = 1;
nodes = (
"265 945 LINE",
"365 775 LINE",
"335 775 LINE",
"205 891.316 LINE",
"75 775 LINE",
"45 775 LINE",
"145 945 LINE"
);
}
);
width = 410;
},
{
layerId = "E0C67D53-4E2B-482D-A2FA-71A3EC4FAED6";
width = 600;
}
);
unicode = 00CE;
userData = {
com.fontlab.hintData = {
hhints = (
{
position = 0;
width = 30;
},
{
position = 670;
width = 30;
},
{
position = 775;
width = 170;
}
);
vhints = (
{
position = 45;
width = 320;
},
{
position = 150;
width = 110;
}
);
};
};
},
{
glyphname = Idieresis;
lastChange = "2018-06-30 02:45:01 +0000";
layers = (
{
layerId = "91E832AB-F615-40EB-8273-D93FE80C1C5C";
paths = (
{
closed = 1;
nodes = (
"370 0 LINE",
"40 0 LINE",
"40 30 LINE",
"120 50 LINE SMOOTH",
"140 55 OFFCURVE",
"150 70 OFFCURVE",
"150 90 CURVE SMOOTH",
"150 610 LINE SMOOTH",
"150 630 OFFCURVE",
"140 645 OFFCURVE",
"120 650 CURVE SMOOTH",
"40 670 LINE",
"40 700 LINE",
"370 700 LINE",
"370 670 LINE",
"290 650 LINE SMOOTH",
"270 645 OFFCURVE",
"260 630 OFFCURVE",
"260 610 CURVE SMOOTH",
"260 90 LINE SMOOTH",
"260 70 OFFCURVE",
"270 55 OFFCURVE",
"290 50 CURVE SMOOTH",
"370 30 LINE"
);
},
{
closed = 1;
nodes = (
"142.3 891.6 OFFCURVE",
"168.7 865.199 OFFCURVE",
"168.7 833.3 CURVE SMOOTH",
"168.7 801.4 OFFCURVE",
"142.3 775 OFFCURVE",
"110.4 775 CURVE SMOOTH",
"78.5 775 OFFCURVE",
"52.1 801.4 OFFCURVE",
"52.1 833.3 CURVE SMOOTH",
"52.1 865.199 OFFCURVE",
"78.5 891.6 OFFCURVE",
"110.4 891.6 CURVE SMOOTH"
);
},
{
closed = 1;
nodes = (
"331.5 891.6 OFFCURVE",
"357.9 865.199 OFFCURVE",
"357.9 833.3 CURVE SMOOTH",
"357.9 801.4 OFFCURVE",
"331.5 775 OFFCURVE",
"299.6 775 CURVE SMOOTH",
"267.7 775 OFFCURVE",
"241.3 801.4 OFFCURVE",
"241.3 833.3 CURVE SMOOTH",
"241.3 865.199 OFFCURVE",
"267.7 891.6 OFFCURVE",
"299.6 891.6 CURVE SMOOTH"
);
}
);
width = 410;
},
{
layerId = "E0C67D53-4E2B-482D-A2FA-71A3EC4FAED6";
width = 600;
}
);
unicode = 00CF;
userData = {
com.fontlab.hintData = {
hhints = (
{
position = 0;
width = 30;
},
{
position = 670;
width = 30;
},
{
position = 775;
width = 117;
}
);
vhints = (
{
position = 52;
width = 117;
},
{
position = 150;
width = 110;
},
{
position = 241;
width = 117;
}
);
};
};
},
{
glyphname = Eth;
lastChange = "2018-06-30 02:45:01 +0000";
layers = (
{
layerId = "91E832AB-F615-40EB-8273-D93FE80C1C5C";
paths = (
{
closed = 1;
nodes = (
"710 123.671 OFFCURVE",
"572 0 OFFCURVE",
"410 0 CURVE SMOOTH",
"40 0 LINE",
"40 30 LINE",
"120 50 LINE SMOOTH",
"140 55 OFFCURVE",
"150 70 OFFCURVE",
"150 90 CURVE SMOOTH",
"150 350 LINE",
"20 350 LINE",
"20 420 LINE",
"150 420 LINE",
"150 610 LINE SMOOTH",
"150 630 OFFCURVE",
"140 645 OFFCURVE",
"120 650 CURVE SMOOTH",
"40 670 LINE",
"40 700 LINE",
"380 700 LINE SMOOTH",
"626.321 700 OFFCURVE",
"710 521.84 OFFCURVE",
"710 350 CURVE SMOOTH"
);
},
{
closed = 1;
nodes = (
"260 50 OFFCURVE",
"280 40 OFFCURVE",
"300 40 CURVE SMOOTH",
"380 40 LINE SMOOTH",
"530.938 40 OFFCURVE",
"590 214.375 OFFCURVE",
"590 350 CURVE SMOOTH",
"590 542.2 OFFCURVE",
"502.842 660 OFFCURVE",
"350 660 CURVE SMOOTH",
"300 660 LINE SMOOTH",
"280 660 OFFCURVE",
"260 650 OFFCURVE",
"260 620 CURVE SMOOTH",
"260 420 LINE",
"448 420 LINE",
"448 350 LINE",
"260 350 LINE",
"260 80 LINE SMOOTH"
);
}
);
width = 750;
},
{
layerId = "E0C67D53-4E2B-482D-A2FA-71A3EC4FAED6";
width = 600;
}
);
unicode = 00D0;
userData = {
com.fontlab.hintData = {
hhints = (
{
position = 0;
width = 30;
},
{
position = 0;
width = 40;
},
{
position = 350;
width = 70;
},
{
position = 660;
width = 40;
},
{
position = 670;
width = 30;
}
);
vhints = (
{
position = 150;
width = 110;
},
{
position = 590;
width = 120;
}
);
};
};
},
{
glyphname = Ntilde;
lastChange = "2018-06-30 02:45:01 +0000";
layers = (
{
layerId = "91E832AB-F615-40EB-8273-D93FE80C1C5C";
paths = (
{
closed = 1;
nodes = (
"310 0 LINE",
"40 0 LINE",
"40 30 LINE",
"120 50 LINE SMOOTH",
"140 55 OFFCURVE",
"150 70 OFFCURVE",
"150 90 CURVE SMOOTH",
"150 588 LINE SMOOTH",
"150 608 OFFCURVE",
"137.252 618.942 OFFCURVE",
"120 628 CURVE SMOOTH",
"40 670 LINE",
"40 700 LINE",
"200 700 LINE",
"620 172.766 LINE",
"620 610 LINE SMOOTH",
"620 630 OFFCURVE",
"610 645 OFFCURVE",
"590 650 CURVE SMOOTH",
"510 670 LINE",
"510 700 LINE",
"780 700 LINE",
"780 670 LINE",
"700 650 LINE SMOOTH",
"680 645 OFFCURVE",
"670 630 OFFCURVE",
"670 610 CURVE SMOOTH",
"670 110 LINE SMOOTH",
"670 66 OFFCURVE",
"673 30 OFFCURVE",
"680 0 CURVE",
"620 0 LINE",
"200 527.234 LINE",
"200 90 LINE SMOOTH",
"200 70 OFFCURVE",
"210 55 OFFCURVE",
"230 50 CURVE SMOOTH",
"310 30 LINE"
);
},
{
closed = 1;
nodes = (
"244 777 LINE",
"246.218 859 OFFCURVE",
"282.805 904 OFFCURVE",
"346 904 CURVE SMOOTH",
"381.482 904 OFFCURVE",
"414.745 883.112 OFFCURVE",
"444 862.992 CURVE SMOOTH",
"466.332 847.633 OFFCURVE",
"486.966 835 OFFCURVE",
"504 835 CURVE SMOOTH",
"530 835 OFFCURVE",
"546 859 OFFCURVE",
"551 904 CURVE",
"576 904 LINE",
"576 829.24 OFFCURVE",
"538.059 775 OFFCURVE",
"472 775 CURVE SMOOTH",
"437.561 775 OFFCURVE",
"405.419 795.443 OFFCURVE",
"379 813.939 CURVE SMOOTH",
"355.304 830.529 OFFCURVE",
"333.375 844 OFFCURVE",
"314 844 CURVE SMOOTH",
"287 844 OFFCURVE",
"273 815 OFFCURVE",
"269 777 CURVE"
);
}
);
width = 820;
},
{
layerId = "E0C67D53-4E2B-482D-A2FA-71A3EC4FAED6";
width = 600;
}
);
unicode = 00D1;
userData = {
com.fontlab.hintData = {
hhints = (
{
position = 0;
width = 30;
},
{
position = 670;
width = 30;
},
{
position = 775;
width = 60;
},
{
position = 844;
width = 60;
}
);
vhints = (
{
position = 150;
width = 50;
},
{
position = 244;
width = 25;
},
{
position = 551;
width = 25;
},
{
position = 620;
width = 50;
}
);
};
};
},
{
glyphname = Ograve;
layers = (
{
layerId = "91E832AB-F615-40EB-8273-D93FE80C1C5C";
paths = (
{
closed = 1;
nodes = (
"215.488 -15 OFFCURVE",
"40 99.756 OFFCURVE",
"40 343 CURVE SMOOTH",
"40 551.084 OFFCURVE",
"178.619 715 OFFCURVE",
"404 715 CURVE SMOOTH",
"578.491 715 OFFCURVE",
"747 600.244 OFFCURVE",
"747 357 CURVE SMOOTH",
"747 127.322 OFFCURVE",
"601.4 -15 OFFCURVE",
"383 -15 CURVE SMOOTH"
);
},
{
closed = 1;
nodes = (
"591.895 25 OFFCURVE",
"627 199.18 OFFCURVE",
"627 335 CURVE SMOOTH",
"627 576.824 OFFCURVE",
"512.711 675 OFFCURVE",
"390 675 CURVE SMOOTH",
"204.79 675 OFFCURVE",
"160 493.562 OFFCURVE",
"160 365 CURVE SMOOTH",
"160 115.942 OFFCURVE",
"274.289 25 OFFCURVE",
"397 25 CURVE SMOOTH"
);
},
{
closed = 1;
nodes = (
"360 960 LINE",
"410 790 LINE",
"380 790 LINE",
"240 960 LINE"
);
}
);
width = 787;
}
);
unicode = 00D2;
userData = {
com.fontlab.hintData = {
hhints = (
{
position = -15;
width = 40;
},
{
position = 675;
width = 40;
},
{
position = 790;
width = 170;
}
);
vhints = (
{
position = 40;
width = 120;
},
{
position = 240;
width = 170;
},
{
position = 627;
width = 120;
}
);
};
};
},
{
glyphname = Oacute;
layers = (
{
layerId = "91E832AB-F615-40EB-8273-D93FE80C1C5C";
paths = (
{
closed = 1;
nodes = (
"215.488 -15 OFFCURVE",
"40 99.756 OFFCURVE",
"40 343 CURVE SMOOTH",
"40 551.084 OFFCURVE",
"178.619 715 OFFCURVE",
"404 715 CURVE SMOOTH",
"578.491 715 OFFCURVE",
"747 600.244 OFFCURVE",
"747 357 CURVE SMOOTH",
"747 127.322 OFFCURVE",
"601.4 -15 OFFCURVE",
"383 -15 CURVE SMOOTH"
);
},
{
closed = 1;
nodes = (
"591.895 25 OFFCURVE",
"627 199.18 OFFCURVE",
"627 335 CURVE SMOOTH",
"627 576.824 OFFCURVE",
"512.711 675 OFFCURVE",
"390 675 CURVE SMOOTH",
"204.79 675 OFFCURVE",
"160 493.562 OFFCURVE",
"160 365 CURVE SMOOTH",
"160 115.942 OFFCURVE",
"274.289 25 OFFCURVE",
"397 25 CURVE SMOOTH"
);
},
{
closed = 1;
nodes = (
"380 790 LINE",
"350 790 LINE",
"400 960 LINE",
"520 960 LINE"
);
}
);
width = 787;
}
);
unicode = 00D3;
userData = {
com.fontlab.hintData = {
hhints = (
{
position = -15;
width = 40;
},
{
position = 675;
width = 40;
},
{
position = 790;
width = 170;
}
);
vhints = (
{
position = 40;
width = 120;
},
{
position = 350;
width = 170;
},
{
position = 627;
width = 120;
}
);
};
};
},
{
glyphname = Ocircumflex;
layers = (
{
layerId = "91E832AB-F615-40EB-8273-D93FE80C1C5C";
paths = (
{
closed = 1;
nodes = (
"215.488 -15 OFFCURVE",
"40 99.756 OFFCURVE",
"40 343 CURVE SMOOTH",
"40 551.084 OFFCURVE",
"178.619 715 OFFCURVE",
"404 715 CURVE SMOOTH",
"578.491 715 OFFCURVE",
"747 600.244 OFFCURVE",
"747 357 CURVE SMOOTH",
"747 127.322 OFFCURVE",
"601.4 -15 OFFCURVE",
"383 -15 CURVE SMOOTH"
);
},
{
closed = 1;
nodes = (
"591.895 25 OFFCURVE",
"627 199.18 OFFCURVE",
"627 335 CURVE SMOOTH",
"627 576.824 OFFCURVE",
"512.711 675 OFFCURVE",
"390 675 CURVE SMOOTH",
"204.79 675 OFFCURVE",
"160 493.562 OFFCURVE",
"160 365 CURVE SMOOTH",
"160 115.942 OFFCURVE",
"274.289 25 OFFCURVE",
"397 25 CURVE SMOOTH"
);
},
{
closed = 1;
nodes = (
"464 945 LINE",
"564 775 LINE",
"534 775 LINE",
"404 891.316 LINE",
"274 775 LINE",
"244 775 LINE",
"344 945 LINE"
);
}
);
width = 787;
}
);
unicode = 00D4;
userData = {
com.fontlab.hintData = {
hhints = (
{
position = -15;
width = 40;
},
{
position = 675;
width = 40;
},
{
position = 775;
width = 170;
}
);
vhints = (
{
position = 40;
width = 120;
},
{
position = 244;
width = 320;
},
{
position = 627;
width = 120;
}
);
};
};
},
